<?xml version="1.0" standalone="no"?>
<!DOCTYPE svg PUBLIC "-//W3C//DTD SVG 1.1//EN" "http://www.w3.org/Graphics/SVG/1.1/DTD/svg11.dtd" >
<svg xmlns="http://www.w3.org/2000/svg" xmlns:xlink="http://www.w3.org/1999/xlink" version="1.1">
<metadata>
Created by FontForge 20170910 at Tue Dec 24 00:25:11 2013
 By jimmywarting
Copyright (c) 2009 by Viet hoa by UhThiLaHuVo - chipquay@gmail.com. All rights reserved.
</metadata>
<defs>
<font id="HLTAphroditeSlimPro" horiz-adv-x="474" >
  <font-face 
    font-family="HLT AphroditeSlimPro"
    font-weight="400"
    font-stretch="normal"
    units-per-em="1000"
    panose-1="2 0 5 7 0 0 0 2 0 2"
    ascent="800"
    descent="-200"
    x-height="514"
    cap-height="1133"
    bbox="-2696 -1088 5324 1727"
    underline-thickness="50"
    underline-position="-100"
    unicode-range="U+0020-FB06"
  />
<missing-glyph horiz-adv-x="317" 
 />
    <glyph glyph-name=".notdef" horiz-adv-x="317" 
 />
    <glyph glyph-name=".null" horiz-adv-x="0" 
 />
    <glyph glyph-name="nonmarkingreturn" horiz-adv-x="317" 
 />
    <glyph glyph-name="space" unicode=" " horiz-adv-x="307" 
 />
    <glyph glyph-name="space" unicode="&#xa0;" horiz-adv-x="307" 
 />
    <glyph glyph-name="numbersign" unicode="#" horiz-adv-x="865" 
d="M822 505q6 0 7.5 -2t-0.5 -4q-17 -9 -27.5 -11.5t-18.5 -2.5h-128q-29 -60 -55.5 -115.5t-50.5 -103.5h182q6 0 7.5 -1.5t-0.5 -3.5q-17 -9 -27.5 -11.5t-17.5 -2.5h-153q-39 -79 -64 -129.5t-29 -58.5q-6 -12 -10.5 -25t-7.5 -24.5t-5 -20.5t-2 -12q0 -9 -1.5 -12.5
t-11.5 5.5q-5 4 -9 13t-4.5 23.5t4 35t17.5 47.5q8 15 28 56.5t49 101.5h-179q-39 -79 -64 -129.5t-29 -58.5q-6 -12 -10.5 -25t-7.5 -24.5t-5 -20.5t-2 -12q0 -9 -1.5 -12.5t-12.5 5.5q-5 4 -8.5 13t-4 23.5t4 35t17.5 47.5q7 15 27 56.5t49 101.5h-162q-3 0 -4 1.5t1 2.5
q14 8 27 11t22 3h125q24 49 51 104.5t56 115.5h-187q-3 0 -4 1.5t1 3.5q13 8 26 10.5t23 2.5q3 0 45 0.5t105 0.5q17 35 34.5 71t34.5 71q19 40 27.5 68.5t9.5 47.5q1 8 4.5 7.5t7.5 -5.5q11 -11 13.5 -26.5t-0.5 -32t-9 -33t-12 -28.5l-32 -70t-33 -70h181q17 36 34 71.5
t34 70.5q19 40 27.5 68.5t9.5 47.5q1 8 5 7.5t8 -5.5q11 -11 13 -26.5t-0.5 -32t-8.5 -33t-12 -28.5q-17 -35 -33 -70l-32 -70q33 0 61.5 0.5t49.5 0.5h33.5h13.5zM503 266q23 48 50 103.5t56 115.5h-179q-29 -60 -56 -115.5t-50 -104.5q42 0 88 0.5t91 0.5z" />
    <glyph glyph-name="dollar" unicode="$" horiz-adv-x="708" 
d="M553 772q25 -4 49 -13.5t43 -25t30.5 -38.5t10.5 -55q-1 -21 -11 -34t-23.5 -18t-28.5 -2.5t-26 12.5q-17 15 -13.5 39.5t24.5 36.5q9 5 12.5 16t-3.5 22q-6 11 -22.5 23t-47.5 19q-19 -66 -44.5 -154.5t-54.5 -185.5q27 -27 53 -54t45.5 -55t29.5 -57.5t5 -61.5
q-6 -41 -27 -76.5t-54 -61.5t-77.5 -41.5t-98.5 -16.5q-17 -57 -26.5 -91t-11.5 -37q-5 -11 -10 -19.5t-19 -19.5q-8 -6 -5 5q0 1 13 45.5t35 117.5q-55 2 -91.5 15t-59.5 32.5t-34 43.5t-14 47.5t1 44.5t10 35q4 9 12 15t18 8t21 0.5t20 -8.5q10 -7 15 -16.5t5.5 -19
t-2.5 -18.5t-8 -15q-5 -7 -12 -12.5t-13 -12t-8.5 -15t0.5 -20.5q3 -11 12 -25.5t26 -27.5t43 -22.5t64 -10.5q23 77 50 171t56 191q-26 27 -51.5 53.5t-46 53.5t-32.5 54.5t-10 55.5q3 47 27.5 83.5t61 60.5t81.5 35.5t88 7.5q10 32 15.5 50t5.5 19q4 14 12 23t18 14
q5 2 1 -12q-2 -5 -9 -30.5t-19 -66.5zM524 168q3 24 -3.5 47.5t-20 46.5t-31.5 45t-39 44q-28 -94 -54 -183t-46 -158q51 2 86.5 16t58 35.5t34.5 49.5t15 57zM429 433q29 97 53.5 181.5t41.5 142.5q-34 3 -68.5 -5t-62.5 -25t-46.5 -42.5t-20.5 -56.5q-2 -27 6 -52.5
t22.5 -49.5t34 -47.5t40.5 -45.5z" />
    <glyph glyph-name="percent" unicode="%" horiz-adv-x="875" 
d="M619 608q-50 -81 -102 -165t-96.5 -155t-76 -121.5t-39.5 -65.5q-26 -48 -36.5 -78t-8.5 -53q0 -1 -1 -3.5t-3 -3.5t-5.5 1t-7.5 9q-6 10 -8.5 23.5t0.5 32.5t13 43t29 55q14 24 41.5 67.5t60.5 96t68 108.5t65 103.5t51.5 81.5t26.5 44q28 50 40.5 81.5t10.5 56.5
q0 1 0.5 3t2.5 2.5t5.5 -1t8.5 -8.5q13 -17 6 -54t-45 -100zM661 358q47 0 68.5 -29.5t23 -73t-15.5 -93t-46.5 -90t-70 -63.5t-86.5 -14q-27 5 -44.5 23t-25.5 42.5t-6.5 52.5t10.5 55q15 42 37.5 72.5t47.5 49t49 26.5t41 7q9 -1 13.5 -7t4 -13t-6 -12.5t-15.5 -4.5
q-7 0 -10.5 3.5t-5.5 7t-3.5 6.5t-5.5 3q-5 0 -9.5 -2.5t-9.5 -5.5q-44 -31 -70 -78t-33 -92t5 -80.5t45 -42.5q34 -8 65 13t55 57t39 80.5t16.5 85.5t-11.5 71.5t-45 38.5q-5 1 -5 4t5 3zM329 720q47 0 68.5 -29.5t23 -72.5t-15.5 -93t-46.5 -90t-70 -63.5t-86.5 -14.5
q-27 6 -44.5 23.5t-25.5 42.5t-6.5 53t10.5 55q15 42 37.5 72t47.5 49t49 27t41 7q9 -1 13.5 -7t4 -13t-5.5 -12.5t-15 -5.5q-8 0 -11.5 3.5t-5.5 7t-3.5 6.5t-4.5 3q-9 0 -19 -8q-44 -31 -70 -78t-33.5 -92t4.5 -80.5t45 -42.5q34 -8 65 13t55 57t39 80.5t16.5 85.5
t-11.5 71.5t-45 38.5q-5 2 -5 4.5t5 2.5z" />
    <glyph glyph-name="ampersand" unicode="&#x26;" horiz-adv-x="1145" 
d="M942 452q53 0 93.5 -16t66 -44.5t36 -68t4.5 -87.5q-7 -49 -36.5 -97t-78.5 -86.5t-115.5 -62.5t-147.5 -24q-94 0 -171.5 40t-137.5 104q-47 -54 -103.5 -88t-131.5 -34q-24 0 -57.5 8t-64 28t-51 54t-16.5 86t33.5 92t69 69.5t82 49.5t71.5 34q-20 69 -21.5 129
t15.5 100q12 29 33 55t50 45.5t66.5 31t81.5 11.5q31 0 55.5 -9.5t41 -25.5t25 -35.5t8.5 -39.5q0 -26 -9.5 -49t-26.5 -41t-40 -28.5t-50 -10.5q-5 0 -5 3t4 3q24 4 42.5 21t29 40t12 49t-7 48.5t-29 38t-54.5 17.5q-52 3 -96 -22t-70 -74q-23 -43 -22.5 -104.5
t19.5 -129.5t54.5 -137.5t82.5 -129.5q30 40 59 85t59 88.5t62.5 82.5t70 67.5t81 44t95.5 12.5q13 -1 18 -7t3.5 -12t-7.5 -10t-16 -2q-7 1 -14 5t-17.5 5.5t-27 -0.5t-41.5 -12q-52 -21 -93.5 -61.5t-78 -90.5t-70.5 -105t-71 -104q30 -36 63.5 -66.5t69.5 -52t74.5 -34
t77.5 -12.5q89 0 154 33.5t105 83.5t54.5 108t3 108t-49.5 83.5t-102 33.5q-42 0 -77 -16t-60.5 -40t-41.5 -53t-20 -55.5t4.5 -46.5t32.5 -27q12 -3 15.5 -11t0 -14.5t-12.5 -9t-20 3.5q-29 17 -38.5 44.5t-4 59.5t25 64t49.5 58t68.5 42.5t82.5 16.5zM221 11q34 -4 64.5 3
t58 22t52 37t47.5 49q-54 60 -92.5 131t-59.5 142q-76 -33 -122 -73t-67 -81.5t-20 -81t18.5 -71t49 -52.5t71.5 -25z" />
    <glyph glyph-name="quoteright" unicode="&#x2019;" horiz-adv-x="396" 
d="M184 606q39 24 51.5 45t11.5 40t-7.5 36.5t-4.5 34.5q3 25 18 32t25 6q7 0 22.5 -8t16.5 -29q0 -29 -13.5 -55.5t-33.5 -48.5t-42 -38.5t-37 -24.5q-8 -5 -11 0.5t4 9.5z" />
    <glyph glyph-name="parenleft" unicode="(" horiz-adv-x="517" 
d="M722 1124q-36 -18 -79.5 -46t-90 -67.5t-93.5 -90.5t-90 -116t-79.5 -144.5t-61.5 -175.5q-26 -99 -26 -199.5t18.5 -194.5t51 -178t72.5 -149q8 -12 15 -18t12.5 -9.5t11 -6t10.5 -7.5q7 -7 7 -13.5t-3.5 -10.5t-10.5 -4t-13 7q-11 11 -36.5 45.5t-55.5 88t-60 123.5
t-49 153t-22.5 176t18.5 192q23 105 69 194t105 163.5t124.5 132.5t128.5 100.5t118 68.5t91 36q10 3 16 -0.5t7.5 -8.5t-1.5 -10.5t-12 -8.5q-8 -2 -15 -1.5t-17 0t-24 -5t-36 -15.5z" />
    <glyph glyph-name="parenright" unicode=")" horiz-adv-x="572" 
d="M-80 -256q53 28 123 77.5t140 127t131.5 185t99.5 251.5q26 99 26 199.5t-18.5 194.5t-51 177.5t-72.5 148.5q-8 12 -15 18t-13 9.5t-11.5 6.5t-10.5 8q-7 7 -7 13.5t4 10.5t11 4t13 -7q11 -11 36.5 -45.5t55.5 -88.5t59.5 -124t49 -153t23 -176t-18.5 -192
q-24 -104 -70 -193.5t-104.5 -164t-124.5 -132.5t-129 -100.5t-117.5 -68.5t-90.5 -35q-10 -3 -16 0t-7.5 8.5t1.5 11t12 7.5q8 2 15 1.5t16.5 0.5t24 5t36.5 15z" />
    <glyph glyph-name="asterisk" unicode="*" horiz-adv-x="814" 
d="M633 963q30 -21 51 -29t37 -11t28.5 -4.5t24.5 -10.5q14 -10 11 -23.5t-13 -24.5q-11 -11 -26 -16t-28 4q-12 8 -16.5 18.5t-11 23.5t-20 29.5t-43.5 37.5q-15 -43 -19 -67.5t-3.5 -41t1 -28.5t-5.5 -29q-7 -20 -21 -28.5t-26 -8.5q-14 0 -21.5 9.5t-0.5 27.5q6 17 15 29
t20.5 28t25 41t28.5 68q-45 -22 -69.5 -38.5t-40 -30t-27 -23.5t-29.5 -19q-20 -11 -31.5 -5.5t-14.5 16.5q-2 11 5 25t26 23q18 9 31.5 11t31.5 5.5t45 12t71 30.5q-30 21 -51 29t-37 11t-28 4.5t-24 10.5q-14 9 -11.5 23t13.5 25t25.5 16t27.5 -4q12 -9 17 -19l11.5 -23
t20 -29.5t43.5 -37.5q15 43 19 68t3.5 41t-1 28t5.5 29q7 20 21 28.5t26 8.5q14 0 21.5 -9t0.5 -28q-6 -17 -15 -29t-20.5 -28t-25 -41t-28.5 -68q45 22 69.5 38.5t40 30t27 24t29.5 19.5q20 10 31.5 5t14.5 -16q2 -11 -5 -25.5t-26 -23.5q-18 -9 -31.5 -11t-32 -5.5
t-45.5 -12t-71 -30.5z" />
    <glyph glyph-name="plus" unicode="+" horiz-adv-x="484" 
d="M421 286h-136l-50 -138h-41l50 138l-137 1l12 33h138l43 120h41l-43 -120h136z" />
    <glyph glyph-name="comma" unicode="," horiz-adv-x="243" 
d="M22 -124q39 24 51.5 45t11.5 40t-7.5 36t-4.5 34q3 26 18 32.5t25 6.5q7 0 22.5 -8t16.5 -29q0 -29 -13.5 -56t-33.5 -49t-42 -38.5t-37 -24.5q-8 -5 -11 0.5t4 10.5z" />
    <glyph glyph-name="hyphen" unicode="-" horiz-adv-x="452" 
d="M399 252q12 -17 10.5 -33t-17.5 -20q-13 -4 -22.5 0.5t-18.5 13.5t-18.5 20.5t-22.5 20.5q-30 20 -70.5 24.5t-77.5 2.5q-43 -4 -88 -14q-6 -2 -10 -2q-9 0 -9 8q0 7 21.5 13.5t55 11.5t74 6.5t79 -3t69.5 -16.5t45 -33z" />
    <glyph glyph-name="period" unicode="." horiz-adv-x="206" 
d="M78 78q17 0 29 -12t12 -29t-12 -29t-29 -12t-29 12t-12 29t12 29t29 12z" />
    <glyph glyph-name="slash" unicode="/" horiz-adv-x="458" 
d="M650 1208q14 -15 15.5 -55.5t-28.5 -106.5q-20 -44 -53.5 -115.5t-74.5 -159t-87 -186t-91.5 -195t-87 -185.5t-74 -159t-53.5 -114.5t-24 -52.5q-21 -51 -29 -82.5t-3 -54.5q0 -1 -0.5 -3.5t-2 -3.5t-5 0.5t-9.5 8.5q-7 9 -11.5 23t-4.5 34.5t6.5 46.5t21.5 59
q9 19 36 77.5t66 141t86 182.5t95.5 202.5t94 199.5t81.5 174.5t59.5 127t26.5 57.5q22 52 30 84.5t3 56.5q0 2 2.5 6.5t14.5 -8.5z" />
    <glyph glyph-name="zero" unicode="0" horiz-adv-x="566" 
d="M43 181q0 68 28.5 135t73.5 120.5t101 86.5t111 33q15 0 23 -10t8 -22.5t-8 -22.5t-24 -10q-12 0 -18 5.5t-9.5 11.5t-6.5 11.5t-9 5.5q-29 0 -66.5 -29t-71 -77.5t-56.5 -113t-23 -135.5q0 -82 31 -127t90 -45q40 0 76.5 20t68 54.5t56.5 79t42.5 93.5t27 98.5t9.5 94.5
q0 50 -12.5 82t-30 50.5t-35 25.5t-26.5 7q-8 0 -7.5 6t7.5 6q57 0 92 -27t51 -71.5t14 -101t-19 -115.5t-47.5 -115.5t-72 -101t-92.5 -71.5t-109 -27q-44 0 -75.5 16.5t-52 44t-30 63t-9.5 72.5z" />
    <glyph glyph-name="one" unicode="1" horiz-adv-x="423" 
d="M485 614q-21 -14 -37.5 -45t-36.5 -89q-1 -5 -11.5 -35.5t-26 -75t-33.5 -97t-35 -101t-30.5 -87t-19.5 -54.5q-4 -9 -9 -13t-9 -6q-8 -3 -22 -9.5t-17 -7.5t-6 1.5t-1 5.5q35 98 71.5 197.5t75.5 213.5q-25 -48 -69 -96.5t-94.5 -88.5t-101 -67.5t-89.5 -33.5
q-6 -1 -7 3t4 6q69 19 131.5 65t115 103.5t92.5 120t65 114.5q25 53 49 69.5t43 16.5q8 0 10.5 -1.5t2.5 -3t-2 -3.5t-3 -2z" />
    <glyph glyph-name="two" unicode="2" horiz-adv-x="516" 
d="M202 105q34 0 59.5 -16.5t47.5 -36t43.5 -36t48.5 -16.5q24 0 55 16q8 5 10.5 0t-5.5 -10q-30 -16 -53.5 -22t-43.5 -6q-35 0 -60 15.5t-46 34.5t-42 34.5t-48 15.5q-32 0 -61.5 -18t-71.5 -60q-14 -14 -27 -16t-20 3.5t-6 15t14 20.5q56 44 115 85t114 80.5t104 77
t85.5 75.5t57.5 76t21 78q0 53 -31.5 84.5t-100.5 31.5q-45 0 -82 -19.5t-62.5 -49t-39.5 -65t-14 -66.5q0 -18 3 -35.5t10 -32t17 -23t25 -8.5q9 0 13 7t8 16t10.5 16t20.5 7t21 -9t7 -20q0 -13 -9 -20t-21.5 -10.5t-24.5 -4t-18 -0.5q-49 0 -77 24.5t-34.5 62t7.5 80.5
t48.5 80.5t88 62t126.5 24.5q74 0 119.5 -33.5t45.5 -99.5q0 -48 -28 -87.5t-81.5 -84t-131 -100.5t-177.5 -135q38 17 71 17z" />
    <glyph glyph-name="three" unicode="3" horiz-adv-x="512" 
d="M448 84q0 -48 -16.5 -89t-43.5 -75t-63 -60t-74.5 -44t-78 -27.5t-74.5 -9.5q-60 0 -98 15.5t-56.5 39t-20.5 51t9 51t32 39t49 15.5q18 0 26.5 -9t8.5 -19.5t-7.5 -19.5t-20.5 -9q-8 0 -13.5 3.5t-9.5 7.5l-7.5 7.5t-7.5 3.5q-9 0 -17.5 -12t-11.5 -29.5t1.5 -38.5
t20.5 -38.5t45.5 -29.5t77.5 -12q80 0 140.5 35t97.5 86.5t49 109t-4.5 102.5t-63 67.5t-127.5 4.5q-10 -2 -12 3t9 9q3 1 26.5 9t57 22.5t71 36.5t69.5 52t53 67.5t21 84.5q0 33 -10 56.5t-27 38.5t-40 22.5t-50 7.5q-30 0 -66 -12t-67 -37.5t-51.5 -64t-20.5 -90.5
q0 -48 18.5 -68.5t38.5 -20.5q9 0 13 6.5t8.5 14.5t10.5 14.5t18 6.5q13 0 21 -7.5t8 -19.5q0 -4 -2 -10.5t-9.5 -12.5t-22.5 -10.5t-40 -4.5q-23 0 -43 6.5t-35.5 20.5t-24.5 35.5t-9 52.5q0 52 25.5 92.5t65.5 68t87.5 42t92.5 14.5q36 0 66.5 -9.5t53 -27.5t35 -44.5
t12.5 -59.5q0 -48 -24 -87.5t-62.5 -71t-86 -55.5t-94.5 -42q22 5 52 -0.5t57 -22.5t46 -47t19 -74z" />
    <glyph glyph-name="four" unicode="4" horiz-adv-x="475" 
d="M521 614q-20 -14 -36 -45t-33 -89q-1 -5 -14 -47t-32.5 -104.5t-42.5 -137t-45 -143.5q35 -4 58 0.5t37.5 13t22.5 18t13 15.5q7 9 14 10t11.5 -2.5t5 -10t-5.5 -10.5q-42 -32 -82.5 -44.5t-81.5 -14.5q-22 -70 -38.5 -122t-22.5 -68q-3 -9 -8 -13t-9 -6t-10.5 -4.5
t-13.5 -5t-13 -5t-7 -2.5q-2 -1 -5 1.5t-2 5.5q8 26 27.5 85.5t43.5 135.5q-39 4 -77.5 11t-77.5 11t-79 1t-81 -19q-10 -4 -13 4.5t8 13.5q38 20 82.5 53t91.5 74.5t93.5 89t88.5 97.5t77.5 99.5t60.5 95.5q22 40 42 54t40 14q8 0 11.5 -1.5t4 -3t-0.5 -3.5t-2 -2zM262 54
q18 56 36.5 114.5t35.5 113t32 101.5t26 79q-11 -20 -35 -51t-57 -68.5t-72 -77.5t-78.5 -78t-78 -70.5t-69.5 -54.5q34 10 67.5 11.5t66 -1t64 -8t62.5 -10.5z" />
    <glyph glyph-name="five" unicode="5" horiz-adv-x="568" 
d="M108 228q12 17 33.5 35.5t49 33.5t59 25t62.5 10q39 0 71 -14t55 -38.5t35.5 -58t12.5 -71.5q0 -76 -34 -143.5t-86.5 -118.5t-116.5 -81t-124 -30q-57 0 -92 15t-53 37.5t-22 48.5t2.5 48.5t21 37.5t31.5 15q14 0 21.5 -9t7.5 -20q0 -12 -7 -18t-15 -11t-15 -12.5
t-7 -22.5q0 -41 33.5 -67t93.5 -26q75 0 134 37t98.5 93t57.5 121t10.5 121t-41.5 93t-98 37q-52 0 -101 -27t-88 -77q-5 -7 -11 -10t-10 -3t-5.5 4.5t1.5 12.5q4 10 15 41.5t26 74.5t31.5 91.5t31 90.5t24.5 72.5t12 37.5q5 18 13 23.5t18 1.5q45 -18 81.5 -30t74 -15
t80 4.5t99.5 27.5q13 5 15 -1t-6 -12q-59 -43 -115 -54t-104 -6t-85 20t-56 25q-26 -82 -50 -152q-10 -30 -20.5 -61t-19.5 -59t-17 -50.5t-12 -36.5z" />
    <glyph glyph-name="six" unicode="6" horiz-adv-x="557" 
d="M707 790q10 0 15.5 -6t5.5 -13.5t-5 -13.5t-17 -6q-19 0 -37.5 8t-47.5 8q-70 0 -136 -27t-123.5 -73.5t-106 -107t-83 -127.5t-53.5 -136t-19 -132q0 -35 8 -65t23.5 -52t38.5 -34.5t54 -12.5q57 0 104.5 36t81 90.5t50 117.5t12.5 117.5t-32 90.5t-83 36
q-23 0 -46 -9.5t-42 -24.5t-31 -34t-12 -38q0 -12 7 -20t7 -27q0 -13 -9 -20.5t-19.5 -8t-19 6.5t-8.5 22q0 27 15 57.5t40.5 57t60.5 43.5t76 17q71 0 107.5 -39t43.5 -97.5t-13.5 -127t-62.5 -127t-103.5 -97.5t-137.5 -39q-68 0 -107.5 34.5t-53 91.5t-1.5 129.5t47 148
t92.5 148t135 129.5t174 91.5t210.5 34.5z" />
    <glyph glyph-name="seven" unicode="7" horiz-adv-x="511" 
d="M-13 -206q-9 -14 -20.5 -17t-20 2t-11.5 16t6 24q4 6 23 33.5t49 70t68.5 96t82 111.5t90 117t92 111.5t88 96t77.5 69.5q-42 -21 -76 -21q-30 0 -55.5 10.5t-50 23t-49.5 23t-55 10.5q-24 0 -51.5 -9.5t-61.5 -33.5q-8 -6 -14 -1.5t2 11.5q52 46 93.5 64.5t75.5 18.5
t62.5 -12t54 -26t49 -26t49.5 -12t53.5 16.5t61.5 59.5q11 13 24 16.5t22 -1t9.5 -16t-14.5 -27.5q-11 -12 -34.5 -26.5t-56 -38t-72.5 -57t-82 -82.5q-105 -122 -174.5 -210.5t-112.5 -150.5t-64.5 -101t-31.5 -64.5t-14 -40.5t-11 -27z" />
    <glyph glyph-name="eight" unicode="8" horiz-adv-x="534" 
d="M574 624q0 -42 -20 -74t-52.5 -58t-72 -46.5t-78.5 -38.5q25 -26 48.5 -51.5t41.5 -51.5t28.5 -53.5t10.5 -56.5q0 -55 -23 -96t-59 -68t-79.5 -40.5t-84.5 -13.5t-75.5 14t-59.5 37.5t-39 54.5t-14 66q0 47 22 84t57 66t78 52t85 43q-44 46 -72.5 91t-28.5 103
q0 42 19 76t50.5 58.5t72 37.5t82.5 13q30 0 59 -9t52.5 -27t37.5 -46t14 -66zM299 382q-36 -17 -72.5 -37.5t-65.5 -48.5t-47.5 -66.5t-18.5 -91.5q0 -31 9 -58t27 -46.5t45.5 -31t63.5 -11.5q39 0 72.5 14t58.5 38t39.5 57t14.5 72q0 30 -9.5 56t-26 51t-40 50t-50.5 53z
M400 758q-31 0 -60 -11.5t-51 -33t-35.5 -52t-13.5 -68.5q0 -45 28 -87.5t72 -87.5q33 16 66.5 35.5t61 43.5t44.5 54t17 66q0 61 -33 101t-96 40z" />
    <glyph glyph-name="nine" unicode="9" horiz-adv-x="572" 
d="M-5 -208q-16 0 -40.5 3t-47.5 8.5t-39.5 14t-16.5 19.5q0 8 5.5 13t15.5 5q13 0 18.5 -7.5t16 -16.5t31.5 -16.5t66 -7.5q68 0 133.5 34.5t122.5 90.5t103.5 128t78.5 146.5t46.5 146.5t7 128t-39.5 90.5t-93 34.5q-56 0 -102.5 -36t-78.5 -90t-48 -116.5t-11.5 -116.5
t31.5 -90t80 -36q28 0 52 10t41.5 25t27.5 33t10 33q0 16 -7 24t-7 24q0 14 8.5 21.5t19 8t19.5 -7t9 -22.5q0 -27 -15 -57t-41 -56t-60 -43t-71 -17q-55 0 -90 22.5t-51.5 59.5t-16 84t15 96.5t42.5 96.5t66 84t86 59.5t102 22.5q80 0 123.5 -35.5t56.5 -94t-1.5 -133
t-50.5 -152.5t-90.5 -152.5t-120.5 -133t-141.5 -94t-154.5 -35.5z" />
    <glyph glyph-name="colon" unicode=":" horiz-adv-x="266" 
d="M138 372q17 0 29 -12t12 -29t-12 -29t-29 -12t-29 12t-12 29t12 29t29 12zM78 78q17 0 29 -12t12 -29t-12 -29t-29 -12t-29 12t-12 29t12 29t29 12z" />
    <glyph glyph-name="semicolon" unicode=";" horiz-adv-x="315" 
d="M187 372q17 0 29 -12t12 -29t-12 -29t-29 -12t-29 12t-12 29t12 29t29 12zM116 70q3 0 9.5 -2t13 -6t11 -11.5t4.5 -17.5q0 -29 -13.5 -56t-33 -49t-41.5 -38.5t-37 -24.5q-9 -5 -11.5 0.5t4.5 10.5q39 24 51 45t11.5 40t-7 36t-4.5 34q3 26 17.5 32.5t25.5 6.5z" />
    <glyph glyph-name="less" unicode="&#x3c;" horiz-adv-x="516" 
d="M130 306q39 -21 85 -50.5t84.5 -66t62 -79.5t17.5 -91q-1 -7 -8.5 -11t-16.5 -5.5t-16 -1t-7 1.5q6 33 -4.5 63.5t-31 58.5t-49.5 53.5t-60 47t-62.5 39t-56.5 30.5q-8 4 4 8.5t32 9.5q43 11 97 24.5t109 34.5t107 52.5t93 78.5h42q-23 -30 -64.5 -58.5t-96 -54t-121 -47
t-139.5 -37.5z" />
    <glyph glyph-name="equal" unicode="=" horiz-adv-x="653" 
d="M158 385l12 34h412l-13 -34h-411zM99 167l12 34h412l-13 -34h-411z" />
    <glyph glyph-name="greater" unicode="&#x3e;" horiz-adv-x="521" 
d="M99 17q-3 -6 -11 -9.5t-17 -5t-16 -1t-6 2.5q28 54 71.5 98t96 80.5t110 65.5t113.5 52q-32 7 -71.5 24t-73 42.5t-54 59.5t-14.5 77h35h13q-2 -41 20 -71t55.5 -52t72.5 -37t72 -25q7 -2 -14.5 -11.5t-59 -26.5t-85.5 -42t-94 -57.5t-85 -73.5t-58 -90z" />
    <glyph glyph-name="question" unicode="?" horiz-adv-x="702" 
d="M610 1184q63 1 122 -17t103.5 -54t69.5 -88.5t20 -119.5q-7 -84 -44 -151.5t-93.5 -121.5t-125.5 -96.5t-139.5 -77.5t-136.5 -64.5t-115 -57.5q-27 -15 -46 -32t-27 -31t-2 -24.5t29 -11.5q16 -2 9 -9t-23.5 -13t-36 -6t-28.5 14q-19 27 0 51.5t63 50.5t107 54.5
t132.5 63t139.5 76.5t128 94.5t98 117t50 144.5q9 72 -10.5 126.5t-57 91t-88.5 54.5t-105 17q-73 -2 -133.5 -26.5t-106.5 -67.5t-77 -102.5t-45 -131.5q-12 -63 0 -110t37.5 -77.5t60 -45t66 -12t55.5 22t30 56.5q3 22 18 32t29 8.5t22.5 -14t-1.5 -35.5q-18 -41 -56 -64
t-84 -27.5t-92.5 10.5t-81.5 50.5t-51.5 92.5t-1.5 137q13 69 51 127.5t94 101.5t126.5 68t147.5 27zM146 73q17 0 29.5 -12t12.5 -29t-12.5 -29t-29.5 -12t-29 12t-12 29t12 29t29 12z" />
    <glyph glyph-name="at" unicode="@" horiz-adv-x="1119" 
d="M660 707q118 1 200 -34t132 -92.5t71 -131t18 -149.5q-3 -79 -32 -153t-74.5 -130t-102 -87.5t-114.5 -24.5q-40 5 -65 21.5t-38.5 40t-17 52t-1.5 55.5t8 51t12 40h-2q-9 -23 -29.5 -53t-47.5 -57t-59.5 -45.5t-65.5 -16.5q-34 2 -56.5 14.5t-36 31.5t-19 42t-5.5 46
q0 39 13 82.5t35.5 85.5t52 81t62 68.5t66.5 48t66 19.5q10 0 27 -3.5t33 -17t27.5 -38.5t11.5 -68q12 34 25 56t26 35t26.5 18.5t27.5 6.5q8 0 11.5 -1t4 -3t-0.5 -4t-2 -2q-16 -11 -29 -30.5t-26 -52.5t-28.5 -82t-37.5 -119q-5 -16 -12.5 -41t-13 -53t-6.5 -56.5
t6.5 -52.5t26 -40.5t51.5 -20.5q57 -6 104 22t80.5 79t52.5 118.5t21 139.5q1 72 -18 141t-64 123t-117 87.5t-175 34.5q-82 0 -153 -23.5t-130 -63.5t-106 -92.5t-81.5 -110t-56.5 -116t-30 -110.5q-16 -98 10.5 -176t80.5 -134t129 -89.5t156.5 -42.5t162 6.5t146.5 57.5
q39 25 57.5 40t26.5 24.5t10.5 16.5t8.5 15q7 10 14.5 11t12 -4t4 -13.5t-10.5 -18.5q-21 -20 -56.5 -49t-85 -55.5t-112.5 -43.5t-139 -13q-120 6 -207 38t-144.5 81.5t-87 114t-34.5 136t12.5 146t55 145t93 132.5t125 108.5t152.5 74t175 27.5zM473 31q30 -5 61 14.5
t58.5 53t50.5 76t38 84.5q24 67 27 111.5t-6 71.5t-26.5 38.5t-34.5 11.5q-38 0 -78.5 -32t-75.5 -80.5t-59 -106t-30 -109t10.5 -88.5t64.5 -45z" />
    <glyph glyph-name="A" unicode="A" horiz-adv-x="1556" 
d="M2081 1179q44 0 67.5 -13t17.5 -30q-5 -13 -18.5 -14t-25.5 4q-43 21 -89.5 28.5t-100 -16.5t-113.5 -88.5t-130 -187.5q-17 -30 -39 -79t-46.5 -108t-50 -124t-49.5 -128t-44.5 -119t-35.5 -97q-9 -24 -19 -54t-14 -56t2 -45t31 -20q15 -1 29 6t26 18.5t22 26t18 27.5
q2 4 5.5 2.5t1.5 -6.5q-8 -20 -21 -41t-31 -37.5t-39.5 -26.5t-44.5 -8q-25 1 -38.5 12.5t-18.5 28t-3.5 36.5t6 38.5t10 33.5t8.5 23q16 44 23 77.5t-4 59.5q-45 109 -114 188q-57 -75 -112 -146t-111 -134t-114 -115.5t-120.5 -90.5t-131 -59t-146.5 -21q-95 0 -171 25.5
t-131.5 69.5t-90.5 103t-49 124.5t-6.5 134.5t37.5 134.5t82 123t127 99.5q13 7 22.5 5t13 -8.5t1 -14.5t-12.5 -13q-9 -5 -17 -5t-19 -3t-27 -13t-40 -34q-50 -49 -79.5 -121t-35 -151t14 -157t67.5 -140.5t125.5 -101.5t187.5 -39q109 0 205.5 48.5t185 128t170 181
t159.5 207.5q-46 48 -100.5 84.5t-115 61t-124.5 37t-128 12.5q-87 0 -155 -25t-117 -66t-78.5 -93.5t-39.5 -107.5t-0.5 -107.5t39 -93.5t79 -66t119.5 -25q23 0 40 4.5t28.5 11.5t18.5 14.5t10 12.5q6 10 15 11.5t16 -3t9 -13t-8 -18.5q-14 -14 -46.5 -24.5t-83.5 -10.5
q-76 0 -129.5 27t-85 71t-41 100.5t2.5 115.5t44.5 115.5t86 100.5t126.5 71t166 27q86 0 158 -15.5t131 -42t106.5 -60t83.5 -69.5q36 51 82 108t97.5 114.5t107 112.5t112 103t112.5 86.5t107 62.5q-47 -15 -110.5 -16t-134.5 4t-146 11.5t-144 6.5q-86 0 -143 -28.5
t-88 -71t-37 -92t11.5 -92t57 -71t99.5 -28.5q46 0 75.5 13t46 32.5t23 43t7.5 43.5q1 14 8.5 21t16.5 6.5t15.5 -7.5t4.5 -21q-2 -13 -13 -38t-34 -49.5t-59.5 -42.5t-89.5 -18q-69 0 -113 31t-63 78t-12 101t41 101t95.5 78t151.5 31q44 0 94 -4t103 -8.5t108.5 -8.5
t109.5 -4q49 0 86.5 7.5t71.5 16t70 16t84 7.5zM1416 341q45 126 89 233t90 197t97 163.5t110 132.5q-60 -40 -127 -101t-134.5 -133.5t-133 -151.5t-120.5 -154q53 -56 84 -107.5t45 -78.5z" />
    <glyph glyph-name="B" unicode="B" horiz-adv-x="1522" 
d="M1517 874q-1 -47 -15.5 -92t-41 -86t-62 -76t-78.5 -62q31 -21 58.5 -50t47 -65.5t30.5 -80.5t10 -95q-2 -91 -38.5 -161t-93.5 -118t-127 -73t-139 -25q-41 0 -80 9t-68.5 27.5t-46 47t-12.5 67.5q3 34 19.5 55.5t39 33.5t46.5 16.5t43 4.5q11 0 16 -6.5t4.5 -14
t-6 -13.5t-14.5 -6q-7 0 -17.5 6t-21.5 6q-22 0 -38 -16t-23 -39.5t-3 -51t22.5 -51t53.5 -39.5t90 -16q87 0 152 35.5t107.5 92.5t61.5 128t15 141.5t-32 133.5t-79 104q-46 -25 -97 -39t-105 -14q-47 0 -68 20t-17.5 43.5t33 43.5t84.5 20q42 0 85 -11.5t84 -34.5
q35 24 64.5 55.5t51 69.5t34 80.5t13.5 89.5q1 71 -20.5 121.5t-59 83.5t-87.5 51t-106 25q-16 2 -21 -2.5t-9 -15.5t-15.5 -44.5t-28 -82.5t-36.5 -109.5t-42 -125l-44 -129t-42 -121t-36 -102t-26 -71.5q-16 -42 -39 -89.5t-54.5 -95t-70.5 -91.5t-86.5 -77.5
t-104.5 -53.5t-123 -20q-125 0 -207.5 39.5t-127 102t-53 138.5t14.5 150t76 137t131 98q8 67 40.5 137.5t86.5 136.5t129 124t167.5 101.5t201.5 69t232 25.5q105 0 183.5 -24t131 -65.5t78.5 -97t25 -117.5zM1096 1133q3 8 1 14t-13 7q-80 0 -164 -14t-165.5 -43.5
t-156.5 -74.5t-136 -106t-104.5 -139t-62.5 -174q52 15 112 15q82 0 130 -24t68 -59.5t15.5 -77.5t-27.5 -77.5t-61.5 -59.5t-85.5 -24q-52 0 -90.5 22.5t-64 59.5t-38 83.5t-12.5 93.5q-63 -37 -104.5 -97t-58 -128.5t-6.5 -138.5t50 -126.5t111.5 -92t178.5 -35.5
q45 0 101 18.5t113.5 65.5t112.5 128.5t98 207.5t80 235.5t69.5 205.5t59.5 179t50 156zM293 580q-3 -45 4.5 -91t26.5 -83t50 -60t74 -23q42 0 75 20.5t52.5 51t22.5 66.5t-15.5 66.5t-61.5 51t-115 20.5q-31 0 -59 -5t-54 -14zM1107 511q45 0 87.5 13t81.5 36
q-30 20 -66.5 30.5t-81.5 10.5q-38 0 -59 -14t-24.5 -31t11.5 -31t51 -14z" />
    <glyph glyph-name="C" unicode="C" horiz-adv-x="930" 
d="M1035 1168q57 0 90 -29.5t41 -77.5t-9 -109.5t-60.5 -125.5t-113.5 -125t-167.5 -108t-223.5 -75t-280 -26q-20 -48 -29 -106.5t-6 -117.5t19 -114.5t46 -98t74.5 -68.5t105.5 -26q57 0 102.5 13t81 33t62 45t45.5 49t31.5 43.5t20.5 30.5t15.5 6t2.5 -13
q-15 -24 -42 -64t-71 -78t-105.5 -65.5t-145.5 -27.5q-74 0 -128 25.5t-90.5 69t-55.5 100.5t-23.5 119.5t5 127t30.5 122.5q-71 9 -134.5 35.5t-110.5 67t-74.5 94t-27.5 116.5q0 57 21 117t61.5 117.5t100.5 108t138.5 89t175 60.5t210.5 22q24 0 32.5 -10.5t5.5 -21
t-15.5 -16.5t-30.5 2q-5 2 -11.5 5t-18 5.5t-28 4.5t-40.5 2q-52 0 -112.5 -13.5t-120.5 -40.5t-116 -67t-99 -94t-68.5 -121.5t-25.5 -148.5q0 -54 22.5 -102.5t62 -87t94 -64.5t118.5 -36q34 80 85.5 159t114.5 151t135 134t146 107t147.5 71t140.5 26zM986 1131
q-50 0 -110.5 -23t-125 -64.5t-128.5 -99t-121 -126t-104 -145.5t-77 -158q143 -1 261 24.5t211 68.5t160.5 98.5t109.5 113.5t58 114t7 99.5t-44.5 70.5t-96.5 27z" />
    <glyph glyph-name="D" unicode="D" horiz-adv-x="1474" 
d="M837 1189q113 0 205.5 -25t164.5 -67t125 -98.5t87.5 -119t51.5 -128t17 -126.5q0 -91 -21.5 -178.5t-61.5 -166.5t-96 -145.5t-125.5 -115t-150 -76t-168.5 -27.5q-43 0 -84 11t-81 29t-78 41t-75 46q-49 -53 -110 -87t-136 -34q-62 0 -102.5 18t-60 45t-19 58t21 58
t59.5 45t96 18q64 0 123.5 -27t118.5 -63q40 56 75 142q-116 -12 -209.5 17.5t-159.5 87t-101.5 136.5t-35.5 167q0 67 23 135t67.5 131t108 117.5t145 95t178.5 63.5t208 23zM158 622q0 -51 12 -102t37 -97.5t62.5 -85.5t89 -65t116.5 -37.5t144 -2.5q9 21 24 64t33.5 99.5
t40 124.5t43 139t43 142.5t40.5 136.5t34 119.5t25 91.5q2 8 -1.5 14t-17.5 7q-115 5 -213 -14.5t-179 -58t-143 -92t-104 -116t-64 -131t-22 -136.5zM300 -62q63 0 118.5 25.5t106.5 92.5q-60 38 -117 66t-112 28q-44 0 -73.5 -15.5t-44.5 -39.5t-15.5 -51t14.5 -51
t45.5 -39.5t77.5 -15.5zM865 -67q82 0 155 27.5t135.5 75.5t112.5 113.5t85 142t54 161t19 169.5q0 103 -30.5 192.5t-88 159.5t-140 117.5t-185.5 66.5q-11 2 -16 -5t-8 -17q-4 -11 -16 -51l-30 -100t-40 -134t-45.5 -151t-47 -152t-44.5 -138t-37 -107.5t-25 -60.5
q53 13 97 35.5t75.5 49t48.5 55t17 53.5q0 12 7.5 18.5t16 7t16 -5.5t7.5 -19q0 -15 -20.5 -44.5t-58.5 -61t-92 -61t-122 -44.5q-21 -43 -46.5 -85.5t-57.5 -80.5q36 -23 73 -45.5t74.5 -40.5t76.5 -29t80 -11z" />
    <glyph glyph-name="E" unicode="E" horiz-adv-x="797" 
d="M848 1171q72 0 105 -29.5t30.5 -75t-40 -99t-107 -102t-170 -84.5t-229.5 -45q10 -29 31.5 -48.5t48 -30t52.5 -12.5t45 3q9 2 12.5 -0.5t-1.5 -8.5q-6 -6 -18 -9.5t-25 -5.5q-112 -12 -195.5 -46.5t-141 -82.5t-90 -105.5t-43 -116.5t0.5 -114t40.5 -98.5t76 -70.5
t108.5 -29q-11 61 -4 123t27 119.5t52.5 108t71.5 88t84 59t91 21.5q43 0 68.5 -22t34.5 -58t3 -83t-27 -96t-56 -96.5t-82.5 -86.5t-107.5 -64.5t-131 -30.5q15 -60 52 -115t103 -102q9 -6 3 -14t-15 -2q-69 47 -108 106.5t-55 125.5q-71 -2 -125.5 19t-92 57t-57 83.5
t-19.5 98.5q0 73 28.5 133t72.5 107.5t96.5 82t99.5 57.5t82.5 34t46.5 11q-37 8 -63.5 37t-36.5 71q-61 -1 -122.5 10t-118 32t-105 50.5t-84.5 66.5t-56.5 80t-20.5 90q0 79 40.5 135t103 91.5t136 52t139.5 16.5q60 0 93 -3t52 -11q13 -5 16.5 -14t0.5 -17t-12.5 -12
t-22.5 1q-10 4 -15.5 11t-16.5 14t-32.5 12t-63.5 5q-77 0 -144.5 -18.5t-117.5 -54t-79 -86.5t-29 -116q0 -74 39.5 -133t104 -101t146 -64t166.5 -22q-6 46 13 95.5t55.5 96.5t86 89t104.5 73.5t111.5 50t106.5 18.5zM644 445q-36 0 -74.5 -19.5t-74 -54t-65.5 -81.5
t-50 -100.5t-26.5 -112t4.5 -116.5q83 2 151 39t117 90.5t77.5 115.5t32.5 115.5t-18 88.5t-74 35zM434 750q117 8 208 41t154.5 77t98 93.5t39 91t-22.5 68.5t-86 27q-34 0 -78.5 -13.5t-90.5 -39t-89 -61.5t-75 -80t-48.5 -95.5t-9.5 -108.5z" />
    <glyph glyph-name="F" unicode="F" horiz-adv-x="1289" 
d="M1591 1171q46 0 74.5 -12.5t41 -31t10 -40.5t-19.5 -40.5t-47.5 -31t-73.5 -12.5q-67 0 -135 17t-142 42q-55 -43 -97.5 -101.5t-77.5 -126.5t-64.5 -143.5t-57.5 -152.5q60 17 123.5 34t135.5 17q47 0 67 -17.5t22.5 -41.5t-7.5 -49t-22 -40q-5 -6 -18 -16.5t-32 -10.5
q-6 0 -9.5 4t0.5 10q2 3 10.5 14t16 25.5t11 30t-3.5 29t-27.5 22t-60.5 8.5q-58 0 -110 -13t-103 -27q-29 -79 -59 -157t-66 -149t-80 -131t-100.5 -104t-128.5 -69t-163 -25q-95 0 -166 25.5t-118 68t-70 98t-23 114.5q0 66 27.5 131t78.5 117.5t124.5 85t165.5 32.5
q13 0 18.5 -7t4.5 -15t-9 -13t-22 -2q-9 2 -14.5 4.5t-11 4.5t-13.5 3.5t-21 1.5q-48 0 -97.5 -27.5t-89 -74t-64.5 -107t-25 -126.5q0 -56 19 -109.5t58.5 -95t101 -66.5t146.5 -25q79 0 142 23.5t113.5 65t90.5 98t73 123.5t62 141.5t57 151.5q-24 -5 -49 -8.5t-51 -3.5
q-56 0 -91 20t-54 49t-24.5 61.5t-0.5 56.5q2 12 10.5 11.5t7.5 -11.5q-1 -8 -0.5 -24t4.5 -34.5t13.5 -38t26.5 -36t43.5 -26.5t65.5 -10q27 0 53.5 3.5t52.5 9.5q30 80 61.5 159t70 150.5t86 133.5t108.5 107q-59 20 -122 41t-133.5 38t-148.5 28t-165 11
q-107 0 -193 -22.5t-151.5 -60t-110.5 -85.5t-69.5 -99.5t-28.5 -102.5t12.5 -93.5t53.5 -72.5t94 -40q8 -1 8.5 -5t-3.5 -5q-36 -11 -74.5 -1.5t-70 35.5t-51.5 65.5t-20 89.5q0 69 38.5 143t115 136t189.5 102t262 40q86 0 165.5 -12t152.5 -31t140 -42t129 -44
q60 41 134.5 63.5t168.5 22.5zM1576 1017q48 0 74 22t28.5 48t-19.5 48t-69 22q-85 0 -152 -21.5t-121 -60.5q72 -25 136.5 -41.5t122.5 -16.5z" />
    <glyph glyph-name="G" unicode="G" horiz-adv-x="941" 
d="M966 502q17 0 16.5 -4t-3.5 -6q-19 -15 -35.5 -40.5t-33.5 -75.5q-4 -10 -16 -45.5t-29 -84.5t-36 -105.5t-37.5 -110t-34 -98t-24.5 -67.5q-45 -123 -106.5 -207t-130 -135t-139.5 -73t-134 -22q-57 0 -106.5 13.5t-86.5 38.5t-58 60t-21 78q0 52 20.5 86.5t55.5 58
t81 38t96.5 25t102.5 19.5t99 21.5t85.5 31.5t62.5 49q4 5 7.5 0t-1.5 -13q-18 -30 -51 -48.5t-76 -31t-91.5 -21t-96.5 -18t-92.5 -23t-78.5 -35t-54 -54.5t-20 -82q0 -34 14 -66t42 -56.5t69.5 -39t97.5 -14.5q61 0 123.5 21.5t120.5 67.5t108.5 119t88.5 176
q34 92 59 162.5t42 118.5q19 56 32 97h-4q-16 -24 -49 -64.5t-79.5 -80t-104 -68.5t-122.5 -29q-63 0 -114 24.5t-86.5 69.5t-55 109t-19.5 143q0 56 13 115t36 121q-62 36 -93.5 92.5t-33 121.5t26 132t83 123.5t138 97.5t191.5 53q14 1 22 -4.5t9.5 -13.5t-4.5 -16
t-21 -10q-14 -2 -24.5 0t-24 3.5t-32.5 0.5t-49 -8q-73 -19 -129 -58.5t-93.5 -90t-55.5 -108.5t-13.5 -113t31.5 -103t79 -80q31 76 75.5 152t99 145t116.5 128.5t127.5 103t132 68.5t130.5 25q61 0 91.5 -29.5t35 -78t-15 -110.5t-59 -126.5t-96 -126t-126 -110
t-150.5 -78t-168 -29.5q-88 0 -152 24q-19 -56 -29 -110.5t-10 -105.5q0 -68 13.5 -126t41 -100.5t68.5 -67t97 -24.5q59 0 120 28t117 80t102.5 125t76.5 162q24 68 52 92.5t57 24.5zM893 1159q-57 0 -118 -24.5t-121.5 -67.5t-118.5 -101.5t-108.5 -127t-92 -144
t-68.5 -151.5q61 -24 146 -24q82 0 158.5 27.5t142.5 72.5t120 102.5t92 117.5t58 117.5t18 102.5t-28 72.5t-80 27.5z" />
    <glyph glyph-name="H" unicode="H" horiz-adv-x="1632" 
d="M2152 1179q48 0 73 -12.5t18 -29.5q-5 -13 -18 -14t-25 4q-43 19 -91 25t-102 -18.5t-114 -88t-127 -183.5q-17 -30 -39 -79t-46.5 -108t-50 -124t-49.5 -128t-44.5 -119t-35.5 -97q-9 -24 -19 -54t-14 -56t2.5 -45t31.5 -20q15 -1 28.5 6t25.5 18.5t22 26t18 27.5
q2 4 5.5 2.5t1.5 -6.5q-7 -20 -20.5 -41t-31 -37.5t-39 -26.5t-45.5 -8q-25 1 -38.5 12.5t-18.5 28t-3 36t6 38.5t9.5 34t8.5 23q10 30 16 51.5t8 37t0.5 27.5t-5.5 23q-45 114 -121 195.5t-170 130.5q-24 -80 -50 -163.5t-58 -162t-73.5 -147.5t-98 -121t-130 -82
t-169.5 -30q-95 0 -171 25.5t-131.5 69.5t-90.5 103t-49 124.5t-6.5 134.5t37 134.5t81.5 123t127 99.5q13 7 23 5.5t13.5 -8t1 -15t-12.5 -13.5q-9 -5 -17 -5t-19.5 -3t-27 -12.5t-39.5 -33.5q-38 -37 -64 -87.5t-39 -107.5t-13 -117t15 -117.5t45.5 -108.5t77.5 -89.5
t111 -61t147 -22.5q89 0 157 30.5t120.5 82.5t91 121.5t69 148t55.5 162t49 162.5q-124 55 -252 55q-88 0 -157.5 -25t-120 -66.5t-81.5 -94t-42.5 -107t-3 -107t37 -94t77.5 -66.5t119 -25q23 0 40 4.5t28.5 11.5t18.5 14.5t10 12.5q6 10 15 11.5t16 -3t9 -13t-8 -18.5
q-13 -14 -46 -24.5t-84 -10.5q-76 0 -129.5 27t-85 71.5t-41 101t2.5 115t45 115t86 101t126.5 71.5t166.5 27q78 0 143.5 -12.5t121.5 -35.5q19 61 39.5 116.5t45 101t54 79t66.5 51.5q-46 -3 -90.5 12t-88.5 39.5t-88 53.5t-90 54.5t-95 42.5t-101 17q-60 0 -102.5 -26
t-66.5 -65.5t-27 -85.5t16.5 -85.5t63 -65.5t114.5 -26q36 0 56.5 7.5t31 17.5t15 20.5l7.5 17.5q4 9 12.5 10.5t15 -2.5t8.5 -12.5t-6 -19.5q-17 -25 -54 -41.5t-88 -16.5q-78 0 -126.5 29t-70.5 72.5t-18 94.5t30 94.5t73.5 72.5t113.5 29q63 0 117.5 -20t104.5 -48.5
t97.5 -59.5t96.5 -54t101.5 -32t113.5 8q16 4 18.5 -6.5t-9.5 -14.5q-48 -13 -85.5 -47t-67 -84t-53.5 -112.5t-46 -131.5q76 -36 131 -82.5t93 -93t61.5 -87.5t36.5 -65q31 74 65.5 165t76.5 184t92 181t113 156.5t140 110t172 41.5z" />
    <glyph glyph-name="I" unicode="I" horiz-adv-x="1032" 
d="M467 -48q-127 0 -218.5 42.5t-146.5 111.5t-73 157t3 178t80.5 174.5t160.5 147.5q18 11 29.5 8t15 -11.5t-0.5 -18t-17 -11.5q-9 -1 -21 -2t-27 -7.5t-34.5 -22.5t-44.5 -47q-46 -59 -70.5 -132t-26.5 -148t20.5 -146.5t70 -127t121.5 -89.5t176 -34q107 0 183.5 39.5
t131 105t91.5 151.5t66.5 179.5t55.5 188t57.5 177t73.5 147t104 98.5q-72 -14 -146 -7t-144 20.5t-133.5 27t-113.5 13.5q-78 0 -133 -34.5t-85.5 -86t-35 -111.5t19.5 -111.5t77 -86t137 -34.5q44 0 71.5 9t43 20.5t22.5 23t10 16.5q6 10 14.5 11.5t15 -2.5t8 -12.5
t-7.5 -19.5q-24 -32 -72.5 -48.5t-105.5 -16.5q-93 0 -151.5 37t-84 93t-20.5 121t39 121t94 93t145 37q47 0 89.5 -7t85.5 -16.5t88.5 -18.5t98 -13.5t114 -2t136.5 16.5q8 2 13 -0.5t6 -6t-2 -7.5t-9 -6q-52 -14 -90.5 -54t-69 -98t-55.5 -130.5t-49 -151.5t-50 -160.5
t-58.5 -158t-74.5 -143.5t-98.5 -116.5t-130 -78.5t-168.5 -29z" />
    <glyph glyph-name="J" unicode="J" horiz-adv-x="1109" 
d="M1410 1154q-59 -63 -106.5 -148.5t-88.5 -185t-77.5 -209t-73 -221t-75 -221t-84.5 -208.5t-101 -183.5t-124 -146t-153.5 -96.5t-190.5 -35q-95 0 -163 33t-109 87.5t-54 123.5t3 141.5t61 141.5t121 123.5t182.5 87.5t244.5 33q42 0 91 -5.5t98 -16.5q21 -5 27.5 -15.5
t2 -20t-17.5 -13.5t-30 4q-7 3 -17 11.5t-28.5 16.5t-49 14.5t-79.5 6.5q-129 0 -227 -31t-166.5 -82t-108 -116t-52.5 -133t0.5 -133t50.5 -116t97 -82t142 -31q115 0 201 43t151.5 118.5t115 178t92 220.5t82 246.5t85.5 256.5t102.5 250t132.5 227q-68 -48 -142 -79
t-145.5 -55t-136 -46t-113 -51.5t-77.5 -72t-29 -106.5q0 -32 11.5 -59.5t33 -47.5t52.5 -31.5t70 -11.5t65 11.5t42.5 26.5t25 30.5t13.5 23.5q7 12 16 15t16.5 -0.5t10.5 -12t-3 -18.5q-13 -22 -35 -39.5t-49 -30t-58 -19t-61 -6.5q-43 0 -78.5 12.5t-61 35t-39.5 53.5
t-14 69q0 74 38.5 121t101 79t141.5 56t159.5 52.5t155 68t128.5 102.5q13 16 27 24t23 9t11.5 -4t-6.5 -14z" />
    <glyph glyph-name="K" unicode="K" horiz-adv-x="1375" 
d="M1188 1013q-47 -11 -84 -62t-69.5 -127.5t-63.5 -170t-65.5 -189.5t-75 -187.5t-93.5 -162t-121 -113.5t-156 -43q-78 0 -124.5 24t-65 59t-11.5 75t35 72.5t75.5 50.5t109.5 10q14 -2 18 -9t1.5 -14t-10.5 -11.5t-18 0.5q-9 4 -17.5 11t-29.5 7q-33 0 -58.5 -18.5
t-40 -47t-16 -61t15 -61t52 -47t94.5 -18.5q72 0 124.5 30.5t92 83t69.5 123t57 150.5t53.5 165.5t59.5 168t75.5 158.5t100.5 136q-66 -13 -126 -8.5t-123 15t-134 21t-160 10.5q-76 0 -138 -34t-106 -89t-69.5 -124t-27.5 -138q-2 -64 18 -123.5t60.5 -106t100 -74.5
t136.5 -28q64 0 103.5 13.5t62 32.5t33.5 39.5t19 34.5q7 12 17.5 14.5t18 -1.5t10 -13t-5.5 -20q-23 -30 -52 -52t-63 -36.5t-70 -21t-72 -6.5q-83 0 -152.5 29.5t-120 78t-77.5 111t-25 128.5q2 49 17 98t41 94t62 83.5t79.5 67t94.5 44.5t106 16q70 0 125.5 -6t103 -14
t90.5 -15t88.5 -8.5t97 4.5t116.5 25q9 3 14 0t6 -7.5t-2 -9.5t-10 -6zM2082 -549q4 7 10 8.5t11 -1.5t7 -9.5t-3 -15.5q-11 -19 -49.5 -33t-82.5 -14q-106 0 -195.5 32.5t-164.5 87.5t-136.5 127.5t-113 153t-93.5 164.5t-77 161t-64.5 142.5t-55.5 109.5q-44 -14 -82 -14
q-34 0 -50.5 16t-15.5 34.5t19.5 34.5t54.5 16q24 0 48 -15.5t47 -43.5q56 26 113 74t114 109.5t114 131.5t113.5 139t113 132.5t112 112t110.5 77.5t109 29q16 0 23.5 -8.5t7 -18t-9.5 -18t-25 -8.5q-7 0 -15 3.5t-18 7t-22 4.5t-27 -3q-53 -17 -112.5 -72t-124 -130.5
t-133 -162.5t-139.5 -168t-144.5 -147t-147.5 -99q34 -45 70 -110.5t75.5 -142.5t83 -160.5t93.5 -164t107.5 -152.5t125 -127t145 -87t167.5 -32q28 0 46.5 5.5t30.5 13t19 16.5t11 15zM993 367q36 0 72 12q-17 27 -33 42t-33 15q-26 0 -39 -11t-13 -23.5t11.5 -23.5
t34.5 -11z" />
    <glyph glyph-name="L" unicode="L" horiz-adv-x="892" 
d="M1664 -125q6 13 15 16.5t17 0.5t11.5 -11t-0.5 -17q-42 -78 -98 -137t-124.5 -98t-147 -58.5t-164.5 -19.5q-103 0 -199.5 35t-185.5 87.5t-171.5 113.5t-156.5 112q-54 -45 -119 -69.5t-148 -24.5q-59 0 -99 16.5t-60 41.5t-19.5 54t21.5 54t62.5 41.5t105.5 16.5
q63 0 128.5 -25.5t134.5 -65.5q30 32 56 74t48.5 89.5t42.5 97.5t37.5 98.5t32 92.5t26.5 79q-30 -6 -61 -9.5t-63 -3.5q-117 0 -190.5 47t-106 120t-26.5 161.5t48 172t119 151t186 98.5q18 5 28 -0.5t12.5 -14.5t-3 -17.5t-17.5 -9.5q-9 0 -18.5 1t-22 1t-29 -3.5
t-38.5 -13.5q-53 -25 -94.5 -67.5t-70 -94.5t-43 -110.5t-14 -115.5t17 -109.5t51 -92t87 -63t124.5 -23.5q35 0 67 4t64 12q23 61 52.5 136.5t65.5 153t77 151t87 131t96 92.5t104 35q38 0 56.5 -24.5t20.5 -65.5t-13 -94.5t-44.5 -112.5t-73 -119.5t-99.5 -114.5
t-123.5 -98.5t-145.5 -70.5q-33 -86 -64 -166.5t-64.5 -153t-72.5 -134t-88 -109.5q56 -34 113 -73t115 -78.5t117 -76t118 -64.5t117.5 -45t116.5 -17q89 0 157.5 19t120 48.5t87.5 65.5t59.5 69.5t36 61t18.5 40.5zM1191 1158q-42 0 -80 -26t-73 -71t-67.5 -107t-64 -134
t-61.5 -151t-60 -159q95 35 173.5 97t137 134t96 146t51 134.5t1 98.5t-52.5 38zM194 -180q79 0 139.5 24.5t107.5 67.5q-66 45 -125 73t-112 28q-51 0 -83.5 -14.5t-48 -35.5t-15 -46.5t16.5 -46.5t46 -35.5t74 -14.5z" />
    <glyph glyph-name="M" unicode="M" horiz-adv-x="1568" 
d="M2248 -392q5 13 14 17t17 1t12.5 -11.5t-0.5 -20.5q-13 -31 -52.5 -77.5t-103 -90t-149 -74.5t-188.5 -31q-125 0 -213.5 47t-144 129.5t-79.5 194t-19.5 240.5t36.5 269.5t88 281t135.5 275t178.5 251.5q-82 -68 -157.5 -157t-143.5 -185.5t-127 -194.5t-106 -185
t-81.5 -157t-53.5 -111q-8 -17 -13 -30t-22 -18q-12 -4 -18.5 7.5t-10.5 28.5q-15 78 -10 176.5t21 205t38.5 214.5t43.5 204q-16 -33 -46.5 -88t-69.5 -125.5t-84.5 -153t-91.5 -169.5q-94 -175 -229 -263.5t-286 -88.5q-74 0 -132.5 23t-99 61.5t-62.5 89t-22 106.5
q0 57 17.5 103.5t45.5 83t63.5 63.5t72 44.5t71 26t59.5 8.5q18 0 25.5 -8t6.5 -17.5t-8.5 -16.5t-19.5 -4q-12 2 -22 6t-21.5 6.5t-26.5 2t-36 -7.5q-57 -19 -98.5 -67t-62.5 -109t-20 -127.5t30.5 -121.5t89.5 -90.5t155 -35.5q67 0 134 20.5t129.5 62.5t120 106.5
t105.5 152.5q37 69 77 142t78.5 142.5t72.5 131t60 108.5q40 72 46 139.5t-17 120t-72.5 84.5t-121.5 32q-70 0 -133 -20.5t-117 -55t-97.5 -81t-74 -98t-47 -105.5t-16.5 -104q0 -43 16.5 -83t47.5 -70.5t75 -48.5t99 -18q54 0 84.5 7t48 18t27.5 23.5t23 24.5q10 9 19.5 8
t14 -7.5t3 -16.5t-14.5 -19q-45 -31 -99 -42t-105 -11q-59 0 -106.5 19t-82 51t-53 74t-18.5 89q0 93 44.5 181.5t117.5 158.5t166.5 112.5t192.5 42.5q61 0 108.5 -19t79 -55t46.5 -87.5t11 -115.5q-6 -89 -26 -185.5t-41.5 -198t-38 -208t-15.5 -214.5q0 -29 5 -37t10 -8
q3 0 10 5.5t18 28.5q129 256 248.5 439.5t225 308.5t196 200t161.5 114.5t121.5 52t76.5 12.5q29 0 45.5 -7.5t22.5 -17.5t3.5 -21t-10.5 -18.5t-20.5 -9.5t-25.5 7q-25 16 -52 22t-57.5 0.5t-64.5 -23.5t-73 -50q-74 -61 -143 -148.5t-129.5 -193t-111 -223.5t-86.5 -239
t-55.5 -241t-18.5 -229t24 -202.5t73 -162t128 -107.5t189 -39q73 0 133 15t107.5 39t83.5 53.5t61.5 59.5t41 57t22.5 45z" />
    <glyph glyph-name="N" unicode="N" horiz-adv-x="1483" 
d="M2143 1243q29 0 45.5 -7.5t22.5 -17.5t3.5 -21t-10.5 -18.5t-20.5 -9.5t-25.5 7q-24 15 -49.5 23t-55 6t-63.5 -15.5t-75 -42.5q-72 -50 -148 -135.5t-157 -220t-167.5 -324.5t-178.5 -449q-7 -19 -10.5 -30t-22.5 -16q-12 -3 -17 9t-9 29q-11 53 -21.5 117t-20 133.5
t-19 142.5t-18 144.5t-16.5 139t-15 126.5q-53 -109 -101 -218t-98.5 -208.5t-107 -185t-126 -148.5t-155 -99t-193.5 -36q-77 0 -135.5 23t-98.5 61t-60.5 87t-20.5 102q0 61 17.5 110t46 86.5t64 64t72 43.5t70.5 25t58 8q16 0 23.5 -8t7.5 -17t-7.5 -16t-19.5 -5
q-11 1 -20.5 5t-20.5 6.5t-25.5 2.5t-35.5 -6q-56 -16 -98 -63t-64 -108.5t-21.5 -129t29 -123.5t88 -92.5t154.5 -36.5q106 0 190.5 40t153.5 106.5t124 154.5t102 183.5t88.5 192.5t83.5 183q17 34 22.5 76.5t0 86t-23 84.5t-46 73t-69 51.5t-92.5 19.5q-71 0 -134 -20.5
t-116.5 -55t-96.5 -80t-73 -96.5t-46 -104.5t-16 -103.5q0 -47 18 -87.5t50 -70.5t75 -47t94 -17q52 0 82.5 8t48.5 19.5t28 23.5t23 21q11 7 20.5 5.5t13.5 -8t1.5 -16t-15.5 -18.5q-45 -31 -98 -41.5t-103 -10.5q-57 0 -105 18.5t-82.5 50t-53.5 74.5t-19 93
q0 55 18.5 113t52 112.5t81 103t106.5 85t127.5 57.5t144.5 21q104 0 169.5 -65t85.5 -198q14 -94 27.5 -199t26 -212.5t25.5 -213t26 -200.5q4 -29 7.5 -37.5t11.5 -8.5q3 0 7.5 5.5t12.5 29.5q76 206 149 363.5t142 275t132.5 199.5t120.5 136t106.5 84.5t90.5 45t73 18
t53 3.5z" />
    <glyph glyph-name="O" unicode="O" horiz-adv-x="888" 
d="M791 1196q58 0 93 -23t49 -61.5t8.5 -89.5t-27.5 -107q22 -58 25 -129t-11 -148.5t-43 -157.5t-69.5 -154.5t-91 -140t-108.5 -114.5t-121 -77t-128 -28q-72 0 -134 36t-100.5 108.5t-45.5 181.5t31 254q-63 41 -95 104t-32 135q0 67 23 121t60.5 96t84 72.5t94 50
t91.5 29t75 9.5q19 0 26.5 -8t6 -17.5t-10 -16.5t-20.5 -5q-14 2 -25.5 6t-26 6t-33 0.5t-46.5 -9.5q-79 -24 -134.5 -65t-89.5 -91.5t-46.5 -107t-4.5 -110t35.5 -100.5t73.5 -79q28 86 73 166t100.5 150t119 127.5t128 99t127.5 64.5t119 23zM766 1167q-53 0 -110 -25.5
t-115 -69.5t-113 -104.5t-103.5 -130t-87.5 -146t-63 -153.5q68 -27 139.5 -26.5t141.5 21t136 58t122 85t98.5 101.5t67.5 109q-13 42 -37.5 65.5t-62.5 23.5q-11 0 -17 -6t-8.5 -15t-2.5 -19t2 -19q2 -8 -4 -10.5t-11 6.5q-8 13 -9.5 31t4.5 34.5t22 28t43 11.5
q32 0 58 -20.5t46 -55.5q15 46 16 87.5t-15 72t-49.5 48.5t-87.5 18zM369 -14q64 0 122 26.5t109.5 72.5t95 107.5t78.5 130.5t60.5 142.5t40 144t17.5 134.5t-6 113q-30 -59 -76.5 -113.5t-104 -100t-123.5 -80t-135.5 -52t-140.5 -17t-137 25.5q-29 -107 -30 -204
t25 -170.5t78 -116.5t127 -43z" />
    <glyph glyph-name="P" unicode="P" horiz-adv-x="1293" 
d="M1094 1183q105 0 192 -24.5t149 -69.5t96.5 -108.5t34.5 -141.5q0 -85 -37.5 -160.5t-100 -132.5t-144 -90.5t-168.5 -33.5q-51 0 -80.5 11t-41.5 26.5t-9.5 32t16.5 27.5q5 5 11 5t1 -8q-6 -10 -2.5 -22.5t17.5 -24t39 -19.5t61 -8q78 0 147 31t121 84t82 124t30 151
t-28 137t-74 95.5t-104 59.5t-119 29q-17 2 -21.5 -3.5t-7.5 -14.5q-4 -11 -14.5 -44.5t-26.5 -83t-35.5 -110.5t-40.5 -126t-42 -129.5t-40 -121.5t-34 -102.5t-25 -71.5q-15 -41 -37.5 -89t-53 -95.5t-68.5 -91.5t-85.5 -77.5t-103.5 -53.5t-122 -20q-125 0 -208.5 39.5
t-129 102t-55.5 138.5t12 150t73.5 137t129.5 98q8 70 40.5 141.5t85.5 138t127 125t165 101.5t198.5 68t229.5 25zM1093 1138q6 21 -18 21q-59 -1 -133 -11.5t-152.5 -35t-155.5 -65t-143.5 -101.5t-116.5 -145.5t-73 -196.5q53 14 111 14q82 0 130.5 -24t69.5 -59.5
t17.5 -77.5t-26 -77.5t-60.5 -59.5t-86 -24q-52 0 -91 23t-65 60t-39.5 83.5t-13.5 94.5q-47 -28 -81.5 -69.5t-55 -90t-27.5 -101.5t2 -104t33.5 -97t67 -81t103 -55.5t140.5 -20.5q44 0 99.5 18t112.5 65.5t110.5 128.5t94.5 207q81 252 141.5 443.5t104.5 337.5zM299 581
q-3 -45 5.5 -91t28 -83t51 -60.5t74.5 -23.5q42 0 75 20.5t52 51.5t22 67.5t-16 67.5t-62 51.5t-115 20.5q-32 0 -60.5 -5.5t-54.5 -15.5z" />
    <glyph glyph-name="Q" unicode="Q" horiz-adv-x="964" 
d="M1527 -197q3 13 11.5 18t17 3t13 -9.5t0.5 -19.5q-6 -16 -23.5 -45t-46.5 -64.5t-70.5 -72t-95 -66.5t-119.5 -49t-144 -19q-118 0 -219.5 32.5t-189.5 82.5t-165.5 109t-147.5 112q-57 -29 -125 -46t-149 -17q-62 0 -105 16.5t-66.5 41.5t-26.5 54.5t14.5 54.5
t56.5 41.5t99 16.5q81 0 162.5 -35t165.5 -89q42 26 73 57t54 62q-94 -14 -158 11.5t-103 76t-57 118t-20.5 136t6 130.5t23.5 102q-63 41 -94.5 104t-31.5 135q0 67 23 121t60.5 96t84 72.5t94 50t91 29t74.5 9.5q19 0 26.5 -8t6 -17.5t-9.5 -16.5t-20 -5q-14 2 -26 5.5
t-26 5t-33 -0.5t-47 -10q-77 -23 -132 -64t-88.5 -91t-46 -105.5t-5 -108.5t34 -100t72.5 -79q28 85 73 165t100.5 150t119 128t128 99t127.5 64t118 23q58 0 93 -23t49.5 -62t9 -90t-28.5 -107q28 -77 25.5 -170t-29 -189.5t-72.5 -190t-106 -172t-130 -135t-143 -78.5
q-24 -38 -59 -73.5t-80 -65.5q82 -53 165.5 -113.5t168.5 -111.5t170.5 -85t172.5 -34q78 0 141 19t112.5 49t86 66t61.5 70t38 61.5t17 40.5zM841 1167q-53 0 -110 -25t-114.5 -69.5t-112.5 -104.5t-103 -129.5t-87 -146t-63 -152.5q57 -23 122 -24.5t132 15t133 49.5
t124.5 79t107 103.5t81.5 122.5q-12 42 -36 66t-61 24q-11 0 -17 -6t-8.5 -15t-2.5 -19t2 -19q2 -8 -4 -10.5t-11 6.5q-8 13 -9.5 31t4.5 34.5t22 28t43 11.5q31 0 57 -20t45 -54q16 46 17 87t-14.5 71.5t-49 48t-87.5 17.5zM245 519q-9 -26 -16.5 -65t-10 -85.5t0.5 -96.5
t14.5 -96.5t32.5 -86.5t55 -66t82 -34.5t113 6.5q17 28 27 53t13.5 44t0 30.5t-12.5 11.5q-5 0 -8 -1.5l-7 -3.5t-10 -3.5t-18 -1.5q-30 0 -45 19t-14 42t16 42t45 19q18 0 33 -8.5t26.5 -23.5t17.5 -34.5t6 -40.5q0 -30 -9.5 -64.5t-28.5 -69.5q70 26 130 83t109 131.5
t86 160.5t59 171.5t29 164t-3 137.5q-26 -52 -69 -104t-98.5 -97t-121 -81t-136 -55.5t-144 -20.5t-144.5 24zM76 -227q77 0 139.5 15t113.5 40q-75 56 -144 92.5t-139 36.5q-48 0 -78.5 -13.5t-43 -34t-9 -44.5t23 -44.5t54 -34t83.5 -13.5z" />
    <glyph glyph-name="R" unicode="R" horiz-adv-x="1472" 
d="M2184 -511q4 6 10 7.5t11 -1.5t7 -9.5t-2 -15.5q-5 -9 -17.5 -17.5t-30.5 -15t-39 -10.5t-43 -4q-109 0 -200.5 32t-168 87t-139.5 127.5t-115 153.5t-95 165t-79 162.5t-67 146t-59 114.5q-23 -5 -46 -6.5t-47 -1.5q-37 0 -54 16.5t-16 36.5t20 36.5t54 16.5
q27 0 53.5 -19.5t53.5 -54.5q74 17 137.5 56t110 92t73 117t26.5 132q0 80 -28.5 137t-74.5 95t-104.5 59t-118.5 29q-17 2 -21.5 -3t-8.5 -14q-4 -11 -14.5 -44.5t-26.5 -83t-35.5 -110.5t-40.5 -126t-42 -129.5t-40 -121.5t-34 -102.5t-25 -71.5q-15 -41 -37.5 -89
t-53 -95.5t-68.5 -91.5t-85.5 -77.5t-104 -53.5t-122.5 -20q-125 0 -208.5 39.5t-129 102t-55 139t12.5 150.5t73.5 137t129.5 98q6 65 36 134t82 135t125 125t165 103t202 70t237 26q105 0 192 -23.5t149.5 -67.5t97 -107t34.5 -141q0 -71 -31 -138.5t-84 -124
t-124.5 -98.5t-152.5 -61q34 -49 70.5 -116.5t76.5 -145.5t85 -161.5t97 -163t112 -150.5t129 -124.5t149 -85t173 -31.5q28 0 46.5 5.5t30 13t18 16t9.5 15.5zM1106 1137q2 8 1 14t-12 7q-55 1 -129 -8.5t-154 -34.5t-160.5 -66t-149 -103t-119 -146.5t-70.5 -195.5
q53 14 111 14q82 0 130.5 -24t69.5 -59.5t17.5 -77.5t-26 -77.5t-60.5 -59.5t-86 -24q-52 0 -91 23t-65 59.5t-39.5 83t-14.5 94.5q-62 -37 -102.5 -97t-55.5 -129t-4 -138.5t52.5 -126t113.5 -92t179 -35.5q44 0 99.5 18t112.5 65.5t110.5 128.5t94.5 207q81 252 142 443
t105 337zM311 580q-3 -45 5.5 -91t28.5 -83t51 -60t74 -23q42 0 75 20.5t52 51t21 66.5t-17 66.5t-62 51t-115 20.5q-31 0 -59 -5t-54 -14zM1066 422q20 0 40 1.5t40 5.5q-20 31 -39.5 48t-39.5 17q-25 0 -37 -11.5t-12 -25t12.5 -24.5t35.5 -11z" />
    <glyph glyph-name="S" unicode="S" horiz-adv-x="973" 
d="M1033 1032q0 -48 -25 -98.5t-70.5 -91.5t-108 -67t-137.5 -26q36 -46 78.5 -91t78.5 -95t60.5 -108t24.5 -130q0 -65 -26 -123.5t-72.5 -105t-111 -77.5t-140.5 -41q-45 -61 -106 -114t-134 -92.5t-155.5 -62t-171.5 -22.5q-15 0 -22 8t-7 18t7 18t20 8q12 0 19 -5
t16 -10t24 -8t44 0q69 8 132 31t119.5 57.5t104 78t85.5 92.5q-11 -1 -21.5 -1.5t-21.5 -0.5q-99 0 -176 32.5t-130 83t-80.5 113t-27.5 122.5q0 59 20 113t57 94.5t90.5 64.5t120.5 24q50 0 103.5 -20t97.5 -62.5t72.5 -108t28.5 -156.5q0 -69 -24.5 -139t-69.5 -136
q46 8 95 27.5t89.5 56.5t67 95t26.5 143q0 49 -12.5 90.5t-33.5 78.5t-48 70.5t-55.5 65.5t-56.5 64t-51 66q-52 9 -96 27.5t-69 41.5q-10 9 -8 19t9.5 16.5t17.5 6.5t17 -12q20 -33 52 -51.5t64 -27.5q-22 36 -35 75.5t-13 86.5q0 58 28 105.5t71.5 81t96.5 51.5t102 18
q40 0 73 -13t56 -35.5t35.5 -51.5t12.5 -61zM516 -9q25 0 58 3q47 67 72.5 137.5t25.5 138.5q0 60 -18.5 119.5t-54.5 106.5t-88.5 76.5t-121.5 29.5q-68 0 -116 -26.5t-77 -69t-39 -97.5t-1.5 -112.5t35.5 -112.5t72 -97.5t108.5 -69t144.5 -26.5zM680 764q75 -3 136.5 22
t104.5 64.5t66.5 87.5t23.5 92q0 30 -10.5 55.5t-30 44t-48.5 29.5t-66 11q-48 0 -92 -16.5t-77.5 -47t-54 -72.5t-20.5 -93t19 -93.5t49 -83.5z" />
    <glyph glyph-name="T" unicode="T" horiz-adv-x="636" 
d="M1341 1069q3 -8 3 -28t-9.5 -46t-29.5 -54t-56 -51t-90 -38t-130 -15q-50 0 -94 9t-85 24t-79.5 35t-75.5 43q-23 -72 -48 -153t-49.5 -161.5t-47 -156t-40.5 -136.5q-30 -99 -64.5 -166t-72 -108t-78 -58.5t-81.5 -17.5q-42 0 -78.5 12.5t-62.5 32.5q-12 9 -12 19
t6.5 17t17 8t19.5 -9t16.5 -21.5t19.5 -21t30 -16t48 -6.5q37 0 68 19.5t57.5 54t48 82t39.5 104.5l18 58.5t34 109t43 139t46 150t43.5 141t34.5 112.5q-47 29 -95.5 58t-101 51.5t-111.5 36.5t-128 14q-99 0 -167 -37.5t-104 -94t-39 -122.5t28.5 -122.5t98 -94
t168.5 -37.5q17 0 49 1t66.5 11.5t66.5 34.5t50 69q5 13 14.5 16t17.5 -0.5t11 -12.5t-4 -20q-23 -33 -53.5 -55.5t-65.5 -36t-74 -19t-79 -5.5q-93 0 -159 23.5t-108 62t-59.5 88t-13 100.5t30 100.5t70.5 88t109 62t145 23.5q69 0 129.5 -13.5t115 -36t104 -51t96.5 -58.5
q6 20 9.5 32.5t4.5 14.5q5 20 21.5 39t36.5 27q8 3 11.5 0.5t4 -7t-0.5 -10t-2 -7.5q-10 -25 -19.5 -54.5t-20.5 -61.5q39 -24 78 -46t79.5 -38.5t83 -26.5t88.5 -10q83 0 139.5 21.5t88.5 53t41 67t-3 63.5q-3 9 1 17t11.5 11t16 0t14.5 -16z" />
    <glyph glyph-name="U" unicode="U" horiz-adv-x="876" 
d="M860 509q17 0 16 -4.5t-3 -5.5q-16 -11 -30 -32t-29 -55t-33 -84t-42 -120q-9 -24 -19 -54.5t-14 -57.5t2.5 -45.5t30.5 -18.5q16 0 30 7.5t26 18.5t21.5 25t17.5 28q2 3 5.5 2t1.5 -6q-8 -21 -21 -41t-31 -36t-39 -26t-45 -10q-58 0 -64 58.5t49 179.5h-3
q-18 -29 -48 -69.5t-70.5 -78.5t-91 -64.5t-111.5 -26.5q-69 0 -95 25t-24.5 66t22 92.5t44.5 104.5q21 46 49 109.5t55.5 135.5t51.5 148.5t36.5 149.5t10.5 138t-25.5 114t-73 77.5t-131.5 28.5q-75 0 -137.5 -28t-110.5 -75t-79.5 -108t-45 -127t-7 -131t35 -120.5
t80 -97t129.5 -58.5q27 -6 42 -3.5t23.5 8.5t14 12.5t14.5 8.5q10 2 16.5 -1t9 -9t1 -13t-8.5 -13q-13 -10 -48.5 -13.5t-81 5t-95 31.5t-89.5 66.5t-65 110t-21 162.5q3 74 34.5 147.5t87 132.5t131.5 95.5t168 36.5q91 0 156 -40t95 -119.5t19.5 -199t-68.5 -278.5
q-28 -77 -59 -148t-57.5 -132t-44.5 -111t-20 -85t16 -54.5t64 -19.5q39 0 78 18t75 48t68.5 69t60 80t48 81.5t33.5 74.5q26 69 54.5 96.5t57.5 27.5z" />
    <glyph glyph-name="V" unicode="V" horiz-adv-x="686" 
d="M1410 1235q34 0 48.5 -10t15.5 -21.5t-8.5 -21.5t-24.5 -10q-13 0 -24.5 6t-26 12t-34.5 8.5t-49 -5.5q-74 -20 -175.5 -91t-218.5 -207t-243 -344.5t-250 -503.5q-8 -19 -18 -34.5t-27 -17.5q-11 -1 -14.5 10t-5.5 21q-20 89 -24 188t6 198.5t31.5 195t51.5 178.5
t66.5 149t76.5 106q5 4 7 8t-10 2q-61 -9 -122.5 4t-123 31.5t-122.5 35.5t-121 17q-81 0 -138 -32.5t-90.5 -82.5t-43 -111t3 -118t47.5 -102.5t92 -65.5q11 -4 11.5 -9.5t-4.5 -7.5q-13 -7 -32.5 -3t-31.5 9q-62 29 -94.5 80t-38.5 110.5t13.5 121.5t60.5 112t103.5 82
t142.5 32q59 0 112 -13t102.5 -28.5t97.5 -28.5t97 -13q29 0 51.5 4t39.5 9t30 11t22 10q17 8 26.5 -2t-3.5 -24q-67 -73 -113.5 -163t-76 -185t-45 -189t-21 -174t-2.5 -140t9 -87q5 -18 7.5 -25t7.5 -7q4 0 8 3.5t12 20.5q113 252 222.5 432t209.5 302.5t188.5 195
t159 111t121 50t76.5 11.5z" />
    <glyph glyph-name="W" unicode="W" horiz-adv-x="1049" 
d="M1763 1238q42 0 62.5 -11.5t25 -26t-4 -26t-24.5 -11.5q-11 0 -21 6t-21.5 13.5t-26 14t-35.5 7t-49 -8t-67 -29.5q-71 -40 -141 -100.5t-136.5 -134.5t-128 -158t-116.5 -170t-102 -170t-84 -159t-62.5 -136.5t-38.5 -101.5q-1 -3 -4.5 -9.5t-8.5 -12.5t-11.5 -11
t-14.5 -5q-16 0 -19 16q-11 67 -14.5 141t-1 149.5t10 151.5t19.5 148q-48 -60 -95 -131t-88 -146t-73.5 -149t-51.5 -140q-7 -20 -11 -28t-16 -13q-24 -8 -27 10q-20 109 -23 216t6 210q-58 -25 -114 -30.5t-106 4.5t-92.5 34t-73.5 58.5t-48.5 77t-17.5 89.5
q0 77 32.5 128t87.5 86t128 60t154 50.5t165.5 57t162.5 80.5q15 9 25.5 10.5t16 -2.5t4.5 -11.5t-9 -15.5q-63 -63 -107 -139.5t-74 -159t-47 -166t-25 -160.5q31 22 52.5 49.5t29.5 59.5q3 14 11 17.5t15.5 0.5t11.5 -11t-2 -18q-20 -35 -51.5 -65t-69.5 -53
q-6 -65 -8 -121t-1.5 -98.5t2.5 -68.5t2 -31q2 -21 5.5 -26.5t8.5 -6.5q5 0 7.5 3t6.5 11q38 94 77 170.5t77.5 138.5t76 112t72.5 93q13 75 29 140t34 119q22 65 57 102t65 43.5t45 -18.5t-3 -85q-9 -33 -26 -64t-39.5 -63t-50.5 -66t-60 -73q-18 -88 -27 -168.5
t-12 -150.5t0 -127.5t9 -99.5q3 -16 11 -17q6 0 9.5 6t4.5 7q101 220 200.5 388t193.5 292t180 207t159.5 133t131.5 71.5t97 21.5zM-40 671q0 -77 35.5 -135t93.5 -89t132 -32t151 36q19 176 69 328t119 262q3 5 0.5 9.5t-10.5 1.5q-50 -20 -127.5 -46t-168.5 -54
q-62 -18 -115.5 -39.5t-93 -53t-62.5 -77t-23 -111.5zM872 915q-18 -52 -32.5 -102.5t-25.5 -100.5q49 58 87 111.5t62 118.5q13 37 7.5 59t-21 21.5t-37 -26t-40.5 -81.5z" />
    <glyph glyph-name="X" unicode="X" horiz-adv-x="1640" 
d="M2260 1113q33 0 49.5 -8t20 -17t-2.5 -17t-16 -8q-12 0 -19 4t-15 9t-22 9t-41 4q-87 0 -183.5 -42t-200 -112.5t-213.5 -162.5t-224 -193q5 -61 9.5 -119t8 -104.5t6 -78t3.5 -38.5q5 -38 9 -74.5t12 -65.5t21.5 -47t36.5 -18q15 0 28.5 7.5t25 18.5t21.5 25t17 28
q2 4 5.5 2.5t1.5 -6.5q-7 -21 -19.5 -41t-29.5 -36t-38 -26t-45 -10q-29 0 -46 15.5t-27 45.5t-15.5 74.5t-11.5 103.5q-5 63 -11 141t-13 158q-91 -81 -184 -162.5t-185.5 -156t-185 -139t-183.5 -112t-179 -74.5t-173 -27q-68 0 -118.5 26t-78.5 68.5t-31 96t23.5 109
t84.5 107.5t152 92q16 7 25.5 3t13.5 -12.5t1 -17.5t-13 -12q-12 -4 -23 -3.5t-23 1t-26.5 -2t-33.5 -13.5q-58 -33 -95 -77.5t-52 -91.5t-10 -92.5t30 -81.5t69.5 -58t107.5 -22q81 0 166 29t173.5 79t180 117.5t185 145.5t188.5 162.5t190 167.5q-6 53 -9 118.5t-11 133.5
t-25.5 132t-53 114t-92.5 80.5t-144 30.5q-97 0 -170.5 -30.5t-124.5 -80.5t-80 -113.5t-37 -130.5t5 -130.5t46 -113.5t85.5 -80.5t124.5 -30.5q79 0 137 31t81 94q5 14 14 18t17.5 1t12.5 -11.5t-1 -19.5q-10 -21 -33 -44t-57 -42t-77.5 -31.5t-94.5 -12.5q-90 0 -153 32
t-100.5 84.5t-49.5 119t-0.5 136.5t47 136.5t93 119t137 84.5t180.5 32q96 0 163 -27t110.5 -76t66 -117t28.5 -150q4 -45 8 -99.5t8 -111.5q112 97 224 185t221.5 154.5t216.5 106t209 39.5z" />
    <glyph glyph-name="Y" unicode="Y" horiz-adv-x="1067" 
d="M863 -55q117 4 203.5 -9t144 -38t85.5 -59t28 -71q0 -25 -9.5 -44t-23 -32.5t-27.5 -22t-24 -12.5q-19 -7 -26 -4t4 6q9 3 20 9.5t21 18.5t16.5 29.5t6.5 41.5q0 43 -30 76t-85.5 54.5t-134.5 31.5t-176 7q-60 -142 -123.5 -233t-130 -144t-136.5 -73.5t-143 -20.5
q-44 0 -82.5 10.5t-67 29t-45 44.5t-16.5 58q0 51 29.5 95t81 80.5t120 65.5t147 50t162 34.5t164.5 18.5q28 74 51 147.5t43 142.5h-2q-18 -29 -46 -69.5t-67 -78.5t-89 -64.5t-111 -26.5q-69 0 -96 25t-27 66t19 92.5t41 104.5q19 46 44.5 109.5t51 135.5t46.5 148.5
t31 149.5t6 138t-29.5 114t-76 77.5t-132.5 28.5q-75 0 -136.5 -28t-108 -75t-76 -108t-40.5 -127t-2.5 -131t39 -120.5t84 -97t131.5 -58.5q27 -6 42 -3.5t23.5 8.5t14 12.5t13.5 8.5q10 2 17 -1t9.5 -9t1 -13t-8.5 -13q-12 -10 -47.5 -13.5t-81 5t-95.5 31.5t-92 66.5
t-69 110t-27 162.5q0 74 29 147.5t82 132.5t128.5 95.5t167.5 36.5q91 0 157.5 -40t99 -119.5t26.5 -199t-59 -279.5q-26 -77 -54.5 -147.5t-52.5 -131.5t-40.5 -111t-17 -85t18 -54.5t64.5 -19.5q59 0 114.5 39t102.5 96t81.5 121t51.5 115q23 69 51 96.5t57 27.5
q8 0 11.5 -1.5t4 -3.5t-0.5 -3.5t-2 -2.5q-18 -11 -32 -30t-28.5 -52.5t-31.5 -84.5t-39 -127q-43 -145 -90 -259zM360 -522q86 0 154 36.5t122.5 98t96.5 142.5t76 169q-137 -8 -255 -36.5t-205 -71.5t-136.5 -97t-49.5 -113q0 -55 51.5 -91.5t145.5 -36.5z" />
    <glyph glyph-name="Z" unicode="Z" horiz-adv-x="1312" 
d="M1752 1167q19 12 32.5 10.5t19.5 -9t5 -17.5t-11 -14q-58 -28 -119.5 -73t-126.5 -102.5t-133 -125.5t-137.5 -141t-140.5 -148.5t-142 -148.5q51 6 103.5 21t99.5 38t84.5 55t59.5 72q12 22 28.5 24t28 -8t12.5 -27.5t-20 -34.5q-85 -71 -194 -112.5t-223 -49.5
q-108 -109 -214.5 -203t-211.5 -158q60 -46 119 -99.5t119.5 -106.5t123 -103t130 -88t141.5 -61t156 -23t146 27.5t105.5 69t58 89.5t3 89.5t-59 69t-127.5 27.5q-56 0 -102.5 -14t-81.5 -33t-58 -37.5t-31 -28.5q-9 -11 -20.5 -10.5t-17.5 7t-4.5 17t18.5 19.5
q107 57 191.5 81.5t149.5 24.5q81 0 129.5 -30.5t65 -77t0.5 -100t-64.5 -100t-130 -77t-196.5 -30.5q-92 0 -172 22.5t-151.5 60t-134.5 86.5t-121.5 101.5t-113.5 105.5t-109 99q-65 -35 -127 -55t-122 -20q-78 0 -127 17.5t-73 44t-24 57t20 57t57.5 44t90.5 17.5
q89 0 168 -34.5t154 -88.5q99 61 202 150.5t207 192.5q-134 -2 -230.5 30.5t-159 86.5t-91.5 124t-27.5 143t32.5 143t88 125.5t139.5 89t187.5 33.5q65 0 137.5 -8.5t149.5 -18t155 -17t153.5 -5.5t146 17t132.5 50zM263 -65q53 0 110.5 19.5t118.5 54.5q-69 55 -138.5 90
t-147.5 35q-35 0 -60.5 -14.5t-38.5 -37t-12 -48t19 -48t54.5 -37t94.5 -14.5zM1692 1104q4 2 2.5 4t-5.5 0q-50 -21 -113 -28t-133.5 -5t-145.5 10t-148.5 17t-143 16t-128.5 7q-99 0 -173.5 -33t-122.5 -86t-70.5 -121t-18 -138t35.5 -136.5t89 -116.5t143.5 -78
t199.5 -22q73 73 144.5 148t139.5 147t131.5 138.5t120.5 121t106.5 94.5t89.5 61z" />
    <glyph glyph-name="bracketleft" unicode="[" horiz-adv-x="553" 
d="M836 1180q49 0 74 -12.5t18 -29.5q-5 -13 -18.5 -14t-24.5 4q-29 13 -63.5 22t-75.5 2.5t-88.5 -36t-100.5 -94.5t-112.5 -172t-125.5 -269q-72 -177 -109 -304.5t-49 -217t-2 -146.5t32.5 -93.5t53 -57.5t61.5 -38q11 -6 20.5 -15.5t3.5 -22.5q-8 -17 -34 -8t-61 43
q-68 64 -93 155.5t-16 203t47 239t97 263.5q60 139 120.5 250t128.5 188t146 118.5t171 41.5z" />
    <glyph glyph-name="backslash" unicode="\" horiz-adv-x="317" 
d="M228 -121q8 -73 -3.5 -109t-37.5 -50q-15 -8 -16 -3.5t0 6.5q10 17 13.5 41.5t2 61.5t-6.5 89t-12 125q-1 13 -5.5 53.5t-11.5 99.5t-15 132t-17.5 153t-18.5 161.5t-17.5 157.5t-16 142t-12.5 113q-8 72 3 108t37 50q14 8 15.5 3.5t0.5 -6.5q-10 -17 -13.5 -41.5t-2 -61
t6.5 -89t13 -124.5q5 -47 12 -111.5t15.5 -138t17.5 -153t18 -157t17.5 -150.5t15 -133t11.5 -104t7 -65z" />
    <glyph glyph-name="bracketright" unicode="]" horiz-adv-x="566" 
d="M477 1133q68 -64 93 -155.5t16 -203t-47.5 -239.5t-97.5 -264q-60 -139 -120.5 -249.5t-128.5 -188t-146 -119t-171 -41.5q-49 0 -73.5 13t-18.5 30q5 13 18.5 14t25.5 -4q28 -13 63 -22.5t76 -2.5t88 36.5t100.5 94.5t113 172t125.5 269q72 176 109 303.5t49 217t2 147
t-32.5 93.5t-53.5 57.5t-62 38.5q-11 6 -20 15t-3 22q8 17 34 8t61 -42z" />
    <glyph glyph-name="asciicircum" unicode="^" horiz-adv-x="833" 
d="M611 773q26 -42 50.5 -84.5t50.5 -84.5h-53q-18 29 -36.5 57t-38.5 57q-36 -30 -69.5 -57.5t-68.5 -56.5h-30q21 19 52 47.5t60 55t50.5 45.5t23.5 21h9z" />
    <glyph glyph-name="underscore" unicode="_" horiz-adv-x="585" 
d="M99 -47l12 34h412l-13 -34h-411z" />
    <glyph glyph-name="quoteleft" unicode="&#x2018;" horiz-adv-x="528" 
d="M502 794q-39 -24 -51 -45t-11.5 -40t7 -37t4.5 -34q-2 -13 -6.5 -20.5t-11 -11.5t-13.5 -5t-12 -1q-3 0 -9.5 2t-13 6t-11 11t-4.5 18q0 29 13.5 55.5t33 48.5t41.5 38.5t37 24.5q9 5 11.5 -0.5t-4.5 -9.5z" />
    <glyph glyph-name="a" unicode="a" horiz-adv-x="540" 
d="M417 208q-8 -24 -17 -55t-12 -58t4 -45.5t33 -18.5q15 0 28.5 7.5t24.5 19t20.5 25.5t16.5 27q2 4 5.5 3t1.5 -7q-6 -20 -18 -40.5t-28.5 -36.5t-36.5 -26t-44 -10q-35 0 -50 18t-17 44.5t5 56.5t16 54h-3q-9 -23 -28.5 -52.5t-46 -56t-58.5 -45t-66 -18.5t-57 12
t-37 31.5t-20 43t-6 46.5q0 39 13.5 83t36 86.5t52.5 81.5t63 69t67 47.5t66 17.5q10 0 26 -3.5t31 -16.5t26 -38.5t11 -68.5h2q23 66 50 91t54 25q17 0 17 -4t-3 -6q-17 -11 -29.5 -30t-26 -52t-29 -82t-37.5 -119zM333 492q-42 0 -84 -34t-77 -85.5t-58 -111.5
t-26.5 -111.5t17 -85.5t72.5 -34q28 0 56.5 20.5t54.5 53t48 73.5t37 83q24 67 27 111.5t-6 71.5t-26.5 38t-34.5 11z" />
    <glyph glyph-name="b" unicode="b" horiz-adv-x="467" 
d="M893 1121q-5 -13 -20 -14t-29 7q-79 45 -170.5 17t-184.5 -123.5t-182 -254.5t-161 -375q23 45 56 74.5t68.5 44t70.5 13.5t63 -17t45 -47.5t17 -77.5q0 -45 -14 -90t-38 -87t-55 -78.5t-64.5 -64t-68 -43t-64.5 -15.5q-55 0 -85 22.5t-40.5 60.5t-4.5 88t23 106
q33 113 76.5 223.5t97 210.5t116.5 185t135.5 147.5t153 97.5t168.5 35q47 0 73 -12.5t18 -32.5zM119 285q-21 -64 -30 -115.5t-5 -88t21 -56t48 -19.5q30 0 60 16.5t58.5 44t53 64t42.5 76t28.5 80.5t10.5 78q0 48 -15.5 77t-40.5 39.5t-56.5 2.5t-63.5 -33t-61.5 -67
t-49.5 -99z" />
    <glyph glyph-name="c" unicode="c" horiz-adv-x="419" 
d="M329 505q-29 0 -58 -16t-56 -42.5t-50.5 -61.5t-40.5 -73.5t-27 -78.5t-10 -75q0 -27 5.5 -50t18 -40.5t32 -27t47.5 -9.5q30 0 57 12.5t50.5 33t42.5 48t34 57.5q4 8 8.5 7t2.5 -10q-8 -23 -27.5 -55.5t-48 -61.5t-65 -49.5t-76.5 -20.5q-29 0 -55 9.5t-45 29t-30 50
t-11 71.5q0 38 11.5 80t32.5 83t49.5 77.5t62.5 64.5t72 44.5t78 16.5q33 0 57.5 -14t37.5 -35t13 -45t-17 -45q-14 -17 -34 -18.5t-34 12.5q-9 9 -12.5 18.5t-2.5 18.5t5 16t9 11q12 10 16 22t1 22.5t-13.5 17t-29.5 6.5z" />
    <glyph glyph-name="d" unicode="d" horiz-adv-x="552" 
d="M1039 1181q49 0 74 -13t20 -30q-5 -13 -18 -14t-25 4q-44 19 -92 25t-101.5 -18.5t-111 -88t-120.5 -183.5q-16 -30 -36.5 -79t-43 -108.5t-46 -124.5t-45 -127.5t-40.5 -118.5t-32 -97q-8 -24 -17 -55t-12 -58t4.5 -45.5t33.5 -18.5q15 0 28.5 7.5t24.5 19t20 25.5
t16 27q2 4 6 3t2 -7q-7 -20 -19 -40.5t-29 -36.5t-37.5 -26t-44.5 -10q-25 0 -38.5 10.5t-19.5 27.5t-5.5 37t3.5 39.5t7.5 35t7.5 23.5h-2q-9 -23 -28.5 -52.5t-46.5 -56t-59.5 -45t-67.5 -18.5q-32 0 -54.5 12t-36.5 31.5t-20 43t-6 46.5q0 39 13.5 83t36 86.5t52.5 81.5
t63 69t67.5 47.5t65.5 17.5q10 0 26 -4t31 -17t26 -38t11 -68l2 -1q34 105 71 205t79 188.5t90.5 162.5t105.5 127.5t123 83.5t144 30zM378 260q24 67 27 111.5t-6 71.5t-26.5 38t-34.5 11q-31 0 -63 -20t-61 -52.5t-53.5 -74t-41 -84.5t-23.5 -84.5t-1 -74t27 -52.5t60 -20
q28 0 56.5 20.5t54.5 53t48 73.5t37 83z" />
    <glyph glyph-name="e" unicode="e" horiz-adv-x="431" 
d="M443 422q0 -37 -26 -73t-73 -70.5t-113.5 -67.5t-148.5 -64q-1 -23 3.5 -44.5t16 -38t30 -26t44.5 -9.5q39 0 70.5 18.5t55 43.5t39 50t22.5 37q6 10 10 6.5t1 -11.5q-2 -7 -17.5 -35.5t-43.5 -60.5t-68 -57.5t-91 -25.5q-53 0 -83 22.5t-41.5 59t-5.5 83.5t25.5 95.5
t50.5 95.5t70 83.5t84 59t92 22.5q21 0 38.5 -7.5t30.5 -20t20.5 -29.5t7.5 -36zM329 495q-47 0 -89.5 -32.5t-76 -81.5t-55 -107t-25.5 -108q93 32 154.5 69t97 73.5t49 70.5t9.5 59.5t-21.5 41t-42.5 15.5z" />
    <glyph glyph-name="f" unicode="f" horiz-adv-x="338" 
d="M238 473q-10 -32 -27.5 -88.5t-38.5 -124t-43.5 -139t-41.5 -133.5t-33.5 -107t-18.5 -60q-29 -90 -66.5 -148t-76.5 -92.5t-75.5 -48t-62.5 -13.5q-28 0 -60.5 7t-57 19t-35 28t6.5 35q6 6 17.5 9.5t25.5 -8.5q9 -9 16 -21.5t17.5 -24.5t27 -20.5t45.5 -8.5
q34 0 65.5 21t59 55.5t50 79.5t39.5 94q50 145 94.5 292.5t92.5 308.5q10 34 5 52t-19 26t-33.5 9t-38.5 1q-10 0 -14 4t-4 9t4.5 9t11.5 4h122q32 106 66 178t71 115.5t76.5 62.5t82.5 19q64 0 95.5 -25t33.5 -55q1 -15 -8 -24t-19 -12q-11 -2 -24 2.5t-20 21.5
q-4 11 -7 24t-10 24.5t-21 19t-40 7.5q-45 0 -77.5 -32.5t-57.5 -83.5t-45.5 -115t-40.5 -127h161q8 0 12 -4t3.5 -9.5t-5 -9.5t-12.5 -4h-27.5t-50 0.5t-53.5 0.5h-37z" />
    <glyph glyph-name="g" unicode="g" horiz-adv-x="490" 
d="M340 165q-9 -23 -29 -52.5t-46.5 -56t-58.5 -45t-65 -18.5q-34 0 -57 12t-37 31.5t-20 43t-6 46.5q0 39 13.5 83t36 86.5t52.5 81.5t63 69t67 47.5t66 17.5q10 0 25.5 -3.5t30.5 -16.5t26 -38.5t12 -68.5l2 -1q22 66 50 91.5t54 25.5q14 0 16 -3.5t-2 -6.5
q-16 -11 -28.5 -30.5t-26 -52.5t-29.5 -81.5t-38 -118.5q-50 -154 -85.5 -271t-58.5 -174q-24 -64 -58.5 -109t-74 -73.5t-83 -41.5t-86.5 -13q-75 0 -128 25.5t-81.5 65t-33 86.5t15.5 90t66 76t118 44q31 5 66 8t67.5 9.5t61 19t48.5 35.5q3 5 6.5 -1.5t-1.5 -14.5
q-13 -20 -37 -30.5t-56 -17.5t-71.5 -12t-82.5 -15q-56 -13 -91 -44.5t-49.5 -70.5t-9.5 -81.5t28.5 -77.5t65 -57.5t99.5 -22.5q35 0 70.5 10.5t67 32t57.5 56t43 82.5q31 92 57 172.5t44 141.5q21 71 38 131h-3zM327 491q-41 0 -83 -34t-76.5 -85.5t-58 -111t-27.5 -111
t16 -85.5t71 -34q29 0 58 20t55.5 52.5t48 73.5t36.5 83q24 67 27 111.5t-6.5 71.5t-26.5 38t-34 11z" />
    <glyph glyph-name="h" unicode="h" horiz-adv-x="516" 
d="M16 -7q-3 -1 -6 1.5t-1 5.5q45 138 88.5 279t91.5 272t102.5 245.5t121.5 200t149 134.5t184 49q49 0 74 -12.5t19 -29.5q-5 -14 -18 -14.5t-25 4.5q-29 13 -60 20t-64.5 4.5t-69 -18t-73 -49.5t-77 -88t-81.5 -134q-47 -91 -95 -210.5t-89 -265.5l3 -1q13 23 31.5 46
t42.5 41t53 29.5t62 11.5q57 0 76 -46.5t-11 -124.5q-5 -13 -14 -37t-19 -54t-21 -62t-20 -60q-7 -20 -10 -38.5t-0.5 -32.5t11.5 -22.5t26 -8.5q30 0 55 25.5t38 57.5q2 4 6 2t2 -7q-6 -20 -17 -40t-26.5 -36.5t-35.5 -27t-44 -10.5q-55 0 -68.5 37.5t6.5 104.5
q10 34 23 71t26 72t23.5 65.5t15.5 52.5q11 44 -3 68.5t-45 24.5t-60.5 -18t-55 -46t-45 -62.5t-29.5 -66.5q-1 -5 -7 -22t-14 -41l-17.5 -52.5t-19.5 -56.5t-18.5 -53t-14.5 -41q-3 -8 -7.5 -12.5t-9.5 -6.5q-3 -2 -9.5 -4.5t-12.5 -5t-11 -5t-6 -2.5z" />
    <glyph glyph-name="i" unicode="i" horiz-adv-x="256" 
d="M61 456q-3 3 1 8q8 7 20.5 15.5t27 16t29.5 12t28 4.5q22 0 35 -8t18.5 -22.5t4 -33t-8.5 -39.5q-9 -28 -26.5 -72t-36 -90.5t-33.5 -87t-20 -60.5q-2 -11 -2 -22.5t3.5 -22t11 -17t21.5 -6.5q16 0 29 6.5t24.5 18t21.5 25.5t19 28q4 5 7 4t1 -6q-9 -21 -23 -41.5
t-31.5 -36.5t-38 -26t-41.5 -10q-48 0 -59 37.5t10 94.5q7 19 22.5 57.5t33 82t34 85t26.5 67.5q12 31 8 49.5t-18.5 23.5t-37 -3.5t-47.5 -29.5q-9 -7 -13 -1zM253 612q-17 0 -29 12.5t-12 29.5t12 29t29 12t29 -12t12 -29t-12 -29.5t-29 -12.5z" />
    <glyph glyph-name="j" unicode="j" horiz-adv-x="257" 
d="M235 408q-14 -47 -31.5 -105t-36.5 -119t-38 -120.5t-34.5 -109t-26.5 -84.5t-15 -47q-29 -90 -66.5 -148t-76 -92.5t-74.5 -48t-61 -13.5q-29 0 -62 7t-58 19t-35.5 28t6.5 35q6 6 17.5 9.5t25.5 -8.5q9 -9 16 -21.5t17.5 -24.5t27 -20.5t45.5 -8.5q34 0 65.5 21
t59 55.5t50 79.5t39.5 94q14 40 36.5 111t49 157t55 180.5t55.5 182.5q9 31 4 51t-23 23.5t-48.5 -11.5t-72.5 -54q-5 -4 -8 -4t-5 2q-3 4 0 9q8 7 23.5 20.5t35.5 26.5t43.5 22.5t47.5 9.5q21 0 34.5 -8.5t19.5 -22.5t5.5 -33t-6.5 -40zM263 612q-17 0 -29 12t-12 29t12 29
t29 12t29 -12t12 -29t-12 -29t-29 -12z" />
    <glyph glyph-name="k" unicode="k" horiz-adv-x="512" 
d="M742 1180q49 0 74 -12.5t19 -29.5q-5 -14 -18 -14.5t-25 4.5q-44 19 -92 24.5t-100.5 -19t-110.5 -87.5t-121 -183q-19 -35 -42.5 -92t-50.5 -129t-55 -155.5t-56 -172.5q-6 -22 31 -22q31 0 56 16t47 40.5t42.5 52.5t41.5 52.5t44 40.5t51 16q30 0 43 -16.5t14 -38.5
t-7.5 -44t-20.5 -32q-14 -11 -32 -11.5t-29 10.5q-12 11 -11.5 28.5t12.5 30.5q10 10 22 15t14 21q2 8 -2.5 14.5t-14.5 6.5q-24 0 -47.5 -25.5t-48.5 -59t-53.5 -67t-62.5 -49.5q35 0 54.5 -7.5t28 -20t8 -28t-4.5 -30.5q-8 -25 -17 -55.5t-12 -57.5t4.5 -45.5t34.5 -18.5
q14 0 27 7.5t24 19t20 25.5t17 27q2 4 5.5 3t1.5 -7q-7 -20 -19.5 -40.5t-29.5 -36.5t-37.5 -26t-44.5 -10q-38 0 -51 22.5t-11.5 55t11 68t17.5 61.5q3 8 7 21t2 25.5t-14 21.5t-42 9q-29 0 -47.5 -9t-30.5 -22t-18 -26t-9 -22q-13 -42 -25 -83t-23 -81q-3 -9 -8 -13t-9 -6
t-11.5 -5t-15 -6.5t-14 -6.5t-7.5 -3q-3 -1 -5.5 1.5t-1.5 5.5q45 138 88.5 279t91 272t102 245.5t121 200t148.5 134.5t184 49z" />
    <glyph glyph-name="l" unicode="l" horiz-adv-x="239" 
d="M45 165q72 230 142 417.5t150 320t176.5 205t221.5 72.5q49 0 74.5 -13t19.5 -30q-5 -13 -18 -14t-25 4q-44 19 -92.5 25t-102 -18.5t-111.5 -88t-121 -183.5q-16 -30 -36.5 -79t-43.5 -108.5t-46.5 -124.5t-45 -127.5t-40.5 -118.5t-32 -97q-8 -24 -17 -55t-12 -58
t4 -45.5t33 -18.5q15 0 28.5 7.5t24.5 19t20.5 25.5t16.5 27q2 4 6 3t2 -7q-7 -20 -19.5 -40.5t-29 -36.5t-37 -26t-43.5 -10q-27 0 -41.5 10.5t-20.5 27t-5 37t4.5 39.5t8.5 35t7 24z" />
    <glyph glyph-name="m" unicode="m" horiz-adv-x="767" 
d="M747 109q3 6 7.5 5.5t2.5 -7.5q-7 -21 -19 -41.5t-28 -36.5t-35.5 -26t-42.5 -10q-21 0 -39 7t-28 23.5t-9.5 43.5t15.5 68l22 55t24.5 60t24 56.5t19.5 46.5q6 13 13.5 35.5t8.5 44t-8.5 37t-37.5 15.5q-22 0 -49.5 -17.5t-55 -47t-52 -69t-40.5 -84.5
q-18 -49 -32.5 -90.5t-25.5 -72t-18 -49.5t-8 -23q-3 -7 -8 -14.5t-18 -12.5q-8 -3 -19.5 -5t-16.5 -4t-9 -0.5t-1 9.5q1 2 8 20.5t17.5 47.5t23.5 63.5t26 69.5t24.5 65.5t18.5 50.5l17.5 47.5t13 54t-7.5 44t-44 18.5q-27 0 -56 -22t-55 -53t-46 -64.5t-29 -57.5
q-19 -48 -36.5 -92.5t-31.5 -79.5l-23 -57.5t-10 -26.5q-3 -8 -7.5 -13.5t-15.5 -10.5q-8 -4 -22.5 -9t-16.5 -6q-5 -2 -8 0.5t-1 9.5q1 2 10.5 26.5t23.5 61t31 80.5t32.5 85t28 74.5t18.5 48.5q16 46 12 75.5t-30 29.5q-13 0 -28 -11.5t-28.5 -26t-23 -27.5t-10.5 -15
q-4 -5 -9.5 -2.5t-0.5 8.5q2 3 14.5 20t30.5 36t40.5 34t45.5 15q30 0 41.5 -18t13 -42.5t-4.5 -48.5t-10 -36h3q11 21 31.5 46t45.5 46.5t53.5 36.5t55.5 15q43 0 60 -19.5t19.5 -44.5t-3.5 -48.5t-9 -31.5h1q14 26 35 51.5t46 46t52.5 33.5t56.5 13q53 0 68.5 -41.5
t-12.5 -112.5q-12 -30 -27 -65.5t-29 -70.5t-26 -65.5t-19 -49.5q-3 -9 -6 -23t-0.5 -27t11 -22.5t27.5 -9.5q27 0 52.5 22t40.5 59z" />
    <glyph glyph-name="n" unicode="n" horiz-adv-x="527" 
d="M409 323q10 26 20.5 55t12 53t-10 39.5t-44.5 15.5q-26 0 -56 -22t-57 -53t-48.5 -64.5t-30.5 -57.5q-19 -48 -36.5 -92.5t-31.5 -79.5l-23 -57.5t-10 -26.5q-3 -8 -7.5 -13.5t-15.5 -10.5q-8 -4 -22.5 -9t-16.5 -6q-5 -2 -8 0.5t-1 9.5q1 2 10.5 26.5t23.5 61t31 80.5
t32.5 85t28 74.5t18.5 48.5q16 46 13 75.5t-31 29.5q-13 0 -28 -11.5t-28.5 -26t-23 -27.5t-10.5 -15q-4 -5 -9.5 -2.5t-0.5 8.5q2 3 14.5 20t30.5 36t40.5 34t45.5 15q30 0 41.5 -18t13 -42.5t-4.5 -48.5t-10 -36h3q11 21 32 46t47.5 46.5t55.5 36.5t57 15q42 0 60 -17
t22.5 -40.5t-0.5 -47.5t-10 -37q-7 -18 -21.5 -55t-30 -75.5t-28 -70.5t-15.5 -40t-9 -25t-7.5 -34t6 -30.5t32.5 -13.5q19 0 34.5 8.5t27.5 21t20 26.5t12 24q3 6 7.5 6t1.5 -8q-2 -5 -10 -23.5t-22.5 -38.5t-36.5 -36.5t-50 -16.5q-36 0 -53.5 12.5t-22 35t2.5 53.5
t20 67.5t30 78t34 84.5z" />
    <glyph glyph-name="o" unicode="o" 
d="M175 -6q-55 0 -85 25t-41.5 63.5t-8 85.5t16.5 91t32 80t37 53q2 2 4 2t2 -3q2 -6 6.5 -16t16.5 -22q5 -5 4 -10.5t-3 -7.5q-30 -47 -48.5 -104.5t-19 -107.5t19.5 -83.5t67 -33.5q32 0 60.5 19t53.5 50.5t45.5 72t37.5 84.5q20 52 30 101t6.5 86t-24 59.5t-61.5 22.5
q-15 0 -30.5 -4t-28 -11.5t-21 -18.5t-8.5 -25q0 -11 4 -18.5t4 -19.5q0 -18 -13 -32t-32 -14t-31.5 13.5t-12.5 32.5q0 16 13 35.5t35.5 36t54 27.5t67.5 11q65 0 96.5 -38.5t35.5 -96.5t-16.5 -125t-58.5 -125t-91 -96.5t-115 -38.5z" />
    <glyph glyph-name="p" unicode="p" horiz-adv-x="509" 
d="M210 378q44 65 88.5 97t83.5 37t69.5 -14t46.5 -56.5t14.5 -90t-25.5 -113.5q-24 -59 -58 -107t-75 -80.5t-87 -48t-94 -7.5q-23 4 -36.5 16.5t-21 27.5t-9 29.5t-0.5 23.5q-17 -48 -32 -92t-27.5 -79.5t-21.5 -61t-12 -35.5q-31 -90 -70 -148t-78.5 -92t-76 -48
t-62.5 -15q-28 -1 -60.5 6t-57.5 19.5t-35 29t8 35.5q5 6 16.5 9t25.5 -8q9 -9 15.5 -21.5t16.5 -24.5t26.5 -20.5t45.5 -8.5q33 -1 65 20t61 55.5t53.5 80t42.5 93.5q15 41 38 106t50 144t57 167.5t59 176.5q16 47 14.5 76t-29.5 29q-13 0 -28 -11.5t-28.5 -26t-23.5 -27.5
t-12 -15q-4 -5 -9 -2.5t-1 8.5q2 3 15 20t32.5 35.5t42.5 34t46 15.5q29 0 40 -15t11.5 -37t-5.5 -45.5t-12 -40.5h4zM429 244q30 80 31 133.5t-17 80t-51.5 28t-71.5 -21.5t-76 -70t-67 -116t-41 -119t-9 -82t20.5 -48t47.5 -19q30 -2 63.5 15.5t65 50t59 76t46.5 92.5z
" />
    <glyph glyph-name="q" unicode="q" horiz-adv-x="489" 
d="M292 -495q-54 0 -78.5 21t-30 53t3 71t19.5 74q30 93 55.5 173t45.5 140q22 70 41 129h-2q-9 -23 -28.5 -52.5t-46 -56t-58 -45t-65.5 -18.5t-57 12t-37.5 31.5t-20.5 43t-6 46.5q0 39 13.5 83t36 86.5t52.5 81.5t63 69t67.5 47.5t65.5 17.5q10 0 25.5 -3.5t30.5 -16.5
t26.5 -38.5t11.5 -68.5l2 -1q23 68 50.5 92.5t55.5 24.5q16 0 15.5 -4t-3.5 -6q-16 -11 -28.5 -30.5t-26 -52.5t-29.5 -81.5t-38 -118.5q-24 -77 -47 -146t-43 -127t-35.5 -103.5t-25.5 -74.5q-14 -40 -25 -82t-12.5 -76t9.5 -56t42 -22q18 0 30.5 6t21.5 14.5t16 18
t15 15.5q10 9 20.5 10t16.5 -4.5t6 -15.5t-11 -22t-27 -19.5t-32 -11.5t-28 -5.5t-16 -1.5zM333 492q-31 0 -62.5 -20t-60.5 -52t-53.5 -73.5t-41.5 -85t-24 -85t-1.5 -73.5t26 -52t59.5 -20q29 0 58 20t55.5 52.5t48 73.5t36.5 83q24 67 27 111.5t-6.5 71.5t-26.5 38
t-34 11z" />
    <glyph glyph-name="r" unicode="r" horiz-adv-x="460" 
d="M168 212q-2 -5 -11 -32.5t-19.5 -59.5t-20 -58.5t-10.5 -30.5q-3 -8 -7.5 -13.5t-14.5 -10.5q-9 -4 -20.5 -8t-13.5 -5q-5 -2 -8 0.5t-1 9.5q1 2 9 26.5t20.5 61t27 80.5t28 85t25 74.5t16.5 48.5q16 46 12.5 75.5t-31.5 29.5q-13 0 -28 -11.5t-28.5 -26t-23 -27.5
t-10.5 -15q-4 -5 -9.5 -2.5t-0.5 8.5q2 3 14.5 20t31 36t40.5 34t45 15q30 0 41.5 -18t12.5 -42.5t-5 -48.5t-10 -36h3q13 21 31.5 46.5t43 47t54 36.5t64.5 15q33 0 55 -22t22 -52q0 -29 -11 -47.5t-26.5 -26.5t-32 -5t-27.5 18q-13 18 -6 40.5t33 29.5q14 4 18.5 12.5
t1 17t-14 15t-25.5 6.5q-27 0 -59.5 -20.5t-64.5 -58.5t-61 -91.5t-49 -119.5z" />
    <glyph glyph-name="s" unicode="s" horiz-adv-x="387" 
d="M399 431q0 -17 -5.5 -29t-14 -18.5t-18.5 -8t-19 1.5q-20 8 -22.5 23t2.5 27q6 13 14 20.5t8 17.5q0 20 -16.5 29t-40.5 9q-19 0 -40 -6.5t-38.5 -18.5t-29 -29.5t-11.5 -39.5q0 -26 12 -49t30 -43.5t38.5 -40.5t38.5 -41t30 -44t12 -50q0 -13 -6.5 -38t-26 -50
t-56 -43.5t-96.5 -16.5q-20 0 -42.5 5t-41.5 17t-31.5 32.5t-12.5 50.5q-1 37 15 52t33 13q15 -2 23.5 -12.5t7.5 -24.5t-4.5 -22.5t-8 -15.5t-8 -14.5t-3.5 -18.5q0 -13 8 -22t19 -14.5t24 -8t22 -2.5q22 0 45 4.5t41.5 17t30.5 35t12 58.5q0 22 -12 42.5t-29.5 40t-38 39
t-38 40t-29.5 42t-12 46.5q0 36 17 63t43.5 45t59.5 26.5t66 8.5q7 0 23 -2.5t33 -11t30 -25.5t13 -46z" />
    <glyph glyph-name="t" unicode="t" horiz-adv-x="288" 
d="M192 518q10 27 15.5 43.5t9.5 28t7 20t8 20.5q12 34 25 56.5t26.5 35.5t27.5 18t28 6q16 1 17.5 -4t0.5 -6q-18 -12 -36 -33.5t-34 -61.5q-5 -13 -16 -43t-29 -81l1 -1h135q8 0 12 -4t3.5 -9.5t-5 -9.5t-12.5 -4h-142q-2 0 -3 -2q-14 -38 -28.5 -79.5t-28 -79.5
t-24 -69.5l-16.5 -49.5q-8 -24 -18 -54.5t-13.5 -57.5t3 -46t31.5 -20q15 -1 29 6.5t25.5 19t21 25.5t17.5 28q2 4 5.5 2.5t1.5 -6.5q-7 -20 -19.5 -40.5t-29.5 -37t-37.5 -26.5t-44.5 -9q-38 1 -50.5 23.5t-11.5 52t10 57t13 39.5q2 6 10 28t19.5 53.5t25 70t25.5 76.5
q3 9 7.5 25.5t6 32.5t-2.5 27.5t-17 11.5q-10 0 -14 4t-3.5 9t4.5 9t12 4h49q2 0 3 2z" />
    <glyph glyph-name="u" unicode="u" horiz-adv-x="551" 
d="M352 142q-10 -18 -29.5 -43.5t-46 -49.5t-60 -40.5t-70.5 -15.5q-38 1 -59 14t-30 33t-6.5 45.5t12.5 51.5q15 36 32 75t32 73.5t26.5 61t15.5 36.5q20 48 17 76t-31 29q-13 0 -28.5 -11.5t-29 -26t-23.5 -27.5t-11 -15q-5 -5 -10 -2.5t0 8.5q2 3 15 20t32 35.5t42 34
t46 15.5q16 0 29.5 -6.5t20.5 -22.5t4.5 -43.5t-18.5 -69.5q-12 -32 -30.5 -70.5t-35.5 -77t-30.5 -75.5t-15.5 -66t10 -47.5t46 -20.5q28 -2 56.5 13t55.5 42t51.5 64.5t43.5 81.5q18 39 33.5 78.5t32.5 85.5q13 34 27 57.5t28 38t28.5 21t28.5 7.5q8 0 11.5 -1t4 -3
t-0.5 -4t-2 -2q-16 -11 -29.5 -32t-28.5 -55t-33.5 -84t-42.5 -120q-8 -25 -18.5 -54.5t-14 -56t2.5 -45t31 -21.5q14 -1 28 6t26 19t22 26t17 28q4 4 6.5 2.5t0.5 -6.5q-7 -20 -20.5 -40.5t-31 -37t-39 -26.5t-45.5 -9q-28 1 -42 15.5t-17 36t2 47.5t14 50h-2v0z" />
    <glyph glyph-name="v" unicode="v" horiz-adv-x="433" 
d="M431 362q0 -26 -7.5 -63.5t-23 -78.5t-39 -81t-56 -72.5t-74.5 -52.5t-93 -20q-29 0 -48 8.5t-31 22t-17 31.5t-5 38q0 31 16 72t37.5 84.5t44.5 86t37 76t14 54t-23 20.5q-16 0 -40 -21.5t-49 -56.5q-5 -6 -10 -2.5t0 10.5q10 13 23.5 29.5t30.5 31.5t38 25.5t46 10.5
q21 0 32.5 -10.5t11.5 -35.5q0 -21 -11 -50t-27.5 -62t-35.5 -69t-35.5 -70.5t-27.5 -66t-11 -56.5q0 -15 3 -29t10.5 -25t21 -18t33.5 -7q50 0 94 34.5t76.5 85.5t51.5 108.5t19 104.5q0 36 -9 55.5t-19.5 31.5t-20.5 21t-11 24q-2 19 6.5 30t25.5 11q29 0 40.5 -43
t11.5 -116z" />
    <glyph glyph-name="w" unicode="w" horiz-adv-x="691" 
d="M703 386q0 -34 -8 -76.5t-24.5 -87t-41 -86t-55.5 -74t-69.5 -51.5t-82.5 -17q-60 2 -80.5 29t-12.5 70q-45 -45 -94.5 -73.5t-97.5 -25.5q-57 3 -80.5 33t-22.5 70q1 32 19 73t42.5 84t50 84t42 73.5t18 53t-21.5 22.5q-17 2 -42 -20.5t-51 -57.5q-4 -6 -9 -2.5t0 10.5
q10 13 26 30.5t35.5 33.5t41 26t42.5 7q33 -5 37 -29.5t-10 -61t-39.5 -81.5t-51 -90.5t-45 -87.5t-20.5 -73q-1 -15 1.5 -28t10 -23.5t20.5 -16.5t33 -6q29 0 59.5 15.5t60 42t56 61t47 71.5t33.5 74.5t15 70.5q2 32 -1.5 50.5t-9 31t-11 22.5t-8.5 25q-2 9 4 18.5t16 13.5
t22 0t21 -22q8 -17 13 -45.5t2 -69.5q-3 -37 -12.5 -71.5t-21.5 -63.5t-23 -51t-15 -32q-11 -26 -18 -51t-4 -45t18 -32.5t48 -12.5q29 0 57 17.5t53.5 47t46.5 68t36.5 78t22.5 78t5 69.5q-3 32 -11.5 49t-17.5 27t-16.5 17t-9.5 20q-4 18 8.5 28.5t27.5 11.5q26 2 36 -34
t11 -108z" />
    <glyph glyph-name="x" unicode="x" horiz-adv-x="523" 
d="M584 550q14 0 25.5 -8.5t10.5 -24.5q-1 -17 -11.5 -25.5t-24.5 -8.5q-12 0 -21 7.5t-22.5 9.5t-35.5 -8t-60 -46l-24 -24t-37 -38t-46.5 -49t-53.5 -57q13 -39 25.5 -76t23.5 -64q9 -23 16.5 -43t15 -34.5t17 -23t22.5 -8.5q18 0 34 10t27.5 23.5t19 26t9.5 16.5
q3 8 6.5 7t1.5 -9q-2 -3 -11 -21t-25.5 -37.5t-40 -35.5t-54.5 -16q-17 0 -28 7t-18 16t-11 19t-6 16q-2 5 -8 22.5t-15 42t-20 55t-23 62.5q-39 -42 -77 -83t-70 -76t-55.5 -61t-33.5 -36q-59 -64 -119.5 -94t-112.5 -14q-39 12 -28 39q9 23 36 15q8 -2 16 -8.5t18.5 -12
t25.5 -7t36 7t49 29t66 59.5q13 14 39.5 42.5t59.5 65t70 77t72 79.5q-12 33 -23.5 65t-20.5 57.5t-15.5 42.5t-7.5 21q-5 13 -11 24.5t-17.5 11.5t-30 -15t-47.5 -55q-5 -8 -11 -6t-1 9q39 58 69 81t52 22t36.5 -20t22.5 -46q4 -14 17 -55t30 -92q20 22 37 40t31 32
q32 33 66 65t65.5 57t59.5 40.5t49 15.5z" />
    <glyph glyph-name="y" unicode="y" horiz-adv-x="508" 
d="M537 509q17 0 17 -4t-3 -6q-16 -11 -29.5 -31.5t-27 -55t-30 -84.5t-38.5 -120q-23 -72 -45.5 -138t-42.5 -120q-49 -128 -106.5 -214t-117.5 -138.5t-119.5 -75t-113.5 -22.5q-82 0 -135.5 32.5t-78 80.5t-18.5 104t43 103.5t106.5 78t171.5 27.5q12 0 17 -7t4 -14.5
t-8 -13t-20 -3.5q-17 3 -28.5 9.5t-34.5 6.5q-62 0 -107 -28.5t-70 -71.5t-29 -93.5t15 -93.5t62 -71.5t112 -28.5q45 0 94.5 18t97.5 58.5t92.5 104t80.5 155.5q26 67 43 111t28 75t18 54t13 49h-2q-9 -18 -27.5 -43.5t-44 -49t-57.5 -40t-69 -16.5t-59.5 13t-32.5 33.5
t-9 46t10 51.5q13 36 29 75.5t30 74t24.5 60.5t14.5 36q19 48 14.5 76t-32.5 29q-13 0 -28 -11.5t-28.5 -26t-23 -27.5t-10.5 -15q-4 -5 -9.5 -2.5t-0.5 8.5q2 3 14.5 20t31 35.5t40.5 34t45 15.5q15 0 29 -6.5t22 -22.5t7 -43.5t-16 -69.5q-11 -32 -28.5 -71t-33.5 -78.5
t-28 -77t-12.5 -66.5t13.5 -46.5t50 -17.5q27 0 54 15t53 42t48.5 63.5t40.5 80.5q17 39 30.5 78.5t29.5 85.5q24 69 52 96.5t56 27.5z" />
    <glyph glyph-name="z" unicode="z" horiz-adv-x="455" 
d="M394 427q10 0 18 5.5t15 14t13.5 18.5t14.5 19q14 17 26.5 21t19.5 -0.5t7 -16t-10 -26.5q-15 -23 -29.5 -36t-29 -22.5t-30.5 -20t-35 -27.5q-13 -11 -39.5 -35.5t-59.5 -55.5t-69 -64t-67.5 -62.5t-55 -51.5t-31.5 -29q18 12 33.5 20t31 13t32.5 7.5t37 2.5
q44 0 72 -22t46.5 -54.5t32 -70.5t28 -70.5t34.5 -54.5t52 -22q16 0 32 9.5t30.5 23.5t26.5 30t21 29q7 10 12 6t-2 -15q-3 -5 -16.5 -24t-34.5 -39.5t-48.5 -37t-59.5 -16.5q-30 0 -50.5 23t-37 57.5t-31.5 74.5t-33.5 74.5t-43.5 57.5t-61 23q-21 0 -39 -8t-34 -21
t-30.5 -28t-27.5 -28q-17 -16 -32 -19.5t-24 2t-8 17.5t17 28q6 6 27 25t51 45.5t66.5 59t73.5 65.5t72.5 65t62.5 57t44 41t18 19q-20 9 -36 18.5t-33 18t-36.5 14t-44.5 5.5q-37 0 -76.5 -20.5t-65.5 -71.5q-3 -5 -7 -6.5t-7 -0.5t-4 4.5t3 9.5q11 18 26.5 42.5t35 46.5
t43 37.5t52.5 15.5q26 0 46.5 -14t38.5 -30.5t34 -30.5t33 -14z" />
    <glyph glyph-name="braceleft" unicode="{" horiz-adv-x="618" 
d="M731 1153q-46 -32 -82.5 -86.5t-70 -119.5t-68 -135.5t-76.5 -133.5t-95.5 -112.5t-125.5 -73.5q27 -5 45.5 -28.5t24.5 -67t-1.5 -109t-30.5 -154.5q-29 -110 -34.5 -184.5t2.5 -124.5t25 -80.5t33 -51.5q11 -14 22.5 -22.5t21 -14.5t17 -10.5t10.5 -9.5q7 -11 -3 -18
t-20 2q-44 41 -72.5 83t-45.5 85t-23.5 86t-6.5 87q0 63 10.5 123.5t23.5 115.5t23.5 103t10.5 85q0 19 -3.5 37t-13 32t-26 23t-41.5 9q-8 0 -7 4.5t7 4.5q54 0 96 30t78 79.5t68.5 113t68 130t76.5 131.5t93.5 117t119 86.5t153.5 40.5q11 1 16.5 -3.5t6 -10t-4.5 -10.5
t-14 -5t-24.5 3.5t-38 2t-53.5 -11.5t-71 -37z" />
    <glyph glyph-name="bar" unicode="|" horiz-adv-x="333" 
d="M381 1193q8 2 11.5 1t4.5 -2.5t0 -3.5t-2 -3q-17 -17 -29 -48t-24 -87q-1 -6 -8.5 -48t-19.5 -109.5t-27 -155t-32.5 -186.5t-35.5 -203.5t-35.5 -205t-33.5 -192.5t-29 -165t-21.5 -123t-11.5 -66q-13 -72 -36.5 -103.5t-46.5 -37.5q-8 -3 -12 -2t-4.5 2.5t0 4t1.5 2.5
q17 17 28.5 47.5t23.5 83.5q2 8 12 65t26 146.5t35.5 203.5t41 237t43 247t40.5 233t34.5 194.5t23.5 132.5q13 72 37.5 104.5t45.5 36.5z" />
    <glyph glyph-name="braceright" unicode="}" horiz-adv-x="658" 
d="M6 -313q46 31 83 86t70.5 120t68 135.5t76.5 133.5t95.5 112.5t125.5 73.5q-27 5 -45.5 28.5t-24.5 67t1.5 109t30.5 154.5q29 109 34.5 184t-2.5 125t-25.5 80t-33.5 51q-11 14 -22 23t-21 15l-17.5 10.5t-10.5 9.5t-1.5 10t5.5 8t9 2.5t10 -4.5q44 -41 73 -83t46 -85
t23.5 -86.5t6.5 -86.5q0 -63 -10.5 -123.5t-23.5 -115.5t-23.5 -103t-10.5 -85q0 -19 3.5 -37t13 -32.5t26 -23t41.5 -8.5q8 0 7 -4.5t-7 -4.5q-54 0 -96 -30t-78 -79.5t-68.5 -113t-68 -130t-76.5 -131.5t-93.5 -117.5t-119 -87t-153.5 -40.5q-11 -1 -16.5 3.5t-6 10
t4.5 10.5t14 5t24.5 -3.5t38 -2t53 12t70.5 37.5z" />
    <glyph glyph-name="asciitilde" unicode="~" horiz-adv-x="833" 
d="M307 595q-20 3 -20 27q0 13 10.5 24t25.5 18t31 11t27 4q23 0 36 -6t23 -13.5t20 -13.5t28 -6q19 0 31.5 8.5t23 18.5t20.5 18.5t24 8.5q8 0 14 -8t4 -21q-3 -12 -12 -22.5t-22 -18t-27.5 -11.5t-28.5 -4q-18 0 -30.5 6t-24 13.5t-23.5 14t-29 6.5q-23 0 -35.5 -9.5
t-21.5 -20t-18.5 -18.5t-25.5 -6z" />
    <glyph glyph-name="exclamdown" unicode="&#xa1;" horiz-adv-x="385" 
d="M232 301q8 0 11.5 -1t4 -3t-0.5 -4t-2 -3q-20 -14 -35.5 -45t-30.5 -84q-57 -194 -116 -351t-130 -267t-158 -169.5t-199 -59.5q-49 0 -74 12.5t-20 29.5q4 14 17 14.5t26 -4.5q44 -19 93 -25t101.5 18t108 88t112.5 185q12 24 27 61t30.5 81.5t32.5 95t33.5 102
t32 102.5t29.5 97q20 69 49 98.5t58 31.5zM264 503q17 0 29 -12t12 -29t-12 -29t-29 -12t-29 12t-12 29t12 29t29 12z" />
    <glyph glyph-name="cent" unicode="&#xa2;" horiz-adv-x="423" 
d="M429 472q3 -5 2 -9.5t-4.5 -6.5t-8.5 0t-9 10q-9 15 -26.5 25t-38.5 13q-15 -51 -31.5 -110.5t-34 -121.5t-35 -123.5t-33.5 -116.5q27 3 51 16.5t45 34t38.5 46t31.5 53.5q4 8 9 7t2 -10q-7 -21 -23.5 -49.5t-41.5 -56t-56 -49.5t-67 -29q-12 -41 -21.5 -75.5t-17 -60
t-12 -41t-5.5 -17.5q-5 -11 -9.5 -19.5t-19.5 -19.5q-8 -6 -5 5q0 1 5 18t13.5 47t20 71t25.5 89q-30 0 -56.5 9.5t-46 29t-30.5 50t-11 71.5q0 39 12 81t32.5 83t49 77.5t61 64t68.5 44t72 16.5q18 63 28.5 101t11.5 39q8 29 30 37q5 2 1 -12q-2 -8 -15 -52.5t-33 -113.5
q29 -4 50 -16t32 -29zM320 505q-46 -3 -88 -38.5t-74 -87t-51 -111.5t-19 -111.5t22.5 -87t74.5 -38.5q16 58 34 121t36 125.5t34.5 120.5t30.5 107z" />
    <glyph glyph-name="sterling" unicode="&#xa3;" horiz-adv-x="1229" 
d="M1152 -103q9 -36 -14.5 -73t-69 -66.5t-108 -48.5t-131.5 -19q-83 0 -151.5 30t-126 75t-106.5 96t-94 93q-32 -21 -69 -33t-82 -12q-40 0 -68 11.5t-42.5 28t-15.5 36.5t12 36.5t40 27.5t69 11q44 -1 84 -20.5t81 -51.5q46 47 79 123t67 177q-28 17 -55.5 31t-62.5 18
q-41 4 -73 -9t-49.5 -34.5t-19 -48t18.5 -49.5q8 -9 17.5 -12.5t18.5 -4.5t17 -0.5t14 -1.5q7 -2 9.5 -7t1 -10t-7.5 -8.5t-15 -2.5q-21 3 -40 13t-32 26t-19 35.5t-3 40.5q7 41 51.5 66.5t113.5 25.5q39 0 69 -10.5t57 -24.5q27 88 52.5 153.5t51 112.5t50.5 78t50 50.5
t51 29.5t53 15q47 8 80.5 -6t48.5 -28q10 -9 10.5 -18t-4.5 -15t-14.5 -6t-18.5 9q-7 7 -15 16.5t-19.5 17.5t-28 13t-40.5 2q-36 -4 -65 -26t-53.5 -56.5t-44.5 -78.5t-37.5 -92.5t-33.5 -98.5t-31 -96q20 -11 42 -20t47.5 -13.5t56 -2.5t69.5 13q12 4 14 -2t-9 -10
q-42 -15 -75.5 -20t-61.5 -3.5t-51 8.5t-43 17q-12 -36 -29 -76.5t-38 -79t-47 -73.5t-57 -61q32 -26 65 -57.5t69 -65.5q38 -35 76 -67t77.5 -56.5t81 -38.5t85.5 -12q85 3 143.5 26.5t91.5 55t42 66t-5 59t-49 33.5t-90 -10q-20 -7 -28.5 -15.5t-13.5 -14.5
q-5 -5 -10.5 -5.5t-9.5 2t-4.5 7t5.5 10.5q6 5 24 14t43.5 17t54 12t54 -0.5t45.5 -20t28 -46.5zM208 -44q39 0 70.5 10.5t57.5 30.5q-36 32 -70.5 52.5t-69.5 20.5q-48 0 -69.5 -18t-19 -39t28 -39t72.5 -18z" />
    <glyph glyph-name="fraction" unicode="&#x2044;" horiz-adv-x="458" 
d="M650 1208q14 -15 15.5 -55.5t-28.5 -106.5q-20 -44 -53.5 -115.5t-74.5 -159t-87 -186t-91.5 -195t-87 -185.5t-74 -159t-53.5 -114.5t-24 -52.5q-21 -51 -29 -82.5t-3 -54.5q0 -1 -0.5 -3.5t-2 -3.5t-5 0.5t-9.5 8.5q-7 9 -11.5 23t-4.5 34.5t6.5 46.5t21.5 59
q9 19 36 77.5t66 141t86 182.5t95.5 202.5t94 199.5t81.5 174.5t59.5 127t26.5 57.5q22 52 30 84.5t3 56.5q0 2 2.5 6.5t14.5 -8.5z" />
    <glyph glyph-name="yen" unicode="&#xa5;" horiz-adv-x="1094" 
d="M1219 804q24 -1 33 -7.5t8 -13t-8.5 -12t-14.5 -3.5q-9 2 -15 5.5t-13.5 7t-18 5t-28.5 -0.5q-10 -2 -29 -7t-45 -15.5t-57.5 -26.5t-66.5 -39q-83 -56 -170.5 -143.5t-175.5 -210.5h280q7 0 8.5 -1.5t-0.5 -3.5q-17 -9 -27.5 -11.5t-18.5 -2.5h-255q-4 -4 -12 -16.5
t-17 -28.5t-18 -33t-15 -30h287q6 0 7.5 -1.5t-0.5 -3.5q-17 -9 -27.5 -11.5t-17.5 -2.5h-258q-17 -36 -32.5 -74t-32.5 -76q-4 -10 -12 -24.5t-17 -17.5q-9 -4 -16 -6t-15 -5q-4 -1 -7.5 1t0.5 9q1 2 8.5 19t19 44t25.5 60.5t29 69.5h-279q-3 0 -4 1.5t1 2.5q13 8 26.5 11
t22.5 3h22.5h53.5t75.5 0.5t88.5 0.5q12 29 22.5 56.5t19.5 51.5h-259q-4 0 -5 1.5t1 2.5q14 8 27 11t23 3h219q10 31 21.5 74.5t19 91t6.5 93.5t-16 82.5t-48 58t-89 20.5q-67 -3 -120 -33.5t-85 -73t-40 -89.5t16 -84q10 -15 19.5 -22t19.5 -9t21 0t24 5q10 3 16.5 -1
t8 -10.5t-3.5 -12.5t-18 -8q-21 -3 -44.5 2t-43.5 20t-34.5 40.5t-15.5 63.5q-1 37 18 77.5t55.5 74t88.5 56t116 22.5q62 0 110.5 -21t74 -71t22.5 -134t-45 -210q20 29 56.5 75t85 98t107 104.5t121.5 93.5t128.5 66t127.5 23z" />
    <glyph glyph-name="florin" unicode="&#x192;" horiz-adv-x="354" 
d="M238 473q-10 -32 -27.5 -88.5t-38.5 -124t-43.5 -139t-41.5 -133.5t-33.5 -107t-18.5 -60q-29 -90 -66.5 -148t-76.5 -92.5t-75.5 -48t-62.5 -13.5q-28 0 -60.5 7t-57 19t-35 28t6.5 35q6 6 17.5 9.5t25.5 -8.5q9 -9 16 -21.5t17.5 -24.5t27 -20.5t45.5 -8.5
q34 0 65.5 21t59 55.5t50 79.5t39.5 94q50 145 94.5 292.5t92.5 308.5q10 34 5 52t-19 26t-33.5 9t-38.5 1q-10 0 -14 4t-4 9t4.5 9t11.5 4h122q32 106 66 178t71 115.5t76.5 62.5t82.5 19q64 0 95.5 -25t33.5 -55q1 -15 -8 -24t-19 -12q-11 -2 -24 2.5t-20 21.5
q-4 11 -7 24t-10 24.5t-21 19t-40 7.5q-45 0 -77.5 -32.5t-57.5 -83.5t-45.5 -115t-40.5 -127h161q8 0 12 -4t3.5 -9.5t-5 -9.5t-12.5 -4h-27.5t-50 0.5t-53.5 0.5h-37z" />
    <glyph glyph-name="section" unicode="&#xa7;" horiz-adv-x="656" 
d="M496 756q25 0 53.5 -5.5t52.5 -19t39.5 -37t14.5 -58.5q-1 -19 -9.5 -30t-21 -15.5t-25.5 -2.5t-23 11q-15 13 -12 34.5t22 32.5q8 5 11 14.5t-3 19.5q-7 12 -30.5 26.5t-69.5 13.5q-26 0 -53 -7.5t-50 -22t-38.5 -36t-17.5 -49.5q-2 -38 16 -72t46.5 -66t62 -62.5
t61.5 -61t46 -62t16 -65.5q-3 -35 -19 -65t-43 -53t-63.5 -38.5t-79.5 -19.5q23 -27 37 -55t12 -57q-3 -38 -21.5 -70.5t-50 -56t-73.5 -37t-91 -13.5q-52 0 -88 9.5t-58.5 25t-33.5 34.5t-14 38t0 35t9 26q9 14 28 20t36 -6q18 -13 17.5 -31.5t-9.5 -30.5q-5 -6 -11 -10.5
t-11 -9.5t-6.5 -11.5t3.5 -15.5q11 -20 46 -38t95 -18q47 0 80.5 12t55 32t32 45t12.5 52q2 31 -16 62t-46 61t-61 60t-61 60.5t-46.5 61.5t-16.5 63q2 42 23.5 73.5t52.5 53.5t67 33t69 11q-17 18 -29 37q-11 17 -20 37.5t-7 42.5q2 42 23.5 73.5t52.5 53t67 33t69 11.5z
M531 217q2 30 -15 60t-43.5 59t-58.5 58.5t-60 58.5q-29 1 -59 -7t-55 -23t-41.5 -36.5t-18.5 -49.5q-2 -38 16 -72t46 -66t61.5 -62.5t61.5 -60.5q43 2 74 14.5t51 32t29.5 44t11.5 50.5z" />
    <glyph glyph-name="currency" unicode="&#xa4;" horiz-adv-x="893" 
d="M486 135q-6 -11 -19.5 -17.5t-24.5 -11.5q0 -11 8 -12q8 -2 15 3t12 13q1 0 1 1l1 1v-2v-2q-3 -7 -15.5 -16.5t-23.5 -4.5q-9 4 -10 13t3 19t11.5 19t16.5 14q6 3 13 3q8 -1 12.5 -6.5t-0.5 -13.5zM468 150q-11 -5 -18.5 -17t-7.5 -23q10 3 22 12t14 14q3 8 0.5 12.5
t-10.5 1.5zM472 169l-4 -2t-4 -1q-3 0 -1 2q7 5 10.5 13t-1.5 16t-14.5 11t-18.5 5q-14 3 -32.5 2.5t-37.5 -3.5t-37.5 -8t-32.5 -11l-27 -79q-3 -9 -3.5 -15.5t3.5 -6.5t6 3l4 6l1 1h1q1 0 1 -2q-2 -5 -7 -10t-12 -5q-10 0 -9.5 10.5t7.5 26.5q3 8 9.5 28.5t13.5 39.5
q-12 -5 -21 -6.5t-17 -1.5q-4 0 -12 2q-6 2 -8 4q-6 5 -8 12q-3 13 4 24q3 7 11 13q2 2 7 4t9 1q4 0 4 -3q2 -5 -5 -7q-4 0 -6 1q-4 3 -7.5 0t-6.5 -7q-4 -5 -5.5 -12t0.5 -14q0 -2 4 -8q2 -1 3 -2t3 -2q6 -2 13 -2q8 0 17 2t23 7q5 12 7.5 20.5t2.5 9.5q2 4 6 6.5t6 3.5
q2 0 2 -1t-1 -2l-11 -33q17 5 40 11t37 8q17 2 33.5 3t33.5 -2q9 -2 20 -5t16 -11q6 -8 2.5 -17.5t-11.5 -16.5zM176 -41q41 -3 68 10t44.5 35t27.5 49t17 51v1q-5 -5 -11.5 -12.5t-14.5 -7.5q-7 0 -9.5 3.5t-2.5 7.5t2.5 11t5.5 14.5t5.5 14t2.5 9.5t-2 3q-5 0 -8 -4.5
t-5 -4.5q-1 0 -1 1v1q2 3 5 7q2 2 5.5 4.5t6.5 2.5q10 0 8 -10q-2 -14 -8.5 -24.5t-6.5 -23.5q0 -5 5 -5q6 0 12.5 6t9.5 11q4 7 6.5 14t5.5 15q3 9 6.5 12t8.5 3h1l1 -1q-1 0 -5 -9.5t-14 -38.5q-6 -18 -15.5 -45t-27.5 -51t-47.5 -40t-76.5 -13q-18 1 -36 9t-32.5 20.5
t-23 30.5t-7.5 40t10.5 42t24.5 34t34.5 22t41.5 7t36.5 -8t23 -17.5t11 -23t0.5 -23.5q-3 -11 -10.5 -26.5t-22.5 -29t-38.5 -21t-59.5 -1.5q-5 2 -3 5q1 2 4 2q2 0 4 -2.5t7 -3.5q13 -2 30 0.5t33 10.5t29 24t20 43q1 9 -1.5 20.5t-10 21.5t-20.5 17.5t-32 8.5
q-20 1 -38 -7t-32.5 -21.5t-23.5 -32.5t-10 -40q-2 -21 6.5 -38.5t22 -30t30.5 -20t34 -8.5zM538 107q16 28 42 35.5t48 6.5q16 -1 32.5 -9t34 -18t35.5 -18t38 -9q12 0 24 4t21.5 11.5t16 19t6.5 25.5t-6.5 23t-15 14t-17 7t-11.5 2q-7 1 -9.5 -1t-4.5 -2q-3 0 -3 3t3 4
q34 2 52.5 -12t18.5 -37t-18.5 -43.5t-56.5 -20.5q-20 0 -38.5 7.5t-36 17.5t-33 18t-30.5 10q-33 3 -55.5 -10t-29.5 -27q-3 -6 -3.5 -14t7.5 -10q11 -2 24 11t13 28q0 10 -5 16t-11.5 9t-14 3.5t-13.5 -0.5q-12 -2 -25 -12t-14 -32q0 -14 7 -23t15 -17.5t14.5 -17
t4.5 -21.5q-2 -16 -15.5 -23.5t-21.5 -9.5q-11 -2 -20 3t-8 18q0 9 5.5 17t13.5 13q10 8 24 8q-11 10 -21.5 23.5t-7.5 33.5q2 12 7.5 19.5t13 12.5t15 7.5t13.5 3.5q7 1 15.5 0.5t16 -4t12 -10t4.5 -17.5q0 -6 -3 -14t-9 -14.5t-14 -11t-18 -2.5q-11 2 -11 11.5t3 14.5z
M500 43q-7 -5 -12 -12t-5 -15q-1 -11 7.5 -14.5t17.5 -1.5t17 10t9 19q0 10 -8 21q-13 1 -26 -7zM607 47q-6 -11 -19.5 -17.5t-25.5 -11.5q2 -10 9 -12q8 -2 15 3.5t12 13.5q1 0 1 1l1 1v-2q0 -1 -1 -2q-1 -4 -5 -8.5t-9.5 -8.5t-11.5 -5.5t-12 0.5q-9 4 -10 13.5t3 19.5
t11.5 19t16.5 13q6 3 13 3q8 -1 12.5 -6.5t-0.5 -13.5zM588 62q-11 -6 -18 -17.5t-7 -22.5q8 4 21 12.5t15 14.5q3 7 0 12t-11 1zM651 27q5 12 7.5 17t2.5 11t-5 6q-7 0 -14 -9.5t-12 -21.5q-2 -7 -4 -11.5t-4 -8.5t-3 -8l-1 -2q-1 0 -2.5 -0.5t-3.5 -0.5q-2 -1 -4 -1l-1 1
q1 4 3 8t3.5 8t3.5 9q4 11 10 25q2 3 2 6q0 6 -4 6q-2 0 -7 -5q-2 -2 -3 -4l-2 -1q-1 0 -1 1v2q2 3 5 7q2 2 5.5 4.5t6.5 2.5q4 0 7 -2.5t2 -7.5t-3 -10h1q3 5 9 12t14 7q7 0 9.5 -3.5t2.5 -7.5q0 -3 -2 -9t-4.5 -13t-4.5 -12.5t-3 -7.5q-1 0 -1 -1v-3q0 -5 5 -5t7 5t4 5
q1 0 2 -1v-1q-2 -5 -6.5 -10t-12.5 -5q-6 0 -7.5 4t-1 9t2 9.5t2.5 6.5zM730 56q0 -10 -8 -10q-6 0 -6 7q0 3 2.5 4.5t2.5 3.5t-3 2.5t-5 0.5q-5 0 -9.5 -2.5t-4.5 -7.5t3.5 -9t7.5 -8t7.5 -8.5t3.5 -10.5q0 -4 -3.5 -12t-20.5 -8q-8 0 -15 3t-7 11q0 10 8 10q7 0 7 -7
q0 -3 -2 -4.5t-2 -3.5t3 -4t6 -2q4 0 10 2.5t6 11.5q0 4 -3.5 8t-8 8t-8 8t-3.5 9q0 12 9.5 15.5t17.5 3.5q2 0 8.5 -1.5t6.5 -9.5zM785 47q-6 -11 -19.5 -17.5t-24.5 -11.5q0 -9 8 -12q8 -2 15 3.5t12 13.5q1 0 1 1l1 1v-2v-2q-2 -4 -6 -8.5t-9.5 -8.5t-11.5 -5.5t-12 0.5
q-9 4 -10 13.5t3 19.5t11.5 19t16.5 13q6 3 13 3q8 -1 12.5 -6.5t-0.5 -13.5zM767 62q-11 -6 -18.5 -17.5t-7.5 -22.5q9 4 21.5 12.5t14.5 14.5q3 7 0.5 12t-10.5 1zM825 48q-2 2 -2 5q0 4 3 6h1q2 2 1 3q-2 3 -7 3q-2 0 -6 -1.5t-6 -6.5q-6 -10 -5.5 -24t2.5 -28.5t3 -28.5
t-5 -24q-2 -4 -8.5 -10t-17.5 -6q-9 0 -15.5 4.5t-2.5 15.5q1 5 8 5q2 0 4 -2q2 -3 -1.5 -6.5t-0.5 -8.5l2.5 -2.5t5.5 -0.5q9 0 15 11q6 10 5.5 23.5t-2.5 28t-3.5 27.5t3.5 21q5 11 13 13.5t14 2.5q2 0 9 -2t5 -13q-1 -3 -4.5 -5.5t-7.5 0.5zM357 79q5 16 10 31t10 31
q1 5 -1 7q-4 1 -11 -6q-1 -1 -2 0q-2 2 -1 2t1 1q5 4 9.5 7.5t9.5 1.5t5 -7t-2 -11q9 14 18 16.5t12 1.5q4 -1 9 -8t-2 -29q-6 -17 -17 -25t-22 -6q-10 2 -10 13q-1 -2 -3 -9.5t-4 -10.5q-6 -17 -15 -36.5t-23.5 -36t-36 -28t-52.5 -11.5q-27 2 -45.5 16.5t-17.5 40.5
t20.5 39.5t39.5 14.5q7 0 16.5 -2t17.5 -7.5t13 -15t4 -24.5q-1 -4 -5 -4q-4 2 -3 5q0 2 1.5 3t1.5 7q-1 11 -12.5 23t-34.5 12q-26 0 -39.5 -16t-13.5 -35.5t13.5 -36t43.5 -17.5q35 -2 66.5 22t51.5 87zM411 148q-5 1 -9 -1t-8 -6t-9 -13q-4 -6 -7 -18.5t2 -17.5
q6 -6 15 1t16 24q9 27 0 31zM434 35q-3 -1 -9.5 1t-6.5 10q-1 5 3 10t11 6t13.5 -2.5t7.5 -11.5q1 -12 -5.5 -17t-14.5 -9t-14.5 -8t-6.5 -14q0 -5 5 -6.5t8 3.5q1 3 0 3.5t-1 2.5q2 2 3 1q3 0 0 -6q-1 -3 -3.5 -4.5t-4.5 -1.5q-1 0 -5 1t-4 8q0 9 6 13t13 7.5t13 9t6 16.5
q0 7 -5.5 10.5t-10.5 2.5q-8 0 -11.5 -9t4.5 -13q4 -2 5 -0.5t3 2.5q2 0 2.5 -2t-1.5 -3zM405 29q-2 3 0.5 4.5t4.5 -1.5q1 -2 1.5 -3.5t4.5 -0.5q5 1 7 5.5t1.5 10t-5 9.5t-12.5 4q-2 0 -9 -3t-7 -14t9 -17.5t11 -15.5q1 -6 -1 -6q0 7 -3.5 11t-8 7.5t-8 7.5t-4.5 10
q-2 9 4 14.5t15 6.5q20 3 22 -14q1 -14 -9 -16t-13 1z" />
    <glyph glyph-name="quotesingle" unicode="'" horiz-adv-x="49" 
d="M153 606q39 24 51.5 45t11.5 40t-7.5 36.5t-4.5 34.5q3 25 18 32t25 6q7 0 22.5 -8t16.5 -29q0 -29 -13.5 -55.5t-33.5 -48.5t-42 -38.5t-37 -24.5q-8 -5 -11 0.5t4 9.5z" />
    <glyph glyph-name="quotedblleft" unicode="&#x201c;" horiz-adv-x="435" 
d="M432 788q-40 -24 -52 -45t-11.5 -40t7.5 -36.5t5 -34.5q-2 -13 -7 -20.5t-11.5 -11.5t-13 -5t-11.5 -1q-4 0 -10.5 2t-13 6t-11 11t-4.5 18q0 29 13.5 56t33 49t41.5 38t37 24q9 5 12 -0.5t-4 -9.5zM279 788q-40 -24 -52 -45t-11.5 -40t7 -36.5t4.5 -34.5
q-2 -13 -6.5 -20.5t-11 -11.5t-13.5 -5t-12 -1q-3 0 -9.5 2t-13 6t-11 11t-4.5 18q0 29 13.5 56t33 49t41.5 38t37 24q9 5 12 -0.5t-4 -9.5z" />
    <glyph glyph-name="guillemotleft" unicode="&#xab;" horiz-adv-x="788" 
d="M824 503q-23 -30 -64.5 -58.5t-96 -54t-121 -47t-139.5 -37.5q39 -21 85 -50.5t84.5 -66t62 -79.5t17.5 -91q-1 -8 -8.5 -12t-16.5 -5.5t-16 -1t-7 2.5q6 33 -4.5 63.5t-31 58.5t-49.5 53t-60 47t-62.5 39.5t-56.5 30.5q-8 4 4 8.5t32 9.5q43 11 97 24.5t109 34.5
t107 52.5t93 78.5h42zM128 306q39 -21 85 -50.5t84.5 -66t62 -79.5t17.5 -91q-1 -8 -8.5 -12t-16.5 -5.5t-16 -1t-7 2.5q6 33 -4.5 63.5t-31 58.5t-49.5 53t-60 47t-62.5 39.5t-56.5 30.5q-8 4 4 8.5t32 9.5q43 11 97 24.5t109 34.5t107 52.5t93 78.5h42
q-23 -30 -64.5 -58.5t-96 -54t-121 -47t-139.5 -37.5z" />
    <glyph glyph-name="guilsinglleft" unicode="&#x2039;" horiz-adv-x="516" 
d="M130 306q39 -21 85 -50.5t84.5 -66t62 -79.5t17.5 -91q-1 -7 -8.5 -11t-16.5 -5.5t-16 -1t-7 1.5q6 33 -4.5 63.5t-31 58.5t-49.5 53.5t-60 47t-62.5 39t-56.5 30.5q-8 4 4 8.5t32 9.5q43 11 97 24.5t109 34.5t107 52.5t93 78.5h42q-23 -30 -64.5 -58.5t-96 -54t-121 -47
t-139.5 -37.5z" />
    <glyph glyph-name="guilsinglright" unicode="&#x203a;" horiz-adv-x="521" 
d="M99 17q-3 -6 -11 -9.5t-17 -5t-16 -1t-6 2.5q28 54 71.5 98t96 80.5t110 65.5t113.5 52q-32 7 -71.5 24t-73 42.5t-54 59.5t-14.5 77h35h13q-2 -41 20 -71t55.5 -52t72.5 -37t72 -25q7 -2 -14.5 -11.5t-59 -26.5t-85.5 -42t-94 -57.5t-85 -73.5t-58 -90z" />
    <glyph glyph-name="fi" unicode="&#xfb01;" horiz-adv-x="597" 
d="M490 874q44 0 73 -15.5t45.5 -39.5t22 -53.5t2.5 -57t-14 -50.5t-26 -33q-16 -11 -31.5 -10t-25.5 10t-13 23t6 28q7 12 19 16.5t24 7t22 6.5t13 17q4 16 0.5 39.5t-18 45.5t-41.5 36.5t-70 11.5q-48 -3 -83.5 -38.5t-62 -87.5t-47 -113.5t-38.5 -117.5h183
q57 0 79.5 -24.5t5.5 -79.5q-9 -27 -24 -69.5t-31 -86t-29.5 -82t-17.5 -58.5q-2 -9 -1.5 -21t4.5 -22.5t12 -17.5t22 -7q15 0 28 6.5t24 18t20.5 25.5t18.5 28q3 5 6.5 4t1.5 -6q-8 -21 -21 -41.5t-29.5 -36t-36.5 -25.5t-42 -11q-25 -1 -41 9t-22.5 28t-5 42t11.5 53
q6 19 19.5 55t28.5 77.5t29.5 81t23.5 65.5q11 32 -1.5 50t-43.5 18h-29h-54t-58 0.5t-40 0.5q-10 -32 -27.5 -89t-39 -124.5t-43.5 -139t-41.5 -133t-33.5 -106.5t-19 -60q-28 -90 -65 -148.5t-75.5 -92.5t-74.5 -47.5t-62 -14.5q-28 -1 -61 6t-58 19.5t-36 29t6 35.5
q5 6 16.5 9t25.5 -9q10 -8 17 -20.5t17.5 -24.5t27 -20.5t45.5 -8.5q33 -1 64.5 19.5t59.5 55.5t50.5 80t39.5 94q14 42 34.5 107.5t45.5 145.5t52 169.5t54 179.5q10 34 5 52t-18.5 26t-33 9t-38.5 1q-10 0 -14 4t-4 9t4 9t12 4h121q31 104 66 175.5t72.5 116t77.5 64
t83 19.5z" />
    <glyph glyph-name="fl" unicode="&#xfb02;" horiz-adv-x="599" 
d="M238 473q-10 -32 -27.5 -88.5t-38.5 -124t-43.5 -139t-41.5 -133.5t-33.5 -107t-18.5 -60q-29 -90 -66.5 -148t-76.5 -92.5t-75.5 -48t-62.5 -13.5q-28 0 -60.5 7t-57 19t-35 28t6.5 35q6 6 17.5 9.5t25.5 -8.5q9 -9 16 -21.5t17.5 -24.5t27 -20.5t45.5 -8.5
q34 0 65.5 21t59 55.5t50 79.5t39.5 94q50 145 94.5 292.5t92.5 308.5q10 34 5 52t-19 26t-33.5 9t-38.5 1q-10 0 -14 4t-4 9t4.5 9t11.5 4h122q32 106 66 178t71 115.5t76.5 62.5t82.5 19q64 0 95.5 -25t33.5 -55q1 -15 -8 -24t-19 -12q-11 -2 -24 2.5t-20 21.5
q-4 11 -7 24t-10 24.5t-21 19t-40 7.5q-45 0 -77.5 -32.5t-57.5 -83.5t-45.5 -115t-40.5 -127h161q8 0 12 -4t3.5 -9.5t-5 -9.5t-12.5 -4h-27.5t-50 0.5t-53.5 0.5h-37zM405 165q72 230 142 417.5t150 320t176.5 205t221.5 72.5q49 0 74.5 -13t19.5 -30q-5 -13 -18 -14
t-25 4q-44 19 -92.5 25t-102 -18.5t-111.5 -88t-121 -183.5q-16 -30 -36.5 -79t-43.5 -108.5t-46.5 -124.5t-45 -127.5t-40.5 -118.5t-32 -97q-8 -24 -17 -55t-12 -58t4 -45.5t33 -18.5q15 0 28.5 7.5t24.5 19t20.5 25.5t16.5 27q2 4 6 3t2 -7q-7 -20 -19.5 -40.5t-29 -36.5
t-37 -26t-43.5 -10q-27 0 -41.5 10.5t-20.5 27t-5 37t4.5 39.5t8.5 35t7 24z" />
    <glyph glyph-name="endash" unicode="&#x2013;" horiz-adv-x="452" 
d="M399 252q12 -17 10.5 -33t-17.5 -20q-13 -4 -22.5 0.5t-18.5 13.5t-18.5 20.5t-22.5 20.5q-30 20 -70.5 24.5t-77.5 2.5q-43 -4 -88 -14q-6 -2 -10 -2q-9 0 -9 8q0 7 21.5 13.5t55 11.5t74 6.5t79 -3t69.5 -16.5t45 -33z" />
    <glyph glyph-name="dagger" unicode="&#x2020;" horiz-adv-x="893" 
d="M468 112q2 0 0 -4q-3 -6 -12.5 -14.5t-19.5 -8.5q-14 1 -16.5 12t3 24t16.5 23.5t24 10.5q8 0 13 -6t0 -14q-7 -11 -20.5 -17.5t-25.5 -11.5q1 -5 2.5 -7.5t6.5 -4.5q7 -2 14.5 2.5t11.5 12.5q1 3 3 3zM463 151q-6 0 -12 -4.5t-10.5 -11t-7 -14t-2.5 -11.5q18 7 26.5 14
t10.5 13t0 10t-5 4zM527 107q8 14 19 22.5t23 13.5q-7 7 -18 8.5t-19 -0.5q-12 -2 -25 -12t-14 -31q0 -14 7 -23.5t15 -18t14.5 -17.5t4.5 -22q-3 -16 -17.5 -24.5t-26.5 -8.5q-8 0 -15.5 5t-6.5 16q1 19 17 29.5t26 9.5q-11 10 -21 23.5t-7 34.5q3 23 19.5 32t28.5 11
q11 2 23 -0.5t20 -10.5q31 10 54.5 3.5t44.5 -18t41.5 -23t45.5 -11.5q12 0 24 4t21.5 11.5t16 19t6.5 26.5q0 14 -6.5 23t-15.5 14t-17.5 7t-11.5 2q-7 1 -9 -1t-5 -2t-3 3t3 4q35 2 53.5 -12.5t18.5 -36.5q0 -23 -19 -44t-57 -21q-24 0 -45.5 11t-42.5 22.5t-44 18
t-51 -3.5q4 -5 4 -16q0 -18 -11 -28.5t-23 -13t-19.5 3.5t0.5 21zM523 29q1 11 -8 20q-9 2 -16.5 -1t-13.5 -8.5t-9.5 -12t-3.5 -12.5q0 -8 6 -12.5t14 -4.5q13 0 21.5 10t9.5 21zM572 139q-14 -5 -23.5 -14t-14.5 -17q-8 -15 -2 -19.5t15.5 -1.5t19 12.5t9.5 24.5
q0 10 -4 15zM600 54q-1 -6 -6 -12t-12.5 -10.5t-15.5 -8t-14 -5.5q0 -10 8 -12t15.5 3t12.5 13q0 4 2 2v-4q-3 -6 -13 -15t-19 -8q-14 1 -16.5 12.5t3 24t17 23t23.5 10.5q6 0 10.5 -4t4.5 -9zM585 63q-7 0 -13 -5.5t-10.5 -12.5t-7 -13.5t-2.5 -9.5q16 5 24.5 12t12 13.5
t2 11t-5.5 4.5zM661 13q1 2 2.5 1.5t0.5 -2.5q-2 -5 -6.5 -10t-11.5 -5q-1 0 -7 2.5t0 20.5q1 2 4 10t5 11q2 5 4 12t-5 7q-8 0 -15 -9t-12 -21q-5 -13 -7 -18t-4 -11l-1 -1q-2 -1 -4.5 -2t-4.5 -1t-1 1l2.5 6.5t5.5 14.5t6 16.5t5 13.5q3 8 2 10t-3 2q-4 0 -6.5 -3.5
t-4.5 -5.5t-3 -1t0 2q3 4 8 10t12 4t6 -9t-2 -10q4 5 10 12t14 7q12 0 11.5 -9t-2.5 -14q-3 -8 -6.5 -18t-4.5 -12q-4 -10 3 -10q4 0 6 3.5t4 5.5zM706 67q2 0 8.5 -1.5t6.5 -9.5q0 -4 -1.5 -7.5t-6.5 -3.5q-6 0 -6 7q0 4 2.5 5t2.5 3t-3 3t-5 1q-5 0 -9.5 -2.5t-4.5 -7.5
q0 -6 3.5 -10t7.5 -8t7.5 -8.5t3.5 -10.5q0 -3 -3.5 -11.5t-20.5 -8.5q-8 0 -15 3t-7 11q0 11 8 11t7 -7q-1 -4 -3 -5t-2 -3q0 -3 3.5 -4.5t6.5 -1.5q4 0 10 2.5t6 11.5q0 4 -3.5 8t-8 8t-8 8t-3.5 9q0 11 9 15t18 4zM737 -3q-14 1 -16 12.5t3.5 24.5t17 23t23.5 10
q8 0 12.5 -6t-0.5 -14q-6 -11 -20 -17.5t-25 -11.5q0 -10 8 -12t15.5 3t11.5 13q2 2 3 2t-1 -4q-3 -6 -12.5 -15t-19.5 -8zM764 63q-8 1 -19 -11t-13 -30q5 2 17 7.5t20 18.5q2 5 1 10t-6 5zM815 68q2 0 9 -2t5 -13q-1 -5 -4.5 -6.5t-6.5 0.5t-3 4v3q0 4 3 5t2 3q-2 2 -7 2
q-10 0 -13 -8t-4 -11q-2 -11 -0.5 -24t3.5 -25.5t2 -24t-5 -20.5q-2 -4 -8.5 -10t-18.5 -6q-8 0 -15 4.5t-3 15.5q2 7 8 5q5 -1 5 -3.5t-1 -4.5q-2 -5 -2.5 -9t9.5 -4q8 0 15 11q5 9 5 22t-2 26t-3.5 25.5t0.5 21.5q1 3 6.5 13t23.5 10zM351 145q5 5 9 8t10 1q5 -2 5 -7
t-2 -10h1q8 13 17 16t13 2t9 -8t-2 -29q-6 -17 -17.5 -25.5t-22.5 -6.5q-10 2 -10 13q-1 -2 -2 -7t-4 -13q-6 -17 -14.5 -35.5t-22 -34.5t-33 -27.5t-46.5 -14.5q-32 -16 -77 -13q-19 1 -37 9t-32.5 20.5t-23 30.5t-7.5 41q1 22 10.5 42t25 34.5t35 22.5t41.5 7
q35 -2 52 -18.5t20 -35.5q1 3 2 7t3 9q3 8 10 28l14 40q-12 -5 -21.5 -6.5t-16.5 -1.5q-12 0 -18.5 4t-9 9.5t-2 10t0.5 5.5q0 3 2.5 8.5t6 10.5t9.5 8.5t14 3.5q5 0 3 -6q-1 -3 -4.5 -4t-5.5 1q-8 5 -14 -5.5t-7 -15.5q0 -2 -0.5 -6t1.5 -8.5t7.5 -8t16.5 -3.5q7 0 16.5 2
t22.5 7q5 12 8 20.5t3 9.5q1 3 5.5 6t6.5 4t2 -0.5t-1 -2.5q-2 -3 -3.5 -9t-3.5 -11l-4 -14q17 6 40 12t38 8q49 7 73.5 0t30.5 -15q6 -9 2 -18t-12 -16l-4 -2t-4 -1q-3 0 -1 2q7 5 11 13t-2 16q-5 8 -25.5 15t-68.5 1q-22 -3 -43 -8t-37 -12l-28 -80q-3 -9 -3 -15.5t3 -6.5
q5 0 7 3l4 6q1 2 2.5 1.5t0.5 -2.5q-2 -5 -7.5 -10t-11.5 -5t-9 5q0 -5 -4 -15q14 -4 25 -14.5t8 -31.5q-1 -6 -6 -5t-2 6q1 2 2 3t1 6q0 9 -7.5 18.5t-21.5 14.5q-7 -17 -23 -36t-47 -26q4 -16 19 -29t46 -12q19 10 33 25.5t24 34t17 38t12 37.5l-12 -12t-15 -7
q-6 0 -8.5 2.5t-3 6.5t0.5 8t2 6q2 7 6 14.5t6 14.5q2 8 1.5 9.5t-2.5 2.5q-3 0 -5.5 -3.5t-4.5 -5.5t-3 -1t0 2q2 4 7 9t10 5q9 0 8.5 -8.5t-2.5 -13.5q-2 -7 -5.5 -13.5t-5.5 -13.5q-3 -9 -1.5 -11.5t4.5 -2.5q7 0 17 10.5t17 35.5q2 10 7 13t8 3q2 0 2 -2q-3 -2 -4 -4.5
t-2 -4.5q-2 -4 -4 -10.5t-4 -12.5q-3 -7 -5 -15q-5 -14 -10.5 -32.5t-15 -37.5t-23.5 -36t-35 -29q29 5 55.5 29.5t43.5 79.5q0 1 3 9t6.5 18.5t6.5 20.5t4 14q2 5 -0.5 7.5t-11.5 -6.5q-2 -2 -3 -1q-2 1 0 3q0 1 1 1zM170 14q19 5 36 19t28 41q-18 3 -31 -2.5t-21 -14.5
t-11 -21t-1 -22zM163 -42q37 -3 65 8q-23 1 -41 12t-23 31q-22 -5 -51 1q-5 0 -3 4t5 2q2 0 3.5 -2t6.5 -3q19 -3 39 1q-3 17 2.5 30t16 21.5t24.5 12t28 1.5q5 14 3.5 27.5t-9.5 25t-22 19t-33 8.5q-20 1 -38.5 -6.5t-32.5 -21.5t-23.5 -33t-10.5 -40q-2 -22 6.5 -39.5
t22 -30t31 -20t34.5 -8.5zM368 92q6 -6 15.5 1.5t15.5 24.5q9 27 0 30q-13 5 -26 -20q-3 -6 -6.5 -18.5t1.5 -17.5zM421 62q7 1 13.5 -2.5t7.5 -12.5q1 -12 -5 -17t-14.5 -8.5t-15.5 -8t-7 -13.5q0 -5 5.5 -7t8.5 4q1 2 0 2.5t-1 2.5t3 2q2 -2 0 -7q-2 -3 -4 -4l-4 -2
q-1 0 -5.5 1t-4.5 8t-3.5 11t-8 7.5t-8 7.5t-4.5 11q-1 8 4.5 13.5t14.5 7.5q10 1 16 -3q6 6 12 7zM399 7q3 6 9 9t12.5 6.5t11.5 8.5t5 15q0 8 -5.5 11.5t-10.5 2.5q-7 -1 -10 -6q5 -8 4 -17q3 -2 4 0t3 2q2 1 2.5 -1t-1.5 -3q-3 -1 -8 0q-2 -8 -10.5 -8.5t-10.5 1.5
q-2 3 0.5 4.5t4.5 -0.5q1 -2 1.5 -3.5t4.5 -0.5t8 7q-7 3 -7 11q0 3 2 7q-5 3 -12 3q-4 0 -10 -2.5t-6 -13.5q0 -12 8.5 -18.5t10.5 -14.5zM413 37q2 10 -4 14q-4 -9 4 -14z" />
    <glyph glyph-name="daggerdbl" unicode="&#x2021;" horiz-adv-x="893" 
d="M468 112q2 0 0 -4q-3 -6 -12.5 -14.5t-19.5 -8.5q-14 1 -16.5 12t3 24t16.5 23.5t24 10.5q8 0 13 -6t0 -14q-7 -11 -20.5 -17.5t-25.5 -11.5q1 -5 2.5 -7.5t6.5 -4.5q7 -2 14.5 2.5t11.5 12.5q1 3 3 3zM463 151q-6 0 -12 -4.5t-10.5 -11t-7 -14t-2.5 -11.5q18 7 26.5 14
t10.5 13t0 10t-5 4zM527 107q8 14 19 22.5t23 13.5q-7 7 -18 8.5t-19 -0.5q-12 -2 -25 -12t-14 -31q0 -14 7 -23.5t15 -18t14.5 -17.5t4.5 -22q-3 -16 -17.5 -24.5t-26.5 -8.5q-8 0 -15.5 5t-6.5 16q1 19 17 29.5t26 9.5q-11 10 -21 23.5t-7 34.5q3 23 19.5 32t28.5 11
q11 2 23 -0.5t20 -10.5q31 10 54.5 3.5t44.5 -18t41.5 -23t45.5 -11.5q12 0 24 4t21.5 11.5t16 19t6.5 26.5q0 14 -6.5 23t-15.5 14t-17.5 7t-11.5 2q-7 1 -9 -1t-5 -2t-3 3t3 4q35 2 53.5 -12.5t18.5 -36.5q0 -23 -19 -44t-57 -21q-24 0 -45.5 11t-42.5 22.5t-44 18
t-51 -3.5q4 -5 4 -16q0 -18 -11 -28.5t-23 -13t-19.5 3.5t0.5 21zM523 29q1 11 -8 20q-9 2 -16.5 -1t-13.5 -8.5t-9.5 -12t-3.5 -12.5q0 -8 6 -12.5t14 -4.5q13 0 21.5 10t9.5 21zM572 139q-14 -5 -23.5 -14t-14.5 -17q-8 -15 -2 -19.5t15.5 -1.5t19 12.5t9.5 24.5
q0 10 -4 15zM600 54q-1 -6 -6 -12t-12.5 -10.5t-15.5 -8t-14 -5.5q0 -10 8 -12t15.5 3t12.5 13q0 4 2 2v-4q-3 -6 -13 -15t-19 -8q-14 1 -16.5 12.5t3 24t17 23t23.5 10.5q6 0 10.5 -4t4.5 -9zM585 63q-7 0 -13 -5.5t-10.5 -12.5t-7 -13.5t-2.5 -9.5q16 5 24.5 12t12 13.5
t2 11t-5.5 4.5zM661 13q1 2 2.5 1.5t0.5 -2.5q-2 -5 -6.5 -10t-11.5 -5q-1 0 -7 2.5t0 20.5q1 2 4 10t5 11q2 5 4 12t-5 7q-8 0 -15 -9t-12 -21q-5 -13 -7 -18t-4 -11l-1 -1q-2 -1 -4.5 -2t-4.5 -1t-1 1l2.5 6.5t5.5 14.5t6 16.5t5 13.5q3 8 2 10t-3 2q-4 0 -6.5 -3.5
t-4.5 -5.5t-3 -1t0 2q3 4 8 10t12 4t6 -9t-2 -10q4 5 10 12t14 7q12 0 11.5 -9t-2.5 -14q-3 -8 -6.5 -18t-4.5 -12q-4 -10 3 -10q4 0 6 3.5t4 5.5zM706 67q2 0 8.5 -1.5t6.5 -9.5q0 -4 -1.5 -7.5t-6.5 -3.5q-6 0 -6 7q0 4 2.5 5t2.5 3t-3 3t-5 1q-5 0 -9.5 -2.5t-4.5 -7.5
q0 -6 3.5 -10t7.5 -8t7.5 -8.5t3.5 -10.5q0 -3 -3.5 -11.5t-20.5 -8.5q-8 0 -15 3t-7 11q0 11 8 11t7 -7q-1 -4 -3 -5t-2 -3q0 -3 3.5 -4.5t6.5 -1.5q4 0 10 2.5t6 11.5q0 4 -3.5 8t-8 8t-8 8t-3.5 9q0 11 9 15t18 4zM737 -3q-14 1 -16 12.5t3.5 24.5t17 23t23.5 10
q8 0 12.5 -6t-0.5 -14q-6 -11 -20 -17.5t-25 -11.5q0 -10 8 -12t15.5 3t11.5 13q2 2 3 2t-1 -4q-3 -6 -12.5 -15t-19.5 -8zM764 63q-8 1 -19 -11t-13 -30q5 2 17 7.5t20 18.5q2 5 1 10t-6 5zM815 68q2 0 9 -2t5 -13q-1 -5 -4.5 -6.5t-6.5 0.5t-3 4v3q0 4 3 5t2 3q-2 2 -7 2
q-10 0 -13 -8t-4 -11q-2 -11 -0.5 -24t3.5 -25.5t2 -24t-5 -20.5q-2 -4 -8.5 -10t-18.5 -6q-8 0 -15 4.5t-3 15.5q2 7 8 5q5 -1 5 -3.5t-1 -4.5q-2 -5 -2.5 -9t9.5 -4q8 0 15 11q5 9 5 22t-2 26t-3.5 25.5t0.5 21.5q1 3 6.5 13t23.5 10zM351 145q5 5 9 8t10 1q5 -2 5 -7
t-2 -10h1q8 13 17 16t13 2t9 -8t-2 -29q-6 -17 -17.5 -25.5t-22.5 -6.5q-10 2 -10 13q-1 -2 -2 -7t-4 -13q-6 -17 -14.5 -35.5t-22 -34.5t-33 -27.5t-46.5 -14.5q-32 -16 -77 -13q-19 1 -37 9t-32.5 20.5t-23 30.5t-7.5 41q1 22 10.5 42t25 34.5t35 22.5t41.5 7
q35 -2 52 -18.5t20 -35.5q1 3 2 7t3 9q3 8 10 28l14 40q-12 -5 -21.5 -6.5t-16.5 -1.5q-12 0 -18.5 4t-9 9.5t-2 10t0.5 5.5q0 3 2.5 8.5t6 10.5t9.5 8.5t14 3.5q5 0 3 -6q-1 -3 -4.5 -4t-5.5 1q-8 5 -14 -5.5t-7 -15.5q0 -2 -0.5 -6t1.5 -8.5t7.5 -8t16.5 -3.5q7 0 16.5 2
t22.5 7q5 12 8 20.5t3 9.5q1 3 5.5 6t6.5 4t2 -0.5t-1 -2.5q-2 -3 -3.5 -9t-3.5 -11l-4 -14q17 6 40 12t38 8q49 7 73.5 0t30.5 -15q6 -9 2 -18t-12 -16l-4 -2t-4 -1q-3 0 -1 2q7 5 11 13t-2 16q-5 8 -25.5 15t-68.5 1q-22 -3 -43 -8t-37 -12l-28 -80q-3 -9 -3 -15.5t3 -6.5
q5 0 7 3l4 6q1 2 2.5 1.5t0.5 -2.5q-2 -5 -7.5 -10t-11.5 -5t-9 5q0 -5 -4 -15q14 -4 25 -14.5t8 -31.5q-1 -6 -6 -5t-2 6q1 2 2 3t1 6q0 9 -7.5 18.5t-21.5 14.5q-7 -17 -23 -36t-47 -26q4 -16 19 -29t46 -12q19 10 33 25.5t24 34t17 38t12 37.5l-12 -12t-15 -7
q-6 0 -8.5 2.5t-3 6.5t0.5 8t2 6q2 7 6 14.5t6 14.5q2 8 1.5 9.5t-2.5 2.5q-3 0 -5.5 -3.5t-4.5 -5.5t-3 -1t0 2q2 4 7 9t10 5q9 0 8.5 -8.5t-2.5 -13.5q-2 -7 -5.5 -13.5t-5.5 -13.5q-3 -9 -1.5 -11.5t4.5 -2.5q7 0 17 10.5t17 35.5q2 10 7 13t8 3q2 0 2 -2q-3 -2 -4 -4.5
t-2 -4.5q-2 -4 -4 -10.5t-4 -12.5q-3 -7 -5 -15q-5 -14 -10.5 -32.5t-15 -37.5t-23.5 -36t-35 -29q29 5 55.5 29.5t43.5 79.5q0 1 3 9t6.5 18.5t6.5 20.5t4 14q2 5 -0.5 7.5t-11.5 -6.5q-2 -2 -3 -1q-2 1 0 3q0 1 1 1zM170 14q19 5 36 19t28 41q-18 3 -31 -2.5t-21 -14.5
t-11 -21t-1 -22zM163 -42q37 -3 65 8q-23 1 -41 12t-23 31q-22 -5 -51 1q-5 0 -3 4t5 2q2 0 3.5 -2t6.5 -3q19 -3 39 1q-3 17 2.5 30t16 21.5t24.5 12t28 1.5q5 14 3.5 27.5t-9.5 25t-22 19t-33 8.5q-20 1 -38.5 -6.5t-32.5 -21.5t-23.5 -33t-10.5 -40q-2 -22 6.5 -39.5
t22 -30t31 -20t34.5 -8.5zM368 92q6 -6 15.5 1.5t15.5 24.5q9 27 0 30q-13 5 -26 -20q-3 -6 -6.5 -18.5t1.5 -17.5zM421 62q7 1 13.5 -2.5t7.5 -12.5q1 -12 -5 -17t-14.5 -8.5t-15.5 -8t-7 -13.5q0 -5 5.5 -7t8.5 4q1 2 0 2.5t-1 2.5t3 2q2 -2 0 -7q-2 -3 -4 -4l-4 -2
q-1 0 -5.5 1t-4.5 8t-3.5 11t-8 7.5t-8 7.5t-4.5 11q-1 8 4.5 13.5t14.5 7.5q10 1 16 -3q6 6 12 7zM399 7q3 6 9 9t12.5 6.5t11.5 8.5t5 15q0 8 -5.5 11.5t-10.5 2.5q-7 -1 -10 -6q5 -8 4 -17q3 -2 4 0t3 2q2 1 2.5 -1t-1.5 -3q-3 -1 -8 0q-2 -8 -10.5 -8.5t-10.5 1.5
q-2 3 0.5 4.5t4.5 -0.5q1 -2 1.5 -3.5t4.5 -0.5t8 7q-7 3 -7 11q0 3 2 7q-5 3 -12 3q-4 0 -10 -2.5t-6 -13.5q0 -12 8.5 -18.5t10.5 -14.5zM413 37q2 10 -4 14q-4 -9 4 -14z" />
    <glyph glyph-name="periodcentered" unicode="&#xb7;" horiz-adv-x="348" 
d="M199 256q-17 0 -29 12t-12 29t12 29t29 12t29 -12t12 -29t-12 -29t-29 -12z" />
    <glyph glyph-name="paragraph" unicode="&#xb6;" horiz-adv-x="893" 
d="M468 112q2 0 0 -4q-3 -6 -12.5 -14.5t-19.5 -8.5q-14 1 -16.5 12t3 24t16.5 23.5t24 10.5q8 0 13 -6t0 -14q-7 -11 -20.5 -17.5t-25.5 -11.5q1 -5 2.5 -7.5t6.5 -4.5q7 -2 14.5 2.5t11.5 12.5q1 3 3 3zM463 151q-6 0 -12 -4.5t-10.5 -11t-7 -14t-2.5 -11.5q18 7 26.5 14
t10.5 13t0 10t-5 4zM527 107q8 14 19 22.5t23 13.5q-7 7 -18 8.5t-19 -0.5q-12 -2 -25 -12t-14 -31q0 -14 7 -23.5t15 -18t14.5 -17.5t4.5 -22q-3 -16 -17.5 -24.5t-26.5 -8.5q-8 0 -15.5 5t-6.5 16q1 19 17 29.5t26 9.5q-11 10 -21 23.5t-7 34.5q3 23 19.5 32t28.5 11
q11 2 23 -0.5t20 -10.5q31 10 54.5 3.5t44.5 -18t41.5 -23t45.5 -11.5q12 0 24 4t21.5 11.5t16 19t6.5 26.5q0 14 -6.5 23t-15.5 14t-17.5 7t-11.5 2q-7 1 -9 -1t-5 -2t-3 3t3 4q35 2 53.5 -12.5t18.5 -36.5q0 -23 -19 -44t-57 -21q-24 0 -45.5 11t-42.5 22.5t-44 18
t-51 -3.5q4 -5 4 -16q0 -18 -11 -28.5t-23 -13t-19.5 3.5t0.5 21zM523 29q1 11 -8 20q-9 2 -16.5 -1t-13.5 -8.5t-9.5 -12t-3.5 -12.5q0 -8 6 -12.5t14 -4.5q13 0 21.5 10t9.5 21zM572 139q-14 -5 -23.5 -14t-14.5 -17q-8 -15 -2 -19.5t15.5 -1.5t19 12.5t9.5 24.5
q0 10 -4 15zM600 54q-1 -6 -6 -12t-12.5 -10.5t-15.5 -8t-14 -5.5q0 -10 8 -12t15.5 3t12.5 13q0 4 2 2v-4q-3 -6 -13 -15t-19 -8q-14 1 -16.5 12.5t3 24t17 23t23.5 10.5q6 0 10.5 -4t4.5 -9zM585 63q-7 0 -13 -5.5t-10.5 -12.5t-7 -13.5t-2.5 -9.5q16 5 24.5 12t12 13.5
t2 11t-5.5 4.5zM661 13q1 2 2.5 1.5t0.5 -2.5q-2 -5 -6.5 -10t-11.5 -5q-1 0 -7 2.5t0 20.5q1 2 4 10t5 11q2 5 4 12t-5 7q-8 0 -15 -9t-12 -21q-5 -13 -7 -18t-4 -11l-1 -1q-2 -1 -4.5 -2t-4.5 -1t-1 1l2.5 6.5t5.5 14.5t6 16.5t5 13.5q3 8 2 10t-3 2q-4 0 -6.5 -3.5
t-4.5 -5.5t-3 -1t0 2q3 4 8 10t12 4t6 -9t-2 -10q4 5 10 12t14 7q12 0 11.5 -9t-2.5 -14q-3 -8 -6.5 -18t-4.5 -12q-4 -10 3 -10q4 0 6 3.5t4 5.5zM706 67q2 0 8.5 -1.5t6.5 -9.5q0 -4 -1.5 -7.5t-6.5 -3.5q-6 0 -6 7q0 4 2.5 5t2.5 3t-3 3t-5 1q-5 0 -9.5 -2.5t-4.5 -7.5
q0 -6 3.5 -10t7.5 -8t7.5 -8.5t3.5 -10.5q0 -3 -3.5 -11.5t-20.5 -8.5q-8 0 -15 3t-7 11q0 11 8 11t7 -7q-1 -4 -3 -5t-2 -3q0 -3 3.5 -4.5t6.5 -1.5q4 0 10 2.5t6 11.5q0 4 -3.5 8t-8 8t-8 8t-3.5 9q0 11 9 15t18 4zM737 -3q-14 1 -16 12.5t3.5 24.5t17 23t23.5 10
q8 0 12.5 -6t-0.5 -14q-6 -11 -20 -17.5t-25 -11.5q0 -10 8 -12t15.5 3t11.5 13q2 2 3 2t-1 -4q-3 -6 -12.5 -15t-19.5 -8zM764 63q-8 1 -19 -11t-13 -30q5 2 17 7.5t20 18.5q2 5 1 10t-6 5zM815 68q2 0 9 -2t5 -13q-1 -5 -4.5 -6.5t-6.5 0.5t-3 4v3q0 4 3 5t2 3q-2 2 -7 2
q-10 0 -13 -8t-4 -11q-2 -11 -0.5 -24t3.5 -25.5t2 -24t-5 -20.5q-2 -4 -8.5 -10t-18.5 -6q-8 0 -15 4.5t-3 15.5q2 7 8 5q5 -1 5 -3.5t-1 -4.5q-2 -5 -2.5 -9t9.5 -4q8 0 15 11q5 9 5 22t-2 26t-3.5 25.5t0.5 21.5q1 3 6.5 13t23.5 10zM351 145q5 5 9 8t10 1q5 -2 5 -7
t-2 -10h1q8 13 17 16t13 2t9 -8t-2 -29q-6 -17 -17.5 -25.5t-22.5 -6.5q-10 2 -10 13q-1 -2 -2 -7t-4 -13q-6 -17 -14.5 -35.5t-22 -34.5t-33 -27.5t-46.5 -14.5q-32 -16 -77 -13q-19 1 -37 9t-32.5 20.5t-23 30.5t-7.5 41q1 22 10.5 42t25 34.5t35 22.5t41.5 7
q35 -2 52 -18.5t20 -35.5q1 3 2 7t3 9q3 8 10 28l14 40q-12 -5 -21.5 -6.5t-16.5 -1.5q-12 0 -18.5 4t-9 9.5t-2 10t0.5 5.5q0 3 2.5 8.5t6 10.5t9.5 8.5t14 3.5q5 0 3 -6q-1 -3 -4.5 -4t-5.5 1q-8 5 -14 -5.5t-7 -15.5q0 -2 -0.5 -6t1.5 -8.5t7.5 -8t16.5 -3.5q7 0 16.5 2
t22.5 7q5 12 8 20.5t3 9.5q1 3 5.5 6t6.5 4t2 -0.5t-1 -2.5q-2 -3 -3.5 -9t-3.5 -11l-4 -14q17 6 40 12t38 8q49 7 73.5 0t30.5 -15q6 -9 2 -18t-12 -16l-4 -2t-4 -1q-3 0 -1 2q7 5 11 13t-2 16q-5 8 -25.5 15t-68.5 1q-22 -3 -43 -8t-37 -12l-28 -80q-3 -9 -3 -15.5t3 -6.5
q5 0 7 3l4 6q1 2 2.5 1.5t0.5 -2.5q-2 -5 -7.5 -10t-11.5 -5t-9 5q0 -5 -4 -15q14 -4 25 -14.5t8 -31.5q-1 -6 -6 -5t-2 6q1 2 2 3t1 6q0 9 -7.5 18.5t-21.5 14.5q-7 -17 -23 -36t-47 -26q4 -16 19 -29t46 -12q19 10 33 25.5t24 34t17 38t12 37.5l-12 -12t-15 -7
q-6 0 -8.5 2.5t-3 6.5t0.5 8t2 6q2 7 6 14.5t6 14.5q2 8 1.5 9.5t-2.5 2.5q-3 0 -5.5 -3.5t-4.5 -5.5t-3 -1t0 2q2 4 7 9t10 5q9 0 8.5 -8.5t-2.5 -13.5q-2 -7 -5.5 -13.5t-5.5 -13.5q-3 -9 -1.5 -11.5t4.5 -2.5q7 0 17 10.5t17 35.5q2 10 7 13t8 3q2 0 2 -2q-3 -2 -4 -4.5
t-2 -4.5q-2 -4 -4 -10.5t-4 -12.5q-3 -7 -5 -15q-5 -14 -10.5 -32.5t-15 -37.5t-23.5 -36t-35 -29q29 5 55.5 29.5t43.5 79.5q0 1 3 9t6.5 18.5t6.5 20.5t4 14q2 5 -0.5 7.5t-11.5 -6.5q-2 -2 -3 -1q-2 1 0 3q0 1 1 1zM170 14q19 5 36 19t28 41q-18 3 -31 -2.5t-21 -14.5
t-11 -21t-1 -22zM163 -42q37 -3 65 8q-23 1 -41 12t-23 31q-22 -5 -51 1q-5 0 -3 4t5 2q2 0 3.5 -2t6.5 -3q19 -3 39 1q-3 17 2.5 30t16 21.5t24.5 12t28 1.5q5 14 3.5 27.5t-9.5 25t-22 19t-33 8.5q-20 1 -38.5 -6.5t-32.5 -21.5t-23.5 -33t-10.5 -40q-2 -22 6.5 -39.5
t22 -30t31 -20t34.5 -8.5zM368 92q6 -6 15.5 1.5t15.5 24.5q9 27 0 30q-13 5 -26 -20q-3 -6 -6.5 -18.5t1.5 -17.5zM421 62q7 1 13.5 -2.5t7.5 -12.5q1 -12 -5 -17t-14.5 -8.5t-15.5 -8t-7 -13.5q0 -5 5.5 -7t8.5 4q1 2 0 2.5t-1 2.5t3 2q2 -2 0 -7q-2 -3 -4 -4l-4 -2
q-1 0 -5.5 1t-4.5 8t-3.5 11t-8 7.5t-8 7.5t-4.5 11q-1 8 4.5 13.5t14.5 7.5q10 1 16 -3q6 6 12 7zM399 7q3 6 9 9t12.5 6.5t11.5 8.5t5 15q0 8 -5.5 11.5t-10.5 2.5q-7 -1 -10 -6q5 -8 4 -17q3 -2 4 0t3 2q2 1 2.5 -1t-1.5 -3q-3 -1 -8 0q-2 -8 -10.5 -8.5t-10.5 1.5
q-2 3 0.5 4.5t4.5 -0.5q1 -2 1.5 -3.5t4.5 -0.5t8 7q-7 3 -7 11q0 3 2 7q-5 3 -12 3q-4 0 -10 -2.5t-6 -13.5q0 -12 8.5 -18.5t10.5 -14.5zM413 37q2 10 -4 14q-4 -9 4 -14z" />
    <glyph glyph-name="bullet" unicode="&#x2022;" horiz-adv-x="368" 
d="M199 220q-31 0 -53.5 22.5t-22.5 53.5t22.5 53t53.5 22t53 -22t22 -53t-22 -53.5t-53 -22.5z" />
    <glyph glyph-name="quotesinglbase" unicode="&#x201a;" horiz-adv-x="577" 
d="M320 -124q39 24 51.5 45t11.5 40t-7.5 36t-4.5 34q3 26 18 32.5t25 6.5q7 0 22.5 -8t16.5 -29q0 -29 -13.5 -56t-33.5 -49t-42 -38.5t-37 -24.5q-8 -5 -11 0.5t4 10.5z" />
    <glyph glyph-name="quotedblbase" unicode="&#x201e;" horiz-adv-x="490" 
d="M91 -93q40 24 52 45t11.5 40t-7.5 36.5t-5 34.5q4 25 18.5 32t24.5 6q4 0 10.5 -2t13 -6t11 -11.5t4.5 -17.5q0 -29 -13.5 -55.5t-33 -48.5t-41.5 -38.5t-37 -24.5q-9 -5 -12 0.5t4 9.5zM245 -93q39 24 51 45t11.5 40t-7 36.5t-4.5 34.5q3 25 17.5 32t25.5 6q3 0 9.5 -2
t13 -6t11 -11.5t4.5 -17.5q0 -29 -13.5 -55.5t-33 -48.5t-41.5 -38.5t-37 -24.5q-9 -5 -12 0.5t5 9.5z" />
    <glyph glyph-name="quotedblright" unicode="&#x201d;" horiz-adv-x="409" 
d="M141 606q39 24 51.5 45t11.5 40t-7.5 36.5t-4.5 34.5q3 25 18 32t25 6q7 0 22.5 -8t16.5 -29q0 -29 -13.5 -55.5t-33.5 -48.5t-42 -38.5t-37 -24.5q-8 -5 -11 0.5t4 9.5zM294 606q39 24 51.5 45t11.5 40t-7.5 36.5t-4.5 34.5q3 25 18 32t25 6q8 0 23 -8t16 -29
q0 -29 -13.5 -55.5t-33.5 -48.5t-41.5 -38.5t-36.5 -24.5q-9 -5 -12 0.5t4 9.5z" />
    <glyph glyph-name="guillemotright" unicode="&#xbb;" horiz-adv-x="834" 
d="M504 317q6 -2 -15 -11.5t-59 -26t-85.5 -41.5t-94 -57.5t-85.5 -73.5t-58 -90q-3 -7 -11 -10.5t-17 -4.5t-16 -0.5t-6 2.5q28 54 71.5 98t96 80.5t110.5 65.5t114 52q-32 7 -72 23.5t-73.5 42t-54 60t-14.5 77.5h35h13q-2 -41 20 -71t55.5 -52t73 -37.5t72.5 -25.5z
M803 317q7 -2 -14.5 -11.5t-59 -26t-85.5 -41.5t-94.5 -57.5t-85.5 -73.5t-58 -90q-2 -7 -10.5 -10.5t-17 -4.5t-15.5 -0.5t-6 2.5q27 54 71 98t96.5 80.5t110 65.5t113.5 52q-32 7 -72 23.5t-73.5 42t-54 60t-14.5 77.5h36h13q-2 -41 20 -71t55 -52t72.5 -37.5t72.5 -25.5z
" />
    <glyph glyph-name="ellipsis" unicode="&#x2026;" horiz-adv-x="834" 
d="M139 79q17 0 29.5 -12t12.5 -29t-12.5 -29t-29.5 -12t-29 12t-12 29t12 29t29 12zM415 79q17 0 29 -12t12 -29t-12 -29t-29 -12t-29 12t-12 29t12 29t29 12zM695 79q17 0 29 -12t12 -29t-12 -29t-29 -12t-29 12t-12 29t12 29t29 12z" />
    <glyph glyph-name="perthousand" unicode="&#x2030;" horiz-adv-x="1014" 
d="M498 608q-50 -81 -102 -165t-96.5 -155t-76 -121.5t-39.5 -65.5q-26 -48 -36.5 -78t-8.5 -53q0 -1 -1 -3.5t-3 -3.5t-5 1t-8 9q-6 10 -8.5 23.5t0.5 32.5t13 43t29 55q15 24 42 67.5t60 96t68.5 108.5t65.5 103.5t51 81.5t27 44q28 50 40 81.5t10 56.5q0 1 0.5 3t2.5 2.5
t5.5 -1t8.5 -8.5q13 -17 6 -54t-45 -100zM540 358q47 0 68.5 -29.5t23 -73t-15.5 -93t-46.5 -90t-70 -63.5t-86.5 -14q-27 5 -44.5 23t-25.5 42.5t-6.5 52.5t10.5 55q15 42 38 72.5t48 49t48.5 26.5t40.5 7q9 -1 13.5 -7t4 -13t-5.5 -12.5t-15 -4.5q-8 0 -11.5 3.5t-5.5 7
t-3.5 6.5t-4.5 3q-5 0 -9.5 -2.5t-9.5 -5.5q-44 -31 -70 -78t-33.5 -92t5 -80.5t45.5 -42.5q34 -8 65 13t54.5 57t38.5 80.5t16.5 85.5t-11.5 71.5t-45 38.5q-5 1 -4.5 4t4.5 3zM885 358q47 0 68.5 -29.5t23 -73t-15.5 -93t-46.5 -90t-70 -63.5t-86.5 -14q-27 5 -44.5 23
t-25.5 42.5t-6.5 52.5t10.5 55q15 42 38 72.5t48 49t48.5 26.5t40.5 7q9 -1 13.5 -7t4 -13t-5.5 -12.5t-15 -4.5q-8 0 -11.5 3.5t-5.5 7t-3.5 6.5t-4.5 3q-5 0 -9.5 -2.5t-9.5 -5.5q-44 -31 -70 -78t-33.5 -92t5 -80.5t45.5 -42.5q34 -8 65 13t54.5 57t38.5 80.5t16.5 85.5
t-11.5 71.5t-45 38.5q-5 1 -4.5 4t4.5 3zM208 720q47 0 68.5 -29.5t23 -72.5t-15.5 -93t-46.5 -90t-70 -63.5t-86.5 -14.5q-27 6 -44.5 23.5t-25.5 42.5t-6.5 53t10.5 55q15 42 38 72t48 49t48.5 27t40.5 7q9 -1 13.5 -7t4 -13t-5.5 -12.5t-15 -5.5q-7 0 -10.5 3.5t-5.5 7
t-4 6.5t-5 3q-9 0 -19 -8q-44 -31 -70 -78t-33.5 -92t5 -80.5t45.5 -42.5q34 -8 65 13t54.5 57t38.5 80.5t16.5 85.5t-11.5 71.5t-45 38.5q-5 2 -4.5 4.5t4.5 2.5z" />
    <glyph glyph-name="questiondown" unicode="&#xbf;" horiz-adv-x="810" 
d="M499 251q-16 1 -9 8.5t23.5 13t36 5.5t28.5 -13q19 -27 0 -52t-63 -51t-107 -54.5t-132.5 -63t-139.5 -76.5t-128 -94.5t-98 -117t-50 -144.5q-9 -72 10.5 -126.5t57 -91t88.5 -54.5t105 -17q73 1 133.5 26t106.5 68t77 102.5t45 131.5q12 63 0 110t-37.5 78t-60 45
t-66 11.5t-55.5 -22t-30 -56.5q-3 -22 -18 -32t-29 -8.5t-22.5 14t1.5 35.5q18 41 56 64t84 27.5t92.5 -10.5t81.5 -50.5t51.5 -92.5t1.5 -137q-13 -69 -51 -127t-94 -101t-126.5 -68t-147.5 -27q-63 -2 -122 16.5t-103.5 54t-69.5 88t-20 120.5q7 84 44 151t93.5 121
t125.5 96.5t139.5 77.5t136 64.5t115.5 57.5q27 15 46 32t27 31.5t2 24.5t-29 12zM577 496q17 0 29.5 -12t12.5 -29t-12.5 -29t-29.5 -12t-29 12t-12 29t12 29t29 12z" />
    <glyph glyph-name="grave" unicode="`" horiz-adv-x="522" 
d="M400 794q-39 -24 -51 -45t-11.5 -40t7 -37t4.5 -34q-2 -13 -6.5 -20.5t-11 -11.5t-13.5 -5t-12 -1q-3 0 -9.5 2t-13 6t-11 11t-4.5 18q0 29 13.5 55.5t33 48.5t41.5 38.5t37 24.5q9 5 11.5 -0.5t-4.5 -9.5z" />
    <glyph glyph-name="acute" unicode="&#xb4;" horiz-adv-x="313" 
d="M142 606q39 24 51.5 45t11.5 40t-7.5 36.5t-4.5 34.5q3 25 18 32t25 6q7 0 22.5 -8t16.5 -29q0 -29 -13.5 -55.5t-33.5 -48.5t-42 -38.5t-37 -24.5q-8 -5 -11 0.5t4 9.5z" />
    <glyph glyph-name="circumflex" unicode="&#x2c6;" horiz-adv-x="833" 
d="M611 773q26 -42 50.5 -84.5t50.5 -84.5h-53q-18 29 -36.5 57t-38.5 57q-36 -30 -69.5 -57.5t-68.5 -56.5h-30q21 19 52 47.5t60 55t50.5 45.5t23.5 21h9z" />
    <glyph glyph-name="tilde" unicode="&#x2dc;" horiz-adv-x="833" 
d="M304 587q-10 0 -16.5 8t-6.5 19q0 29 23 49t61 20q23 0 40.5 -9.5t34 -21t34 -21t38.5 -9.5q38 0 56.5 18t18.5 40q9 0 17 -6.5t8 -17.5q0 -32 -24 -51t-59 -19q-18 0 -37.5 9.5t-39.5 20.5t-39.5 20.5t-38.5 9.5q-20 0 -33 -5.5t-21.5 -14t-12 -19t-3.5 -20.5z" />
    <glyph glyph-name="macron" unicode="&#xaf;" horiz-adv-x="639" 
d="M279 622q0 8 10 8q4 0 10 -1q27 -11 57 -14q26 -3 56.5 2t60.5 25q13 9 22.5 20.5t18.5 20.5t18.5 13.5t22.5 1.5q16 -5 17.5 -21t-10.5 -33q-14 -21 -41 -33t-58.5 -16.5t-64 -3.5t-59 6t-43.5 11.5t-17 13.5z" />
    <glyph glyph-name="breve" unicode="&#x2d8;" horiz-adv-x="663" 
d="M707 711q-26 -49 -72 -78t-101 -29q-20 0 -38.5 6.5t-31 20t-16.5 33.5t4 47h1h6h15.5h30.5q-5 -17 -6 -33t3.5 -29.5t16 -21.5t33.5 -8q24 0 41.5 8.5t31 22t22.5 30t15 31.5h45z" />
    <glyph glyph-name="dotaccent" unicode="&#x2d9;" horiz-adv-x="605" 
d="M417 613q-17 0 -29 12t-12 29t12 29t29 12t29 -12t12 -29t-12 -29t-29 -12z" />
    <glyph glyph-name="dieresis" unicode="&#xa8;" horiz-adv-x="833" 
d="M511 613q-17 0 -29 12t-12 29t12 29t29 12t29 -12t12 -29t-12 -29t-29 -12zM744 613q-17 0 -29 12t-12 29t12 29t29 12t29 -12t12 -29t-12 -29t-29 -12z" />
    <glyph glyph-name="ring" unicode="&#x2da;" horiz-adv-x="660" 
d="M535 699q-5 -27 -18.5 -45.5t-32 -30t-41.5 -17t-45 -6.5q-24 -1 -40.5 7t-26 21t-11.5 29.5t3 32.5q13 42 39 63t67 29q24 5 45 0t35.5 -17t21.5 -29t4 -37zM458 769q-30 8 -53.5 -13t-35.5 -53q-11 -29 -3 -54.5t34 -32.5q29 -7 53 13.5t34 53.5q10 31 3.5 55t-32.5 31
z" />
    <glyph glyph-name="cedilla" unicode="&#xb8;" horiz-adv-x="447" 
d="M376 -117q0 -24 -8.5 -44.5t-22 -36t-31.5 -24t-36 -8.5q-26 0 -45 12t-28.5 29.5t-8 37t16.5 35.5l8 -8q-11 -11 -12.5 -23t4.5 -22.5t17 -17t26 -6.5q38 0 57 20t29 47.5t14.5 57.5t12.5 51h12q-4 -10 -4.5 -33.5t-0.5 -66.5z" />
    <glyph glyph-name="hungarumlaut" unicode="&#x2dd;" horiz-adv-x="630" 
d="M378 606q39 24 51.5 45t11.5 40t-7.5 36.5t-4.5 34.5q3 25 18 32t25 6q7 0 22.5 -8t16.5 -29q0 -29 -13.5 -55.5t-33.5 -48.5t-42 -38.5t-37 -24.5q-8 -5 -11 0.5t4 9.5zM531 606q39 24 51.5 45t11.5 40t-7.5 36.5t-4.5 34.5q3 25 18 32t25 6q8 0 23 -8t16 -29
q0 -29 -13.5 -55.5t-33.5 -48.5t-41.5 -38.5t-36.5 -24.5q-9 -5 -12 0.5t4 9.5z" />
    <glyph glyph-name="ogonek" unicode="&#x2db;" horiz-adv-x="640" 
d="M523 -237q-8 -3 -31 -5.5t-48 4.5t-45 26t-21 58q-1 37 16.5 64.5t40 46t44 28t28.5 10.5h4.5t6.5 -1t3 -2t-5 -4q-36 -20 -63.5 -54t-29.5 -82q-1 -21 7.5 -37.5t22 -27.5t31.5 -15t37 2q1 -5 1 -7t1 -4z" />
    <glyph glyph-name="caron" unicode="&#x2c7;" horiz-adv-x="653" 
d="M385 604q-26 42 -51 84.5t-51 84.5h54q18 -29 36 -57t38 -57q36 30 69.5 57.5t68.5 56.5h30q-21 -20 -51.5 -48t-59.5 -54.5t-50.5 -46t-23.5 -20.5h-9z" />
    <glyph glyph-name="emdash" unicode="&#x2014;" horiz-adv-x="452" 
d="M399 252q12 -17 10.5 -33t-17.5 -20q-13 -4 -22.5 0.5t-18.5 13.5t-18.5 20.5t-22.5 20.5q-30 20 -70.5 24.5t-77.5 2.5q-43 -4 -88 -14q-6 -2 -10 -2q-9 0 -9 8q0 7 21.5 13.5t55 11.5t74 6.5t79 -3t69.5 -16.5t45 -33z" />
    <glyph glyph-name="AE" unicode="&#xc6;" horiz-adv-x="2087" 
d="M2175 1155q71 0 104.5 -29.5t31 -75t-40 -99t-107 -102t-170 -84.5t-229.5 -45q10 -29 31.5 -48.5t48 -30t52.5 -12.5t45 3q9 2 12.5 -0.5t-1.5 -8.5q-6 -6 -18 -9.5t-25 -5.5q-112 -12 -195.5 -46.5t-141 -82.5t-90 -105.5t-43 -116.5t0.5 -114t40.5 -98.5t76 -70.5
t108.5 -29q-11 61 -4 123t27 119.5t52.5 108t71.5 88t84 59t91 21.5q43 0 68.5 -22t34.5 -58t3 -83t-27 -96t-56 -96.5t-82.5 -86.5t-107.5 -64.5t-131 -30.5q15 -60 52 -115t103 -102q9 -6 3 -14t-15 -2q-69 47 -108 106.5t-55 125.5q-71 -2 -125.5 19t-92 57t-57 83.5
t-19.5 98.5q0 62 -14 110.5t-34.5 85.5t-43.5 64t-40 47q-57 -75 -112 -146t-111 -134t-114 -115.5t-120.5 -90.5t-131 -59t-146.5 -21q-95 0 -171 25.5t-131.5 69.5t-90.5 103t-49 124.5t-6.5 134.5t37.5 134.5t82 123t127 99.5q13 7 22.5 5t13 -8.5t1 -14.5t-12.5 -13
q-9 -5 -17 -5t-19 -3t-27 -13t-40 -34q-50 -49 -79.5 -121t-35 -151t14 -157t67.5 -140.5t125.5 -101.5t187.5 -39q109 0 205.5 48.5t185 128t170 181t159.5 207.5q-46 48 -100.5 84.5t-115 61t-124.5 37t-128 12.5q-87 0 -155 -25t-117 -66t-78.5 -93.5t-39.5 -107.5
t-0.5 -107.5t39 -93.5t79 -66t119.5 -25q23 0 40 4.5t28.5 11.5t18.5 14.5t10 12.5q6 10 15 11.5t16 -3t9 -13t-8 -18.5q-14 -14 -46.5 -24.5t-83.5 -10.5q-76 0 -129.5 27t-85 71t-41 100.5t2.5 115.5t44.5 115.5t86 100.5t126.5 71t166 27q86 0 158 -15.5t131 -42
t106.5 -60t83.5 -69.5q37 52 82.5 109t97.5 115q-14 5 -26.5 11.5t-25.5 13.5q-23 -23 -58 -39.5t-86 -16.5q-59 0 -100 23.5t-63.5 61t-25.5 83t13.5 90t53.5 82.5t95 59q22 54 66.5 93t100.5 63.5t117.5 36t117.5 11.5q60 0 93 -3t52 -11q13 -5 16.5 -14t0.5 -17
t-12.5 -12t-22.5 1q-10 4 -15.5 11t-16.5 14t-32.5 12t-63.5 5q-61 0 -116.5 -11.5t-101 -34t-79.5 -55.5t-53 -75q34 7 76 7q44 0 94 -4t103 -8.5t108.5 -8.5t109.5 -4q49 0 86.5 7.5t71.5 16t70 16t84 7.5q33 0 54.5 -7.5t28.5 -18.5q7 0 13.5 0.5t13.5 0.5zM1971 429
q-36 0 -74.5 -19.5t-74 -54t-65.5 -81.5t-50 -100.5t-26.5 -112t4.5 -116.5q83 2 151 39t117 90.5t77.5 115.5t32.5 115.5t-18 88.5t-74 35zM2079 1140q-41 16 -85 17t-94 -26.5t-106.5 -91t-120.5 -176.5q-25 -45 -60 -126q21 -2 42 -3.5t43 -1.5q-5 39 8 81t39.5 83
t64.5 79t82 70t92 56.5t95 38.5zM1566 745q49 100 103 180t117 143q-36 -24 -74.5 -55.5t-78.5 -69.5t-81.5 -81t-81.5 -88q49 -19 96 -29zM1237 755q50 0 79 14.5t46 35.5q-38 22 -73 54t-59 71.5t-33 85.5t6 98q-51 -21 -82 -56t-44 -75t-8.5 -80.5t25.5 -73.5t57 -53.5
t86 -20.5zM1397 810q12 -7 24.5 -13.5t26.5 -12.5q50 55 104 107.5t108.5 98.5t108 82.5t103.5 59.5q-47 -15 -110.5 -16t-134.5 4t-146 11.5t-144 6.5q-43 0 -83 -8q-17 -55 -12 -102t24.5 -85t48.5 -67.5t59 -50.5q8 16 11 32t4 30t8.5 21t16.5 6.5t15.5 -7.5t4.5 -21
q-2 -11 -10.5 -32t-26.5 -44zM1458 760q-51 -57 -98 -116t-89 -116q53 -56 84 -107.5t45 -78.5q41 112 79.5 208.5t79.5 180.5q-26 5 -51.5 12t-49.5 17zM1801 609q-37 8 -63.5 37t-36.5 71q-24 -1 -47.5 0.5t-46.5 4.5q-26 -62 -55 -133.5t-56 -143.5q44 42 93.5 73t93 51
t76 30t42.5 10zM1761 734q117 8 208 41t154.5 77t98 93.5t39 91t-22.5 68.5t-86 27q-35 0 -79 -13.5t-90 -39t-89 -61.5t-75 -80t-48.5 -95.5t-9.5 -108.5z" />
    <glyph glyph-name="ordfeminine" unicode="&#xaa;" horiz-adv-x="448" 
d="M375 647q-4 -13 -9 -28.5t-6.5 -29t2 -23t16.5 -10.5q16 -1 27.5 13t19.5 28q2 2 3.5 1t0.5 -3q-7 -21 -25.5 -40.5t-42.5 -17.5q-17 1 -24.5 10.5t-8.5 22.5t2.5 28t8.5 27h-1q-5 -12 -15.5 -27.5t-24.5 -29t-30.5 -23t-33.5 -8.5q-18 1 -29.5 7t-18 16t-9.5 22t-3 24
q0 30 14.5 64t37 63.5t49.5 49t51 20.5q5 0 13.5 -1.5t16.5 -8.5t14 -20t6 -35q13 35 26.5 47t28.5 13q8 0 7.5 -2.5t-1.5 -3.5q-8 -6 -14.5 -15.5t-13.5 -26.5t-15 -42t-19 -61zM332 793q-20 0 -41 -16t-38.5 -41t-30 -55t-16 -56.5t5 -45.5t33.5 -23q16 -2 31.5 8t30 27
t26 39t19.5 44q12 34 13.5 57t-3 36.5t-13 19.5t-17.5 6z" />
    <glyph glyph-name="Lslash" unicode="&#x141;" horiz-adv-x="886" 
d="M706 304q30 -6 55 -18t37 -30q12 -17 10.5 -33t-17.5 -20q-15 -3 -26.5 5t-22.5 19l-23 23t-28 17q-42 -103 -90 -191t-113 -151q56 -34 113 -73t115 -78.5t117 -76t118 -64.5t117.5 -45t116.5 -17q89 0 157.5 19t120 48.5t87.5 65.5t59.5 69.5t36 61t18.5 40.5t15 16.5
t17 0.5t11.5 -11t-0.5 -17q-42 -78 -98 -137t-124.5 -98t-147 -58.5t-164.5 -19.5q-103 0 -199.5 35t-185.5 87.5t-171.5 113.5t-156.5 112q-54 -45 -119 -69.5t-148 -24.5q-59 0 -99 16.5t-60 41.5t-19.5 54t21.5 54t62.5 41.5t105.5 16.5q63 0 128.5 -25.5t134.5 -65.5
q28 30 53 70t47 84.5t41.5 92.5t36.5 95q-30 5 -60.5 4t-55.5 -4q-29 -4 -56 -9q-6 -2 -10 -2q-9 0 -9 8q0 6 18 12.5t47 12t65 8t72 0.5q16 45 29.5 85.5l24.5 73.5q-30 -6 -61 -9.5t-63 -3.5q-117 0 -190.5 47t-106 120t-26.5 161.5t48 172t119 151t186 98.5q18 5 28 -0.5
t12.5 -14.5t-3 -17.5t-17.5 -9.5q-9 0 -18.5 1t-22 1t-29 -3.5t-38.5 -13.5q-53 -25 -94.5 -67.5t-70 -94.5t-43 -110.5t-14 -115.5t17 -109.5t51 -92t87 -63t124.5 -23.5q35 0 67 4t64 12q23 61 52.5 136.5t65.5 153t77 151t87 131t96 92.5t104 35q38 0 56.5 -24.5
t20.5 -65.5t-13 -94.5t-44.5 -112.5t-73 -119.5t-99.5 -114.5t-123.5 -98.5t-145.5 -70.5q-18 -48 -36 -93.5t-35 -90.5zM1191 1158q-42 0 -80 -26t-73 -71t-67.5 -107t-64 -134t-61.5 -151t-60 -159q95 35 173.5 97t137 134t96 146t51 134.5t1 98.5t-52.5 38zM194 -180
q79 0 139.5 24.5t107.5 67.5q-66 45 -125 73t-112 28q-51 0 -83.5 -14.5t-48 -35.5t-15 -46.5t16.5 -46.5t46 -35.5t74 -14.5z" />
    <glyph glyph-name="Oslash" unicode="&#xd8;" horiz-adv-x="858" 
d="M791 1196h8t8 -1q13 42 7 70q0 2 2.5 6.5t14.5 -8.5q8 -9 13 -27.5t1 -46.5q40 -11 63 -36.5t31 -62t1 -81.5t-26 -94q22 -58 25 -129t-11 -148.5t-43 -157.5t-69.5 -154.5t-91 -140t-108.5 -114.5t-121 -77t-128 -28q-37 0 -75 11q-8 -17 -12.5 -28t-6.5 -15
q-21 -51 -29 -82.5t-3 -54.5q0 -1 -0.5 -3.5t-2 -3.5t-5 0.5t-9.5 8.5q-7 9 -11.5 23t-4.5 34.5t6.5 46.5t21.5 59q4 9 14 31q-49 24 -87 71t-58 116t-18.5 160.5t31.5 205.5q-63 41 -95 104t-32 135q0 67 23 121t60.5 96t84 72.5t94 50t91.5 29t75 9.5q19 0 26.5 -8
t6 -17.5t-10 -16.5t-20.5 -5q-14 2 -25.5 6t-26 6t-33 0.5t-46.5 -9.5q-79 -24 -134.5 -65t-89.5 -91.5t-46.5 -107t-4.5 -110t35.5 -100.5t73.5 -79q28 86 73 166t100.5 150t119 127.5t128 99t127.5 64.5t119 23zM369 -14q64 0 122 26.5t109.5 72.5t95 107.5t78.5 130.5
t60.5 142.5t40 144t17.5 134.5t-6 113q-48 -94 -133 -173.5t-191 -129.5q-40 -85 -78.5 -168t-73 -156.5t-63 -133.5t-46.5 -99q33 -11 68 -11zM766 1167q-53 0 -110 -25.5t-115 -69.5t-113 -104.5t-103.5 -130t-87.5 -146t-63 -153.5q82 -32 169 -25.5t171 40.5
q49 104 95.5 203t83.5 178.5t61 130.5t27 59q5 11 9 21.5t7 19.5q-8 1 -15.5 1.5t-15.5 0.5zM261 16q17 37 43 92.5t58 123t67.5 143.5t72.5 154q-83 -30 -168 -34.5t-165 25.5q-23 -85 -28.5 -164t6.5 -145.5t41 -116.5t73 -78zM734 920q-35 -74 -75.5 -160.5t-82.5 -177.5
q51 27 98 62t86 75t69.5 82.5t49.5 84.5q-13 42 -37.5 65.5t-62.5 23.5q-11 0 -17 -6t-8.5 -15t-2.5 -19t2 -19q2 -8 -4 -10.5t-11 6.5q-2 2 -4 8zM818 1101q-8 -17 -18.5 -39t-21.5 -47q5 1 9.5 1.5t10.5 0.5q32 0 58 -20.5t46 -55.5q25 75 11 133t-75 81l-8.5 -25.5
t-11.5 -28.5z" />
    <glyph glyph-name="OE" unicode="&#x152;" horiz-adv-x="1417" 
d="M1512 1153q71 0 104.5 -29.5t31 -75t-40 -99t-107 -102t-170 -84.5t-229.5 -45q10 -29 31.5 -48.5t48 -30t52.5 -12.5t45 3q9 2 12.5 -0.5t-1.5 -8.5q-6 -6 -18 -9.5t-25 -5.5q-112 -12 -195.5 -46.5t-141 -82.5t-90 -105.5t-43 -116.5t0.5 -114t40.5 -98.5t76 -70.5
t108.5 -29q-11 61 -4 123t27 119.5t52.5 108t71.5 88t84 59t91 21.5q43 0 68.5 -22t34.5 -58t3 -83t-27 -96t-56 -96.5t-82.5 -86.5t-107.5 -64.5t-131 -30.5q15 -60 52 -115t103 -102q9 -6 3 -14t-15 -2q-69 47 -108 106.5t-55 125.5q-71 -2 -128 20.5t-95.5 62.5t-57 94.5
t-11.5 116.5q-39 -55 -83.5 -101t-93 -79.5t-100.5 -52.5t-105 -19q-72 0 -134 36t-100.5 108.5t-45.5 181.5t31 254q-63 41 -95 104t-32 135q0 67 23 121t60.5 96t84 72.5t94 50t91.5 29t75 9.5q19 0 26.5 -8t6 -17.5t-10 -16.5t-20.5 -5q-14 2 -25.5 6t-26 6t-33 0.5
t-46.5 -9.5q-79 -24 -134.5 -65t-89.5 -91.5t-46.5 -107t-4.5 -110t35.5 -100.5t73.5 -79q30 92 79.5 177t110.5 158.5t130 132t138 97.5q21 55 66 94.5t101 64.5t118 37t118 12q60 0 93 -3t52 -11q13 -5 16.5 -14t0.5 -17t-12.5 -12t-22.5 1q-10 4 -15.5 11t-16.5 14
t-32.5 12t-63.5 5q-59 0 -112 -11t-98 -32t-79.5 -51.5t-54.5 -70.5q40 17 78 26.5t73 9.5q58 0 93 -23t49 -61.5t8.5 -89.5t-27.5 -107q15 -38 21.5 -81t4.5 -91q32 -7 64.5 -10t65.5 -3q-6 46 13 95.5t55.5 96.5t86 89t104.5 73.5t111.5 50t106.5 18.5zM1308 427
q-36 0 -74.5 -19.5t-74 -54t-65.5 -81.5t-50 -100.5t-26.5 -112t4.5 -116.5q83 2 151 39t117 90.5t77.5 115.5t32.5 115.5t-18 88.5t-74 35zM858 755q1 28 -0.5 53.5t-6.5 48.5q-20 -40 -51 -82q14 -5 28.5 -10t29.5 -10zM731 1167q-65 0 -140 -40q-18 -66 -7 -120.5
t40 -97.5t71.5 -74t86.5 -52q39 51 62 103q-13 42 -37.5 65.5t-62.5 23.5q-11 0 -17 -6t-8.5 -15t-2.5 -19t2 -19q2 -8 -4 -10.5t-11 6.5q-8 13 -9.5 31t4.5 34.5t22 28t43 11.5q32 0 58 -20.5t46 -55.5q15 46 16 87.5t-15 72t-49.5 48.5t-87.5 18zM536 1094
q-62 -42 -121.5 -103.5t-112 -135t-95 -154.5t-68.5 -163q83 -33 172 -25.5t173 42.5t158 91.5t128 121.5q-51 22 -98.5 53.5t-81 72.5t-49.5 91t-5 109zM334 -14q74 0 140.5 35.5t123.5 94.5t102.5 136t79 160.5t53.5 168t24 157.5q-17 5 -34 10.5t-34 11.5
q-56 -71 -133.5 -129t-164.5 -93.5t-179 -42.5t-178 25q-29 -107 -30 -204t25 -170.5t78 -116.5t127 -43zM1138 607q-37 8 -63.5 37t-36.5 71q-68 -2 -134 12q-4 -67 -21 -138t-45 -142q43 41 92 71t92 50t74.5 29.5t41.5 9.5zM1098 732q117 8 208 41t154.5 77t98 93.5
t39 91t-22.5 68.5t-86 27q-34 0 -78.5 -13.5t-90.5 -39t-89 -61.5t-75 -80t-48.5 -95.5t-9.5 -108.5z" />
    <glyph glyph-name="ordmasculine" unicode="&#xba;" horiz-adv-x="660" 
d="M535 699q-5 -27 -18.5 -45.5t-32 -30t-41.5 -17t-45 -6.5q-24 -1 -40.5 7t-26 21t-11.5 29.5t3 32.5q13 42 39 63t67 29q24 5 45 0t35.5 -17t21.5 -29t4 -37zM458 769q-30 8 -53.5 -13t-35.5 -53q-11 -29 -3 -54.5t34 -32.5q29 -7 53 13.5t34 53.5q10 31 3.5 55t-32.5 31
z" />
    <glyph glyph-name="ae" unicode="&#xe6;" horiz-adv-x="758" 
d="M652 512q27 5 50 -0.5t39 -18.5t25 -32.5t8 -41.5q-2 -47 -38.5 -87.5t-90 -74.5t-116 -61.5t-116.5 -48.5q-1 -54 21.5 -84.5t68.5 -33.5q27 -2 54.5 9.5t53 32.5t47 49.5t37.5 58.5q4 8 8.5 5.5t2.5 -8.5q-7 -23 -28.5 -56t-53 -62t-71 -48.5t-83.5 -15.5
q-36 4 -60.5 19t-38 38t-18 52.5t0.5 62.5v-1h-2q-9 -23 -29.5 -53t-48 -57t-60 -45.5t-65.5 -16.5q-34 2 -56.5 14.5t-35.5 31.5t-18.5 42t-5.5 46q0 39 13 82.5t35.5 86t52 81t62 68.5t66.5 48t66 19q10 0 27 -3.5t32.5 -17t27 -38.5t11.5 -68q11 2 21.5 4t27.5 18
q38 41 82.5 69t94.5 36zM170 31q30 -5 61 14.5t59 53t51 76t38 84.5q23 67 26 111.5t-6 71.5t-26 38.5t-34 11.5q-29 0 -59.5 -18t-59 -48.5t-53 -70t-42 -81.5t-26.5 -83t-5 -74.5t22 -56.5t54 -29zM723 414q5 35 -11 57t-47 24q-39 0 -72.5 -19t-61 -50t-48.5 -68.5
t-36 -74.5t-23.5 -68.5t-9.5 -49.5q78 29 134 59.5t93 62t56.5 63.5t25.5 64z" />
    <glyph glyph-name="dotlessi" unicode="&#x131;" horiz-adv-x="229" 
d="M212 362q-9 -27 -26 -71t-36.5 -94.5t-39 -102.5t-34.5 -94q-26 18 -28 52t11 69q13 36 29 75.5t30 74t24.5 60.5t14.5 36q18 48 14 76.5t-32 28.5q-12 0 -25.5 -9.5t-26.5 -23.5q-5 -5 -9.5 -1t-1.5 8q20 21 44.5 39.5t49.5 17.5q16 0 30 -6.5t21.5 -22t6.5 -43
t-16 -69.5z" />
    <glyph glyph-name="lslash" unicode="&#x142;" horiz-adv-x="282" 
d="M780 1181q49 0 74 -13t19 -30q-5 -13 -18 -14t-25 4q-43 19 -92 25.5t-102 -18t-111 -88t-119 -184.5q-20 -38 -47 -103.5t-55.5 -143t-56.5 -159t-51 -150.5q41 -4 74.5 -15.5t48.5 -34.5q12 -17 10.5 -33t-17.5 -21q-13 -4 -22.5 1t-18.5 14t-18.5 20t-22.5 20
q-20 14 -44 20q-7 -21 -12 -36.5t-11 -33.5q-8 -24 -17.5 -54t-12 -56.5t4.5 -45t32 -20.5q15 -1 28.5 6t25 19t21 26t17.5 28q2 3 5.5 2t1.5 -6q-7 -21 -19.5 -41.5t-30 -37t-38.5 -26.5t-45 -8q-25 1 -38.5 12.5t-19 28t-4.5 36t4.5 38.5t8.5 34t7 23q10 31 19.5 61
t18.5 59q-26 2 -50.5 -0.5t-44.5 -5.5q-23 -4 -43 -9q-6 -1 -10 -1q-9 0 -9 8q0 5 14 10.5t37 10t52.5 7.5t61.5 3q64 199 129.5 360.5t140.5 275t165.5 175t204.5 61.5z" />
    <glyph glyph-name="oslash" unicode="&#xf8;" horiz-adv-x="484" 
d="M489 533q7 0 -3 -12q-4 -4 -16 -19.5t-31 -38.5q23 -35 25.5 -86t-11.5 -106.5t-43 -109t-69 -93.5t-89.5 -60.5t-104.5 -9.5q-35 7 -58 30q-23 -29 -27 -33q-8 -9 -16.5 -15t-25.5 -10q-9 -2 -3 6q1 1 16 20t41 51q-22 34 -25 84.5t10 105t40.5 107.5t66.5 93.5t87.5 62
t104.5 13.5q41 -6 66 -32l24 29q18 23 41 23zM352 499q-34 6 -68 -12.5t-65 -53.5t-56.5 -81.5t-42.5 -95t-23 -95.5t3 -82q34 42 76 94l84 104t80 99.5t65 80.5q-17 35 -53 42zM158 11q34 -10 68.5 7.5t65.5 52.5t57 82t42.5 97t23 97.5t-1.5 83.5q-33 -41 -74 -92.5
t-83 -103.5t-80.5 -100t-66.5 -82q16 -33 49 -42z" />
    <glyph glyph-name="oe" unicode="&#x153;" horiz-adv-x="773" 
d="M664 512q27 5 50 -0.5t39 -18.5t25 -32.5t8 -41.5q-2 -47 -38.5 -87.5t-90 -74.5t-116 -61.5t-116.5 -48.5q-1 -54 21.5 -84.5t67.5 -33.5q27 -2 55 9.5t53.5 32.5t47 49.5t37.5 58.5q4 8 8.5 5.5t2.5 -8.5q-7 -23 -28.5 -56t-53 -62t-71 -48.5t-83.5 -15.5
q-53 5 -80.5 34t-35.5 71q-42 -52 -95.5 -82t-114.5 -21q-50 7 -75 36t-32.5 69t-1 85.5t20.5 87.5t31.5 74t32.5 44q2 2 4 2t2 -3q2 -6 6.5 -16t16.5 -22q5 -5 4.5 -10.5t-2.5 -8.5q-30 -47 -48 -101t-20 -101.5t14 -82t55 -41.5q34 -6 65 9.5t57.5 46.5t48.5 73t40 88
q17 45 29 90t12 82.5t-14 64.5t-49 36q-18 4 -37.5 1.5t-36 -11t-27.5 -20.5t-11 -26q0 -11 4 -18.5t4 -19.5q0 -18 -13 -32t-32 -14t-31.5 13.5t-12.5 32.5q0 21 18.5 43.5t48 39t65.5 24t72 -0.5q48 -11 71.5 -46.5t27.5 -84.5q40 51 91.5 87.5t109.5 45.5zM735 414
q5 35 -11 57t-48 24q-39 0 -72.5 -19t-60.5 -50t-48.5 -68.5t-36 -74.5t-23 -68.5t-9.5 -49.5q78 29 134 59.5t93 62t56.5 63.5t25.5 64z" />
    <glyph glyph-name="germandbls" unicode="&#xdf;" horiz-adv-x="539" 
d="M667 753q0 -40 -16.5 -73t-52.5 -66t-91.5 -70t-131.5 -85q-29 -18 -34.5 -39t0.5 -40.5t18.5 -35.5t21.5 -26q18 -21 38.5 -40t38 -39.5t29.5 -43.5t14 -51q0 -13 -6.5 -38t-25.5 -49.5t-54 -43t-91 -18.5q-29 0 -54.5 6t-44 19t-28.5 34.5t-8 52.5q2 32 15.5 44
t28.5 10.5t26 -14.5t7 -31q-2 -11 -6 -18.5t-8 -14t-7 -12.5t-3 -14q0 -11 8 -20t20 -16t25 -10.5t23 -3.5q22 0 46 6t43 20.5t31.5 37t12.5 55.5q0 21 -11.5 41t-29.5 40t-38.5 41t-38.5 42q-9 11 -25 31.5t-21.5 47t7.5 57t62 62.5q61 39 113.5 69t90.5 59t60 61t22 74
q0 38 -24.5 64t-69.5 26q-69 0 -122 -35.5t-94 -92.5t-72 -129.5t-55 -147t-43 -144.5t-36 -122q-25 -75 -49 -114t-43.5 -55t-32 -15t-15.5 6q-1 2 2.5 6t10 12t15.5 22t18 37q36 88 64.5 181t58 181.5t63.5 167.5t79.5 137.5t106 93t144.5 33.5q53 -1 86 -31.5t33 -78.5z
" />
    <glyph glyph-name="onesuperior" unicode="&#xb9;" horiz-adv-x="423" 
d="M476 624q9 1 12.5 -0.5t4 -3.5t-0.5 -4t-2 -2q-21 -14 -37.5 -45t-36.5 -89q-2 -5 -12 -35.5t-25.5 -75t-33.5 -97t-35 -101t-30.5 -87t-19.5 -54.5q-4 -9 -9 -13t-9 -6t-10.5 -4.5t-13.5 -5t-13 -5t-7 -2.5q-3 -1 -6 1.5t-1 5.5q35 98 71 197.5t75 213.5
q-25 -48 -69 -96.5t-94 -88.5t-100.5 -67.5t-89.5 -33.5q-8 -2 -8 3.5t6 7.5q47 15 91 42t83.5 61t74 73t63.5 78.5t52 77.5t38 69q13 26 25.5 42.5t24 26t22.5 13.5t20 4z" />
    <glyph glyph-name="logicalnot" unicode="&#xac;" horiz-adv-x="707" 
d="M512 291l-367 1l10 33h411l-40 -133h-42z" />
    <glyph glyph-name="mu" unicode="&#xb5;" horiz-adv-x="599" 
d="M108 14q-24 -70 -42.5 -122t-23.5 -68q-31 -90 -70 -148t-78.5 -92t-76 -48t-62.5 -15q-28 -1 -60.5 6t-57.5 19.5t-35 29t8 35.5q5 6 16.5 9t25.5 -8q9 -9 15.5 -21.5t16.5 -24.5t26.5 -20.5t45.5 -8.5q33 -1 65 20t61 55.5t53.5 80t42.5 93.5q15 41 38 106t50 144
t57 167.5t59 176.5q17 52 14 79.5t-31 28.5q-13 0 -28 -11.5t-28.5 -26t-23 -27.5t-10.5 -15q-4 -5 -9.5 -2.5t-0.5 8.5q2 3 14.5 20t31 35.5t40.5 34t45 15.5q16 0 30 -6.5t21.5 -22.5t6.5 -43.5t-16 -69.5q-6 -17 -19 -49.5t-26.5 -71.5t-24.5 -79.5t-13.5 -74.5
t5.5 -56.5t34 -25.5q28 -3 56 11.5t54.5 42.5t49.5 65.5t41 81.5q17 39 30.5 78.5t29.5 85.5q12 34 25 57.5t26.5 38t28 21t28.5 7.5q8 0 11.5 -1t4 -3t-0.5 -4t-2 -2q-16 -11 -29 -32t-26.5 -55t-30 -84t-38.5 -120q-8 -25 -17 -54.5t-12 -56t4 -45t32 -21.5q14 -1 27.5 6
t25 19t21.5 26t17 28q2 4 5.5 2.5t1.5 -6.5q-6 -20 -19 -40.5t-30 -37t-38 -26.5t-45 -9q-28 1 -42.5 15.5t-19 36t-0.5 47.5t13 50h-2q-9 -18 -27.5 -43.5t-44.5 -49.5t-58.5 -40.5t-69.5 -15.5q-42 1 -66 21z" />
    <glyph glyph-name="mu" unicode="&#x3bc;" horiz-adv-x="599" 
d="M108 14q-24 -70 -42.5 -122t-23.5 -68q-31 -90 -70 -148t-78.5 -92t-76 -48t-62.5 -15q-28 -1 -60.5 6t-57.5 19.5t-35 29t8 35.5q5 6 16.5 9t25.5 -8q9 -9 15.5 -21.5t16.5 -24.5t26.5 -20.5t45.5 -8.5q33 -1 65 20t61 55.5t53.5 80t42.5 93.5q15 41 38 106t50 144
t57 167.5t59 176.5q17 52 14 79.5t-31 28.5q-13 0 -28 -11.5t-28.5 -26t-23 -27.5t-10.5 -15q-4 -5 -9.5 -2.5t-0.5 8.5q2 3 14.5 20t31 35.5t40.5 34t45 15.5q16 0 30 -6.5t21.5 -22.5t6.5 -43.5t-16 -69.5q-6 -17 -19 -49.5t-26.5 -71.5t-24.5 -79.5t-13.5 -74.5
t5.5 -56.5t34 -25.5q28 -3 56 11.5t54.5 42.5t49.5 65.5t41 81.5q17 39 30.5 78.5t29.5 85.5q12 34 25 57.5t26.5 38t28 21t28.5 7.5q8 0 11.5 -1t4 -3t-0.5 -4t-2 -2q-16 -11 -29 -32t-26.5 -55t-30 -84t-38.5 -120q-8 -25 -17 -54.5t-12 -56t4 -45t32 -21.5q14 -1 27.5 6
t25 19t21.5 26t17 28q2 4 5.5 2.5t1.5 -6.5q-6 -20 -19 -40.5t-30 -37t-38 -26.5t-45 -9q-28 1 -42.5 15.5t-19 36t-0.5 47.5t13 50h-2q-9 -18 -27.5 -43.5t-44.5 -49.5t-58.5 -40.5t-69.5 -15.5q-42 1 -66 21z" />
    <glyph glyph-name="trademark" unicode="&#x2122;" horiz-adv-x="1208" 
d="M1265 402q5 10 12 7.5t3 -12.5q-5 -11 -20 -28.5t-39 -33t-55.5 -26t-67.5 -7.5q-57 4 -90 30.5t-48 66.5t-15.5 89.5t8.5 101.5t26.5 98t38.5 85t43 70t39 53q-44 -38 -83 -90.5t-69.5 -104t-51.5 -94t-30 -61.5q-3 -7 -5.5 -10.5t-8.5 -5.5q-7 -1 -11 13q-6 27 -4.5 63
t7.5 74t14 76t16 69q-5 -12 -16 -33.5t-26.5 -49t-33.5 -59t-36 -64.5q-29 -50 -74 -79t-98 -29q-18 0 -38.5 5t-37.5 17t-27.5 31t-8.5 47q3 39 20.5 62t37.5 34.5t37.5 15t20.5 3.5q6 0 8.5 -2.5t2.5 -6t-2.5 -6t-6.5 -1.5q-8 1 -15 2.5t-22 -3.5q-9 -3 -19 -12
t-18.5 -21.5t-14 -29t-6.5 -35.5q-2 -41 23.5 -65.5t67.5 -24.5q48 0 90.5 28.5t77.5 89.5q13 24 27.5 49.5t28 50.5t26 46.5t21.5 38.5q14 25 16.5 49t-5.5 42t-25.5 29t-42.5 11q-14 0 -26 -2.5t-23 -6.5q14 -8 13 -21.5t-14 -26.5t-38 -23.5t-59 -11.5q-21 -40 -20 -67.5
t14 -45t32.5 -25.5t34.5 -8q21 0 32 2.5t16.5 6t8 8t7.5 7.5q8 5 12 -1t-5 -12q-16 -11 -34.5 -14.5t-36.5 -3.5q-12 0 -33 6t-37.5 23.5t-20.5 47t18 75.5q-44 -2 -84.5 7.5t-67.5 19.5q-7 -21 -16.5 -52.5t-20 -65t-20.5 -64.5t-16 -52q-15 -49 -35 -76t-41 -37t-42 -6.5
t-39 15.5q-10 7 -5.5 14t14.5 0q4 -3 7 -7t7.5 -7.5t12 -6t20.5 -0.5q19 2 34.5 20.5t28.5 58.5q1 5 7 24t14 45t17.5 56.5t19 59t17 52.5t11.5 38q-31 12 -61.5 23t-67.5 16q-23 3 -44.5 0t-39.5 -12.5t-31 -26t-17 -40.5q-5 -30 11 -50.5t40.5 -31.5t52 -12.5t45.5 7.5
q17 8 21.5 19t10.5 16q7 7 13 2t-2 -15q-13 -18 -35.5 -27t-48 -10.5t-51 4.5t-45 19t-30.5 32t-7 44q3 19 13.5 38t30 32.5t48.5 20t68 1.5q35 -5 67 -15t63 -21q2 7 10.5 9.5t15.5 5.5q5 1 5 -3q0 -2 -1 -5q-1 -1 -2 -4q-1 -2 -1.5 -5.5t-2.5 -7.5q31 -11 70 -22t84 -9
q11 18 30 37.5t45 34.5q-7 0 -13 -3q-10 -3 -13.5 -7t-8.5 -6q-8 -2 -11 4t7 9q5 2 22 7.5t33 3.5q14 6 30 10t34 6q43 3 72.5 -24.5t26.5 -75.5q-2 -31 -9 -66t-14.5 -71.5t-13.5 -73.5t-6 -73q0 -10 2 -10q1 0 2 1.5t4 7.5q67 136 127 215.5t107.5 120t81 51.5t47.5 10
q15 -1 20.5 -6.5t4.5 -10.5t-7 -8t-13 1q-17 11 -40 8t-47 -25t-52 -61t-53 -86.5t-44.5 -99.5t-27.5 -100q-8 -52 -8 -100.5t13 -87t41.5 -63t77.5 -29.5q38 -4 67.5 8t50.5 28.5t33 33t15 22.5zM664 871q29 2 48 11t28.5 20.5t9.5 22t-10 15.5q-26 -13 -45 -32t-31 -37z
" />
    <glyph glyph-name="Eth" unicode="&#xd0;" horiz-adv-x="1474" 
d="M837 1189q113 0 205.5 -25t164.5 -67t125 -98.5t87.5 -119t51.5 -128t17 -126.5q0 -91 -21.5 -178.5t-61.5 -166.5t-96 -145.5t-125.5 -115t-150 -76t-168.5 -27.5q-43 0 -84 11t-81 29t-78 41t-75 46q-49 -53 -110 -87t-136 -34q-62 0 -102.5 18t-60 45t-19 58t21 58
t59.5 45t96 18q64 0 123.5 -27t118.5 -63q40 56 75 142q-116 -12 -209.5 17.5t-159.5 87t-101.5 136.5t-35.5 167q0 67 23 135t67.5 131t108 117.5t145 95t178.5 63.5t208 23zM865 -67q82 0 155 27.5t135.5 75.5t112.5 113.5t85 142t54 161t19 169.5q0 103 -30.5 192.5
t-88 159.5t-140 117.5t-185.5 66.5q-11 2 -16 -5t-8 -17q-4 -11 -18 -57t-34 -113.5t-45 -149.5t-50 -165q35 -4 65 -16t46 -35q12 -17 10.5 -33t-17.5 -21q-13 -3 -26 5t-27 21t-29 26.5t-32 19.5q-20 -66 -39.5 -128t-36.5 -112.5t-30.5 -86t-21.5 -49.5q53 13 97 35.5
t75.5 49t48.5 55t17 53.5q0 12 7.5 18.5t16 7t16 -5.5t7.5 -19q0 -15 -20.5 -44.5t-58.5 -61t-92 -61t-122 -44.5q-21 -43 -46.5 -85.5t-57.5 -80.5q36 -23 73 -45.5t74.5 -40.5t76.5 -29t80 -11zM158 622q0 -51 12 -102t37 -97.5t62.5 -85.5t89 -65t116.5 -37.5t144 -2.5
q9 20 22.5 59.5t31 92t37 115.5t40.5 130q-19 1 -35.5 -1t-28.5 -5q-15 -4 -27 -8q-6 -1 -10 -1q-10 0 -10 8q0 5 9.5 10t26 9.5t37.5 7.5t45 4q22 72 43.5 144.5t41 138t35 120.5t25.5 93q2 8 -1.5 14t-17.5 7q-115 5 -213 -14.5t-179 -58t-143 -92t-104 -116t-64 -131
t-22 -136.5zM300 -62q63 0 118.5 25.5t106.5 92.5q-60 38 -117 66t-112 28q-44 0 -73.5 -15.5t-44.5 -39.5t-15.5 -51t14.5 -51t45.5 -39.5t77.5 -15.5z" />
    <glyph glyph-name="onehalf" unicode="&#xbd;" horiz-adv-x="1125" 
d="M879 844q-23 -37 -60.5 -97t-83.5 -134.5t-98 -157t-103 -164.5t-98 -157.5t-84 -134.5t-60.5 -97t-27.5 -45q-24 -43 -34.5 -70.5t-8.5 -48.5q0 -1 -1 -3t-2.5 -2.5t-4.5 1t-7 7.5q-11 18 -8.5 53.5t36.5 92.5q10 16 40.5 65t74.5 119t97 154.5t107.5 171t106 168.5
t92 147.5t66.5 107.5t30 49q26 45 37 73t9 51q0 2 2.5 5t12.5 -9q11 -16 8 -52t-38 -93zM372 566q-20 -39 -55.5 -78.5t-76.5 -72t-82.5 -55t-72.5 -27.5q-8 -1 -7.5 3t5.5 6q57 18 109 58.5t95 88.5t74.5 96.5t48.5 83.5q21 43 40.5 56t35.5 14q13 1 12.5 -3t-1.5 -5
q-17 -12 -30.5 -37t-29.5 -72q-2 -4 -10.5 -29t-21 -61.5t-27 -79t-28.5 -82t-25 -71t-16 -44.5q-3 -7 -7 -10t-7 -5t-8.5 -4t-11.5 -4t-10.5 -4t-5.5 -2q-2 -1 -4.5 1t-1.5 5q8 23 22.5 63t31 87t34 95.5t31.5 88.5zM892 499q28 3 58 -0.5t54.5 -15.5t39.5 -34t14 -56
q-2 -41 -24.5 -73t-65.5 -67t-105.5 -78.5t-142.5 -107.5q35 16 61 13.5t46 -13.5t37 -26.5t34 -26.5t37 -13.5t47 13.5q8 5 11.5 0.5t-5.5 -9.5q-48 -26 -79.5 -24.5t-55 14.5t-43 31t-42 25.5t-52 -2.5t-73.5 -53q-11 -11 -21.5 -12.5t-16 2.5t-4.5 12t12 17q9 7 31 22.5
t51 36t62.5 44.5t65.5 48t59.5 46t45.5 38q46 41 64.5 84.5t13 78t-33.5 55t-76 15.5q-45 -4 -77.5 -29t-50 -58t-18.5 -69t17 -61q10 -14 21.5 -15.5t16.5 12.5q8 19 22 21q11 2 18 -3.5t9 -14t-2 -16.5t-14 -11q-47 -14 -77.5 -2t-44.5 38.5t-10.5 62t25 69t61.5 59.5
t100 33z" />
    <glyph glyph-name="plusminus" unicode="&#xb1;" horiz-adv-x="583" 
d="M477 321l-13 -35l-135 1l-50 -138h-41l50 138h-138l12 33h138l44 121h41l-44 -121zM46 45h412l-13 -34h-411z" />
    <glyph glyph-name="Thorn" unicode="&#xde;" horiz-adv-x="1293" 
d="M1166 1180q90 -8 163.5 -35.5t126 -71.5t81.5 -103.5t29 -130.5q0 -85 -37.5 -160.5t-100 -132.5t-144 -90.5t-168.5 -33.5q-51 0 -80.5 11t-41.5 26.5t-9.5 32t16.5 27.5q5 5 11 5t1 -8q-6 -10 -2.5 -22.5t17.5 -24t39 -19.5t61 -8q78 0 147 31t121 84t82 124t30 151
t-28 137t-74 95.5t-104 59.5t-119 29q-17 2 -21.5 -3.5t-7.5 -14.5q-4 -11 -14.5 -44.5t-26.5 -83t-35.5 -110.5t-40.5 -126t-42 -129.5t-40 -121.5t-34 -102.5t-25 -71.5q-15 -41 -37.5 -89t-53 -95.5t-68.5 -91.5t-85.5 -77.5t-103.5 -53.5t-122 -20q-125 0 -208.5 39.5
t-129 102t-55.5 138.5t12 150t73.5 137t129.5 98q8 70 40.5 141.5t85.5 138t127 125t165 101.5t198.5 68t229.5 25h14q30 100 66.5 171t75.5 116t78.5 66t75.5 21q35 2 69 -5t56.5 -19.5t30 -29.5t-10.5 -36q-5 -6 -16.5 -9t-25.5 8q-9 9 -15.5 21.5t-16.5 24.5t-26.5 20.5
t-45.5 8.5q-36 0 -69.5 -26.5t-63.5 -74t-56 -114t-48 -146.5zM1093 1138q6 21 -18 21q-59 -1 -133 -11.5t-152.5 -35t-155.5 -65t-143.5 -101.5t-116.5 -145.5t-73 -196.5q53 14 111 14q82 0 130.5 -24t69.5 -59.5t17.5 -77.5t-26 -77.5t-60.5 -59.5t-86 -24q-52 0 -91 23
t-65 60t-39.5 83.5t-13.5 94.5q-47 -28 -81.5 -69.5t-55 -90t-27.5 -101.5t2 -104t33.5 -97t67 -81t103 -55.5t140.5 -20.5q44 0 99.5 18t112.5 65.5t110.5 128.5t94.5 207q81 252 141.5 443.5t104.5 337.5zM299 581q-3 -45 5.5 -91t28 -83t51 -60.5t74.5 -23.5
q42 0 75 20.5t52 51.5t22 67.5t-16 67.5t-62 51.5t-115 20.5q-32 0 -60.5 -5.5t-54.5 -15.5z" />
    <glyph glyph-name="onequarter" unicode="&#xbc;" horiz-adv-x="1063" 
d="M906 844q-23 -37 -60.5 -97t-84 -134.5t-98.5 -157t-103 -164.5t-98 -157.5t-84 -134.5t-60 -97t-27 -45q-24 -43 -35 -70.5t-9 -48.5q0 -1 -1 -3t-2.5 -2.5t-4.5 1t-7 7.5q-11 18 -8.5 54t37.5 92q10 16 40.5 65t74.5 119t97 154.5t107 171t105.5 168.5t92.5 147.5
t67 107.5t30 49q26 45 36.5 73t8.5 51q0 2 3 5t12 -9q6 -8 8.5 -21t0 -31t-11.5 -41.5t-26 -51.5zM373 566q-20 -39 -55.5 -78.5t-76.5 -72t-82.5 -55t-72.5 -27.5q-8 -1 -7.5 3t5.5 6q57 18 108.5 58t94 88t74.5 96.5t50 84.5q21 42 40 55.5t36 14.5q13 1 12 -3t-2 -5
q-17 -12 -30.5 -37t-29.5 -72q-1 -4 -9.5 -29t-21 -61.5t-27 -79t-28.5 -82t-25 -71t-16 -44.5q-3 -7 -7 -10t-7 -5t-8.5 -4t-11.5 -4t-10.5 -4t-5.5 -2q-2 -1 -4.5 1t-1.5 5q8 23 22.5 63t31 87t34 95.5t31.5 88.5zM983 495q13 1 12.5 -3t-1.5 -5q-17 -12 -31 -37t-29 -72
q-2 -5 -12 -35t-24.5 -73t-31.5 -91t-31 -88q22 -2 36.5 1.5t23.5 8.5t14 11.5t8 10.5q5 7 10.5 7.5t8.5 -2t3 -7t-4 -7.5q-27 -21 -53 -29t-52 -10l-14 -38.5t-10 -25.5q-6 -13 -14 -15q-3 -2 -8.5 -4t-11.5 -4t-10.5 -4t-5.5 -2q-2 -1 -4.5 1t-1.5 4q6 16 14 39t19 52
q-24 3 -48.5 7t-49 6t-49.5 0t-50 -12q-7 -2 -9.5 4t5.5 10q26 14 58 39t65.5 56t66 65t60 66.5t48 61.5t30.5 50q15 32 34.5 47.5t38.5 16.5zM628 101q43 12 83 7t78 -11q12 34 25.5 71t26 73t24 69t20.5 57q-15 -26 -45.5 -62.5t-67 -74.5t-75 -72.5t-69.5 -56.5z" />
    <glyph glyph-name="divide" unicode="&#xf7;" horiz-adv-x="641" 
d="M131 282l12 33h373l-13 -34zM348 395q-14 0 -24 9.5t-10 23.5t10 24t24 10t23.5 -10t9.5 -24t-9.5 -23.5t-23.5 -9.5zM294 134q-14 0 -24 10t-10 24t10 23.5t24 9.5t23.5 -9.5t9.5 -23.5t-9.5 -24t-23.5 -10z" />
    <glyph glyph-name="brokenbar" unicode="&#xa6;" horiz-adv-x="427" 
d="M424 1170q8 2 12 1t4.5 -2.5t0 -3.5t-1.5 -3q-17 -17 -29.5 -48t-23.5 -87q-4 -16 -10.5 -55l-14.5 -87t-17 -99t-16 -92q-13 -72 -36.5 -103.5t-46.5 -37.5q-8 -3 -12 -2t-4.5 3t0 4t1.5 3q17 17 28.5 47t23.5 83q4 16 7.5 36t9.5 56t16 94t27 152q6 36 16 62t21 43
t23 25.5t22 10.5zM274 300q8 1 11.5 0.5t4.5 -2t0 -3.5t-2 -3q-17 -17 -29 -48.5t-24 -86.5q-3 -17 -9.5 -55.5t-14.5 -87t-17 -99.5t-16 -92q-7 -36 -16.5 -61t-21 -41.5t-23.5 -26t-23 -12.5q-8 -2 -12 -1.5t-4.5 2.5t0 4t1.5 3q17 17 29 47t23 84q4 16 7.5 36t9.5 55.5
t16 94t27 152.5q13 72 37.5 104t45.5 37z" />
    <glyph glyph-name="degree" unicode="&#xb0;" horiz-adv-x="546" 
d="M418 628q-5 -27 -18.5 -45.5t-32 -30t-41.5 -17t-45 -6.5q-24 -1 -40.5 7t-26 21t-11.5 29.5t3 32.5q13 42 39 63t67 29q24 5 45 0t35.5 -17t21.5 -29t4 -37zM341 698q-30 8 -53.5 -13t-35.5 -53q-11 -29 -3 -54.5t34 -32.5q29 -7 53 13.5t34 53.5q10 31 3.5 55t-32.5 31
z" />
    <glyph glyph-name="thorn" unicode="&#xfe;" horiz-adv-x="522" 
d="M172 285q-21 -64 -30 -115.5t-5 -88t21 -56t48 -19.5q28 0 60.5 17.5t63.5 48.5t57.5 73t43.5 92q29 82 28 136.5t-21.5 82t-55.5 30t-73.5 -19.5t-75.5 -68t-61 -113zM143 381q35 103 79.5 201.5t97 186t113 161t128 126.5t141 82t153.5 28q47 -1 73 -13t18 -32
q-5 -13 -20 -14t-29 7q-79 45 -170.5 17t-184.5 -123.5t-182 -254.5t-161 -375q27 52 66.5 83t81 42t79.5 2t62.5 -38.5t30 -79t-18.5 -118.5q-20 -59 -53 -110t-72.5 -88.5t-81 -59t-78.5 -21.5q-54 0 -84 22.5t-41 59.5q-15 -45 -29.5 -85.5t-25.5 -73.5t-19.5 -56
t-11.5 -33q-31 -90 -70 -148t-78.5 -92t-76 -48t-62.5 -15q-28 -1 -60.5 6t-57.5 19.5t-35 29t8 35.5q5 6 16.5 9t25.5 -8q9 -9 15.5 -21.5t16.5 -24.5t26.5 -20.5t45.5 -8.5q33 -1 65 20t61 55.5t53.5 80t42.5 93.5q15 41 38 106t50 144.5t56.5 168t58.5 176.5z" />
    <glyph glyph-name="threequarters" unicode="&#xbe;" horiz-adv-x="1073" 
d="M909 844q-23 -37 -60.5 -97t-84 -134.5t-98 -157t-102.5 -164.5t-98.5 -157.5t-84 -134.5t-60 -97t-27.5 -45q-24 -43 -35 -70.5t-9 -48.5q0 -1 -1 -3t-2.5 -2.5t-4.5 1t-7 7.5q-11 18 -8.5 54t37.5 92q10 16 40.5 65t74.5 119t97 154.5t107 171t105.5 168.5t92.5 147.5
t67 107.5t30 49q26 45 36.5 73t8.5 51q0 2 3 5t12 -9q12 -16 8.5 -52.5t-37.5 -92.5zM986 495q13 1 12.5 -3t-1.5 -5q-17 -12 -30.5 -37t-29.5 -72q-2 -5 -12 -35t-24.5 -73t-31.5 -91t-31 -88q22 -2 36.5 1.5t23.5 8.5t14 11.5t8 10.5q5 7 10.5 7.5t8.5 -2t3 -7t-4 -7.5
q-26 -21 -52.5 -29t-52.5 -10l-14 -38.5t-10 -25.5q-2 -7 -6.5 -10.5t-7.5 -4.5q-3 -2 -8.5 -4t-11.5 -4t-10.5 -4t-5.5 -2q-2 -1 -4.5 1t-1.5 4q6 16 14 39t19 52q-24 3 -48.5 7t-49 6t-49.5 0t-50 -12q-7 -2 -9.5 4t5.5 10q38 21 86.5 61.5t95.5 88.5t86.5 98t59.5 90
q18 34 36 48.5t37 15.5zM631 101q43 12 83.5 7t78.5 -11q12 34 25 71t26 73t24 69t20 57q-12 -21 -42 -57.5t-67.5 -75.5t-77 -75t-70.5 -58zM431 375q-5 -36 -25 -64.5t-49 -49t-63.5 -31t-67.5 -10.5q-46 0 -75.5 11.5t-43.5 29t-15.5 38t8 37.5t27.5 27.5t43 9.5
q13 0 19.5 -5.5t8 -12t-3 -12.5t-13.5 -8q-6 -2 -13 0t-11 6q-7 7 -15.5 2t-13.5 -16.5t-5 -26.5t9.5 -29.5t31 -24.5t58.5 -11q48 -1 83.5 19t56 50.5t25 65t-9 62t-46.5 42.5t-87 5q-11 -2 -10.5 3.5t10.5 6.5t38.5 12t59.5 30.5t57 48t31 66.5q4 30 -8 50.5t-33 30.5
t-48 10t-52.5 -11t-46 -32.5t-29.5 -53.5q-5 -16 -3.5 -33.5t10.5 -31.5q8 -11 18 -13.5t14 7.5q5 12 22 15q12 1 18 -3t7.5 -10.5t-1 -13t-8.5 -9.5q-18 -9 -40 -8.5t-40 10t-30 28t-11 45.5q1 26 15.5 49t39 40.5t57.5 28t72 11.5q26 0 49 -6t40 -18.5t26.5 -31t8.5 -43.5
q-2 -48 -46.5 -87t-115.5 -65q18 1 40 -6t40.5 -22.5t29.5 -40t6 -57.5z" />
    <glyph glyph-name="twosuperior" unicode="&#xb2;" horiz-adv-x="427" 
d="M186 344q33 14 53 5.5t35.5 -22t31.5 -22t41 5.5q5 3 7 0.5t-4 -5.5q-29 -16 -48.5 -15t-34 9t-26.5 19t-26 16t-32 -1.5t-45 -32.5q-7 -7 -13 -8t-9.5 1.5t-3 7.5t7.5 10q8 6 33.5 24t55.5 39.5t59 43.5t46 37q28 25 39.5 52t8 48.5t-21 34t-46.5 9.5q-27 -3 -47 -18
t-31 -35.5t-11.5 -42.5t10.5 -38q6 -8 13 -9t10 7q5 12 14 13q7 1 11 -2.5t5 -8t-1 -9.5t-8 -7q-29 -9 -48 -1.5t-27.5 23.5t-6.5 38t15.5 42.5t38 36.5t61.5 21q17 2 35.5 -0.5t33.5 -10t24 -21t9 -34.5q-1 -25 -15.5 -44.5t-40.5 -41t-64.5 -48.5t-87.5 -66z" />
    <glyph glyph-name="registered" unicode="&#xae;" horiz-adv-x="631" 
d="M416 614q47 0 80 -27t33 -78q0 -42 -20 -80.5t-52 -68t-71.5 -47t-78.5 -17.5q-54 0 -83.5 30t-29.5 78q0 39 19.5 77t51 67.5t71 47.5t80.5 18zM442 365q32 27 51.5 63.5t19.5 76.5q0 45 -26.5 69t-69.5 24q-37 0 -74 -15.5t-66.5 -42.5t-48 -62t-18.5 -74q0 -46 26 -70
t71 -24q32 0 64 12.5t60 33.5q-25 -8 -39 1t-24 23.5t-19.5 29t-25.5 16.5q-8 -24 -12.5 -37t-5.5 -17q-2 -3 -3 -5t-5 -4q-3 -2 -8 -3.5t-7 -1.5q-5 -2 -3 3q2 8 13.5 42.5l30.5 91.5q6 17 4 27.5t-12 10.5t-18 -8l-13 -13q-2 -2 -4 -0.5t0 3.5q7 9 19 19.5t27 10.5
q8 0 15 -5.5t7 -20.5h2q13 15 30 21t32 3.5t24 -12.5t7 -28q-2 -15 -11 -27.5t-22.5 -21.5t-30.5 -14t-33 -5q12 -5 20.5 -18.5t17.5 -26.5t22 -21.5t36 -3.5zM341 484q0 -1 -1.5 -6t-3.5 -11.5t-4.5 -13.5t-3.5 -11q9 -1 22 -0.5t26.5 5t25 14.5t18.5 28q8 24 0 36
t-23 11.5t-31.5 -13.5t-24.5 -39z" />
    <glyph glyph-name="minus" unicode="&#x2212;" horiz-adv-x="833" 
d="M269 282l13 33h411l-13 -34z" />
    <glyph glyph-name="eth" unicode="&#xf0;" horiz-adv-x="480" 
d="M510 715q14 5 17.5 -3t-11.5 -14q-8 -3 -36.5 -14t-64.5 -25q20 -29 34.5 -66.5t20.5 -84.5t1.5 -104t-21.5 -124q-14 -56 -43 -111t-69 -96.5t-89.5 -63.5t-106.5 -11q-40 8 -63.5 36t-31.5 68t-2 88t23.5 96t45.5 92.5t65 77t81 48.5t93 9q25 -4 43 -14.5t31 -26.5
q2 63 -7 106.5t-25 72.5q-26 -10 -51.5 -19.5t-47 -18t-37 -14t-20.5 -7.5q-11 -5 -14 3t9 13q4 1 19 7t36 14t46 18t51 20q-15 22 -33.5 35.5t-36.5 19.5t-34.5 6.5t-28.5 -1.5t-18 2t-6 10t6 12t18 6q35 1 76 -19.5t75 -63.5q38 15 68 26.5t38 14.5zM154 11q32 -9 64.5 6
t62 46t54.5 73.5t43 89t27.5 93t7 84.5t-18 64t-47.5 32q-31 6 -63 -10t-61 -46.5t-54 -72t-43 -86.5t-27.5 -90t-7.5 -83t17 -64.5t46 -35.5z" />
    <glyph glyph-name="multiply" unicode="&#xd7;" horiz-adv-x="594" 
d="M520 430l-184 -143l96 -135h-45l-80 112l-146 -113h-54l181 140l-99 139h45l83 -116l149 116h54v0z" />
    <glyph glyph-name="threesuperior" unicode="&#xb3;" horiz-adv-x="396" 
d="M223 289q-42 0 -61 15t-20.5 32.5t12 32t35.5 13.5q16 -1 17 -11t-10 -12q-9 -2 -14 3q-6 6 -13.5 -2.5t-7 -22t13 -25.5t45.5 -13q29 -1 50.5 11.5t34 30.5t15 39t-5.5 37.5t-27.5 25.5t-52.5 3q-7 -2 -6.5 1.5t6.5 4.5t23 7t36 18t34.5 29t18.5 40q4 27 -13 41
t-40.5 14t-46.5 -14.5t-31 -44.5q-2 -9 -1.5 -19.5t5.5 -18.5t11.5 -9t8.5 5q3 6 13 9q14 1 15.5 -8.5t-5.5 -13.5q-11 -6 -24 -5.5t-24.5 6.5t-18.5 17.5t-6 27.5q2 31 33 53.5t78 23.5q32 1 54 -14.5t20 -45.5q-2 -29 -28 -52t-69 -39q10 1 23.5 -3.5t25 -14t18 -24
t3.5 -34.5q-3 -22 -15 -39.5t-29.5 -29.5t-38.5 -18.5t-41 -6.5z" />
    <glyph glyph-name="copyright" unicode="&#xa9;" horiz-adv-x="833" 
d="M470 614q47 0 80 -27t33 -78q0 -42 -20 -80.5t-52 -68t-71.5 -47t-78.5 -17.5q-54 0 -83.5 30t-29.5 78q0 39 19.5 77t51 67.5t71 47.5t80.5 18zM360 310q38 0 75 16.5t66.5 43.5t47.5 62.5t18 73.5q0 44 -26.5 68.5t-70.5 24.5q-37 0 -74 -16t-66.5 -42.5t-48 -62
t-18.5 -74.5q0 -46 26 -70t71 -24zM449 549q14 0 24 -5.5t14.5 -13t4 -16t-6.5 -15.5q-5 -6 -12 -7t-12 4q-7 7 -5.5 14t4.5 10q9 8 7 16t-17 8q-17 0 -32.5 -12.5t-28 -31.5t-19.5 -41t-6.5 -41t9 -31.5t28.5 -12.5q22 0 38.5 16t27.5 38q2 3 3.5 2.5t0.5 -3.5
q-3 -8 -10 -19.5t-17 -22t-23 -18t-28 -7.5q-21 0 -35.5 14t-14.5 43q0 21 9 44t24 42.5t34 32.5t39 13z" />
    <glyph glyph-name="Aacute" unicode="&#xc1;" horiz-adv-x="1556" 
d="M1918 1253q39 24 51.5 45t11.5 40t-7.5 36.5t-4.5 34.5q3 25 18 32t25 6q7 0 22.5 -8t16.5 -29q0 -29 -13.5 -55.5t-33.5 -48.5t-42 -38.5t-37 -24.5q-8 -5 -11 0.5t4 9.5zM2081 1179q44 0 67.5 -13t17.5 -30q-5 -13 -18.5 -14t-25.5 4q-43 21 -89.5 28.5t-100 -16.5
t-113.5 -88.5t-130 -187.5q-17 -30 -39 -79t-46.5 -108t-50 -124t-49.5 -128t-44.5 -119t-35.5 -97q-9 -24 -19 -54t-14 -56t2 -45t31 -20q15 -1 29 6t26 18.5t22 26t18 27.5q2 4 5.5 2.5t1.5 -6.5q-8 -20 -21 -41t-31 -37.5t-39.5 -26.5t-44.5 -8q-25 1 -38.5 12.5
t-18.5 28t-3.5 36.5t6 38.5t10 33.5t8.5 23q16 44 23 77.5t-4 59.5q-45 109 -114 188q-57 -75 -112 -146t-111 -134t-114 -115.5t-120.5 -90.5t-131 -59t-146.5 -21q-95 0 -171 25.5t-131.5 69.5t-90.5 103t-49 124.5t-6.5 134.5t37.5 134.5t82 123t127 99.5q13 7 22.5 5
t13 -8.5t1 -14.5t-12.5 -13q-9 -5 -17 -5t-19 -3t-27 -13t-40 -34q-50 -49 -79.5 -121t-35 -151t14 -157t67.5 -140.5t125.5 -101.5t187.5 -39q109 0 205.5 48.5t185 128t170 181t159.5 207.5q-46 48 -100.5 84.5t-115 61t-124.5 37t-128 12.5q-87 0 -155 -25t-117 -66
t-78.5 -93.5t-39.5 -107.5t-0.5 -107.5t39 -93.5t79 -66t119.5 -25q23 0 40 4.5t28.5 11.5t18.5 14.5t10 12.5q6 10 15 11.5t16 -3t9 -13t-8 -18.5q-14 -14 -46.5 -24.5t-83.5 -10.5q-76 0 -129.5 27t-85 71t-41 100.5t2.5 115.5t44.5 115.5t86 100.5t126.5 71t166 27
q86 0 158 -15.5t131 -42t106.5 -60t83.5 -69.5q36 51 82 108t97.5 114.5t107 112.5t112 103t112.5 86.5t107 62.5q-47 -15 -110.5 -16t-134.5 4t-146 11.5t-144 6.5q-86 0 -143 -28.5t-88 -71t-37 -92t11.5 -92t57 -71t99.5 -28.5q46 0 75.5 13t46 32.5t23 43t7.5 43.5
q1 14 8.5 21t16.5 6.5t15.5 -7.5t4.5 -21q-2 -13 -13 -38t-34 -49.5t-59.5 -42.5t-89.5 -18q-69 0 -113 31t-63 78t-12 101t41 101t95.5 78t151.5 31q44 0 94 -4t103 -8.5t108.5 -8.5t109.5 -4q49 0 86.5 7.5t71.5 16t70 16t84 7.5zM1416 341q45 126 89 233t90 197t97 163.5
t110 132.5q-60 -40 -127 -101t-134.5 -133.5t-133 -151.5t-120.5 -154q53 -56 84 -107.5t45 -78.5z" />
    <glyph glyph-name="Acircumflex" unicode="&#xc2;" horiz-adv-x="1556" 
d="M2081 1179q44 0 67.5 -13t17.5 -30q-5 -13 -18.5 -14t-25.5 4q-43 21 -89.5 28.5t-100 -16.5t-113.5 -88.5t-130 -187.5q-17 -30 -39 -79t-46.5 -108t-50 -124t-49.5 -128t-44.5 -119t-35.5 -97q-9 -24 -19 -54t-14 -56t2 -45t31 -20q15 -1 29 6t26 18.5t22 26t18 27.5
q2 4 5.5 2.5t1.5 -6.5q-8 -20 -21 -41t-31 -37.5t-39.5 -26.5t-44.5 -8q-25 1 -38.5 12.5t-18.5 28t-3.5 36.5t6 38.5t10 33.5t8.5 23q16 44 23 77.5t-4 59.5q-45 109 -114 188q-57 -75 -112 -146t-111 -134t-114 -115.5t-120.5 -90.5t-131 -59t-146.5 -21q-95 0 -171 25.5
t-131.5 69.5t-90.5 103t-49 124.5t-6.5 134.5t37.5 134.5t82 123t127 99.5q13 7 22.5 5t13 -8.5t1 -14.5t-12.5 -13q-9 -5 -17 -5t-19 -3t-27 -13t-40 -34q-50 -49 -79.5 -121t-35 -151t14 -157t67.5 -140.5t125.5 -101.5t187.5 -39q109 0 205.5 48.5t185 128t170 181
t159.5 207.5q-46 48 -100.5 84.5t-115 61t-124.5 37t-128 12.5q-87 0 -155 -25t-117 -66t-78.5 -93.5t-39.5 -107.5t-0.5 -107.5t39 -93.5t79 -66t119.5 -25q23 0 40 4.5t28.5 11.5t18.5 14.5t10 12.5q6 10 15 11.5t16 -3t9 -13t-8 -18.5q-14 -14 -46.5 -24.5t-83.5 -10.5
q-76 0 -129.5 27t-85 71t-41 100.5t2.5 115.5t44.5 115.5t86 100.5t126.5 71t166 27q86 0 158 -15.5t131 -42t106.5 -60t83.5 -69.5q36 51 82 108t97.5 114.5t107 112.5t112 103t112.5 86.5t107 62.5q-47 -15 -110.5 -16t-134.5 4t-146 11.5t-144 6.5q-86 0 -143 -28.5
t-88 -71t-37 -92t11.5 -92t57 -71t99.5 -28.5q46 0 75.5 13t46 32.5t23 43t7.5 43.5q1 14 8.5 21t16.5 6.5t15.5 -7.5t4.5 -21q-2 -13 -13 -38t-34 -49.5t-59.5 -42.5t-89.5 -18q-69 0 -113 31t-63 78t-12 101t41 101t95.5 78t151.5 31q44 0 94 -4t103 -8.5t108.5 -8.5
t109.5 -4q49 0 86.5 7.5t71.5 16t70 16t84 7.5zM1416 341q45 126 89 233t90 197t97 163.5t110 132.5q-60 -40 -127 -101t-134.5 -133.5t-133 -151.5t-120.5 -154q53 -56 84 -107.5t45 -78.5zM1966 1338q1 -2 8.5 -11.5t18.5 -23t23.5 -29t23.5 -29.5t18.5 -23.5t8.5 -11.5
h-53q-1 2 -12.5 14.5t-24.5 27t-24 26.5t-12 13q-18 -15 -29.5 -24t-21.5 -17t-21.5 -17t-28.5 -23h-30q21 19 46 41t46.5 41t37 31.5t17.5 14.5h9z" />
    <glyph glyph-name="Adieresis" unicode="&#xc4;" horiz-adv-x="1556" 
d="M2081 1179q44 0 67.5 -13t17.5 -30q-5 -13 -18.5 -14t-25.5 4q-43 21 -89.5 28.5t-100 -16.5t-113.5 -88.5t-130 -187.5q-17 -30 -39 -79t-46.5 -108t-50 -124t-49.5 -128t-44.5 -119t-35.5 -97q-9 -24 -19 -54t-14 -56t2 -45t31 -20q15 -1 29 6t26 18.5t22 26t18 27.5
q2 4 5.5 2.5t1.5 -6.5q-8 -20 -21 -41t-31 -37.5t-39.5 -26.5t-44.5 -8q-25 1 -38.5 12.5t-18.5 28t-3.5 36.5t6 38.5t10 33.5t8.5 23q16 44 23 77.5t-4 59.5q-45 109 -114 188q-57 -75 -112 -146t-111 -134t-114 -115.5t-120.5 -90.5t-131 -59t-146.5 -21q-95 0 -171 25.5
t-131.5 69.5t-90.5 103t-49 124.5t-6.5 134.5t37.5 134.5t82 123t127 99.5q13 7 22.5 5t13 -8.5t1 -14.5t-12.5 -13q-9 -5 -17 -5t-19 -3t-27 -13t-40 -34q-50 -49 -79.5 -121t-35 -151t14 -157t67.5 -140.5t125.5 -101.5t187.5 -39q109 0 205.5 48.5t185 128t170 181
t159.5 207.5q-46 48 -100.5 84.5t-115 61t-124.5 37t-128 12.5q-87 0 -155 -25t-117 -66t-78.5 -93.5t-39.5 -107.5t-0.5 -107.5t39 -93.5t79 -66t119.5 -25q23 0 40 4.5t28.5 11.5t18.5 14.5t10 12.5q6 10 15 11.5t16 -3t9 -13t-8 -18.5q-14 -14 -46.5 -24.5t-83.5 -10.5
q-76 0 -129.5 27t-85 71t-41 100.5t2.5 115.5t44.5 115.5t86 100.5t126.5 71t166 27q86 0 158 -15.5t131 -42t106.5 -60t83.5 -69.5q36 51 82 108t97.5 114.5t107 112.5t112 103t112.5 86.5t107 62.5q-47 -15 -110.5 -16t-134.5 4t-146 11.5t-144 6.5q-86 0 -143 -28.5
t-88 -71t-37 -92t11.5 -92t57 -71t99.5 -28.5q46 0 75.5 13t46 32.5t23 43t7.5 43.5q1 14 8.5 21t16.5 6.5t15.5 -7.5t4.5 -21q-2 -13 -13 -38t-34 -49.5t-59.5 -42.5t-89.5 -18q-69 0 -113 31t-63 78t-12 101t41 101t95.5 78t151.5 31q44 0 94 -4t103 -8.5t108.5 -8.5
t109.5 -4q49 0 86.5 7.5t71.5 16t70 16t84 7.5zM1416 341q45 126 89 233t90 197t97 163.5t110 132.5q-60 -40 -127 -101t-134.5 -133.5t-133 -151.5t-120.5 -154q53 -56 84 -107.5t45 -78.5zM1826 1334q-17 0 -29 12t-12 29t12 29t29 12t29 -12t12 -29t-12 -29t-29 -12z
M2059 1334q-17 0 -29 12t-12 29t12 29t29 12t29 -12t12 -29t-12 -29t-29 -12z" />
    <glyph glyph-name="Agrave" unicode="&#xc0;" horiz-adv-x="1556" 
d="M2081 1179q-48 0 -84 -7.5t-70 -16t-71.5 -16t-86.5 -7.5q-54 0 -109.5 4t-108.5 8.5t-103 8.5t-94 4q-90 0 -151.5 -31t-95.5 -78t-41 -101t12 -101t63 -78t113 -31q53 0 89.5 18t59.5 42.5t34 49.5t13 38q2 14 -4.5 21t-15.5 7.5t-16.5 -6.5t-8.5 -21
q-1 -20 -7.5 -43.5t-23 -43t-46 -32.5t-75.5 -13q-60 0 -99.5 28.5t-57 71t-11.5 92t37 92t88 71t143 28.5q69 0 144 -6.5t146 -11.5t134.5 -4t110.5 16q-51 -24 -107 -62.5t-112.5 -86.5t-112 -103t-107 -112.5t-97.5 -114.5t-82 -108q-36 36 -83.5 69.5t-106.5 60t-131 42
t-158 15.5q-93 0 -166 -27t-126.5 -71t-86 -100.5t-44.5 -115.5t-2.5 -115.5t41 -100.5t85 -71t129.5 -27q51 0 83.5 10.5t46.5 24.5q10 10 8 18.5t-9 13t-16 3t-15 -11.5q-3 -5 -10 -12.5t-18.5 -14.5t-28.5 -11.5t-40 -4.5q-70 0 -119.5 25t-79 66t-39 93.5t0.5 107.5
t39.5 107.5t78.5 93.5t117 66t155 25q64 0 128 -12.5t124.5 -37t115 -61t100.5 -84.5q-78 -106 -159.5 -207.5t-170 -181t-185 -128t-205.5 -48.5q-110 0 -187.5 39t-125.5 101.5t-67.5 140.5t-14 157t35 151t79.5 121q24 24 40 34t27 13t19 3t17 5q10 5 12.5 13t-1 14.5
t-13 8.5t-22.5 -5q-75 -42 -127 -99.5t-82 -123t-37.5 -134.5t6.5 -134.5t49 -124.5t90.5 -103t131.5 -69.5t171 -25.5q78 0 146.5 21t131 59t120.5 90.5t114 115.5t111 134t112 146q69 -79 114 -188q11 -26 4 -59.5t-23 -77.5q-3 -8 -8.5 -23t-10 -33.5t-6 -38.5t3.5 -36.5
t18.5 -28t38.5 -12.5q23 -2 44.5 8t39.5 26.5t31 37.5t21 41q2 5 -1.5 6.5t-5.5 -2.5q-8 -13 -18 -27.5t-22 -26t-26 -18.5t-29 -6q-25 1 -31 20t-2 45t14 56t19 54q15 41 35.5 97t44.5 119t49.5 128t50 124t46.5 108t39 79q70 123 130 187.5t113.5 88.5t100 16.5
t89.5 -28.5q12 -5 25.5 -4t18.5 14q6 17 -17.5 30t-67.5 13zM1416 341q-14 27 -45 78.5t-84 107.5q55 75 120.5 154t133 151.5t134.5 133.5t127 101q-59 -59 -110 -132.5t-97 -163.5t-90 -197t-89 -233zM1926 1250q7 -2 5.5 -7t-10.5 -3q-16 4 -39 15.5t-46 29t-41 41
t-24 51.5q-2 10 1 18t8.5 13.5t11 8.5t8.5 4q9 2 24.5 -1.5t23.5 -26.5q5 -17 2.5 -35.5t0.5 -37t18 -36.5t57 -34z" />
    <glyph glyph-name="Aring" unicode="&#xc5;" horiz-adv-x="1556" 
d="M2081 1179q44 0 67.5 -13t17.5 -30q-5 -13 -18.5 -14t-25.5 4q-43 21 -89.5 28.5t-100 -16.5t-113.5 -88.5t-130 -187.5q-17 -30 -39 -79t-46.5 -108t-50 -124t-49.5 -128t-44.5 -119t-35.5 -97q-9 -24 -19 -54t-14 -56t2 -45t31 -20q15 -1 29 6t26 18.5t22 26t18 27.5
q2 4 5.5 2.5t1.5 -6.5q-8 -20 -21 -41t-31 -37.5t-39.5 -26.5t-44.5 -8q-25 1 -38.5 12.5t-18.5 28t-3.5 36.5t6 38.5t10 33.5t8.5 23q16 44 23 77.5t-4 59.5q-45 109 -114 188q-57 -75 -112 -146t-111 -134t-114 -115.5t-120.5 -90.5t-131 -59t-146.5 -21q-95 0 -171 25.5
t-131.5 69.5t-90.5 103t-49 124.5t-6.5 134.5t37.5 134.5t82 123t127 99.5q13 7 22.5 5t13 -8.5t1 -14.5t-12.5 -13q-9 -5 -17 -5t-19 -3t-27 -13t-40 -34q-50 -49 -79.5 -121t-35 -151t14 -157t67.5 -140.5t125.5 -101.5t187.5 -39q109 0 205.5 48.5t185 128t170 181
t159.5 207.5q-46 48 -100.5 84.5t-115 61t-124.5 37t-128 12.5q-87 0 -155 -25t-117 -66t-78.5 -93.5t-39.5 -107.5t-0.5 -107.5t39 -93.5t79 -66t119.5 -25q23 0 40 4.5t28.5 11.5t18.5 14.5t10 12.5q6 10 15 11.5t16 -3t9 -13t-8 -18.5q-14 -14 -46.5 -24.5t-83.5 -10.5
q-76 0 -129.5 27t-85 71t-41 100.5t2.5 115.5t44.5 115.5t86 100.5t126.5 71t166 27q86 0 158 -15.5t131 -42t106.5 -60t83.5 -69.5q36 51 82 108t97.5 114.5t107 112.5t112 103t112.5 86.5t107 62.5q-47 -15 -110.5 -16t-134.5 4t-146 11.5t-144 6.5q-86 0 -143 -28.5
t-88 -71t-37 -92t11.5 -92t57 -71t99.5 -28.5q46 0 75.5 13t46 32.5t23 43t7.5 43.5q1 14 8.5 21t16.5 6.5t15.5 -7.5t4.5 -21q-2 -13 -13 -38t-34 -49.5t-59.5 -42.5t-89.5 -18q-69 0 -113 31t-63 78t-12 101t41 101t95.5 78t151.5 31q44 0 94 -4t103 -8.5t108.5 -8.5
t109.5 -4q49 0 86.5 7.5t71.5 16t70 16t84 7.5zM1416 341q45 126 89 233t90 197t97 163.5t110 132.5q-60 -40 -127 -101t-134.5 -133.5t-133 -151.5t-120.5 -154q53 -56 84 -107.5t45 -78.5zM2035 1425q-5 -27 -18.5 -45.5t-32 -30t-41.5 -17t-45 -6.5q-24 -1 -40.5 7
t-26 21t-11.5 29.5t3 32.5q13 42 39 63t67 29q24 5 45 0t35.5 -17t21.5 -29t4 -37zM1958 1495q-30 8 -53.5 -13t-35.5 -53q-11 -29 -3 -54.5t34 -32.5q29 -7 53 13.5t34 53.5q10 31 3.5 55t-32.5 31z" />
    <glyph glyph-name="Atilde" unicode="&#xc3;" horiz-adv-x="1556" 
d="M2081 1179q44 0 67.5 -13t17.5 -30q-5 -13 -18.5 -14t-25.5 4q-43 21 -89.5 28.5t-100 -16.5t-113.5 -88.5t-130 -187.5q-17 -30 -39 -79t-46.5 -108t-50 -124t-49.5 -128t-44.5 -119t-35.5 -97q-9 -24 -19 -54t-14 -56t2 -45t31 -20q15 -1 29 6t26 18.5t22 26t18 27.5
q2 4 5.5 2.5t1.5 -6.5q-8 -20 -21 -41t-31 -37.5t-39.5 -26.5t-44.5 -8q-25 1 -38.5 12.5t-18.5 28t-3.5 36.5t6 38.5t10 33.5t8.5 23q16 44 23 77.5t-4 59.5q-45 109 -114 188q-57 -75 -112 -146t-111 -134t-114 -115.5t-120.5 -90.5t-131 -59t-146.5 -21q-95 0 -171 25.5
t-131.5 69.5t-90.5 103t-49 124.5t-6.5 134.5t37.5 134.5t82 123t127 99.5q13 7 22.5 5t13 -8.5t1 -14.5t-12.5 -13q-9 -5 -17 -5t-19 -3t-27 -13t-40 -34q-50 -49 -79.5 -121t-35 -151t14 -157t67.5 -140.5t125.5 -101.5t187.5 -39q109 0 205.5 48.5t185 128t170 181
t159.5 207.5q-46 48 -100.5 84.5t-115 61t-124.5 37t-128 12.5q-87 0 -155 -25t-117 -66t-78.5 -93.5t-39.5 -107.5t-0.5 -107.5t39 -93.5t79 -66t119.5 -25q23 0 40 4.5t28.5 11.5t18.5 14.5t10 12.5q6 10 15 11.5t16 -3t9 -13t-8 -18.5q-14 -14 -46.5 -24.5t-83.5 -10.5
q-76 0 -129.5 27t-85 71t-41 100.5t2.5 115.5t44.5 115.5t86 100.5t126.5 71t166 27q86 0 158 -15.5t131 -42t106.5 -60t83.5 -69.5q36 51 82 108t97.5 114.5t107 112.5t112 103t112.5 86.5t107 62.5q-47 -15 -110.5 -16t-134.5 4t-146 11.5t-144 6.5q-86 0 -143 -28.5
t-88 -71t-37 -92t11.5 -92t57 -71t99.5 -28.5q46 0 75.5 13t46 32.5t23 43t7.5 43.5q1 14 8.5 21t16.5 6.5t15.5 -7.5t4.5 -21q-2 -13 -13 -38t-34 -49.5t-59.5 -42.5t-89.5 -18q-69 0 -113 31t-63 78t-12 101t41 101t95.5 78t151.5 31q44 0 94 -4t103 -8.5t108.5 -8.5
t109.5 -4q49 0 86.5 7.5t71.5 16t70 16t84 7.5zM1416 341q45 126 89 233t90 197t97 163.5t110 132.5q-60 -40 -127 -101t-134.5 -133.5t-133 -151.5t-120.5 -154q53 -56 84 -107.5t45 -78.5zM1811 1243q-10 0 -16.5 8t-6.5 19q0 29 23 49t61 20q23 0 40.5 -9.5t34 -21
t34 -21t38.5 -9.5q38 0 56.5 18t18.5 40q9 0 17 -6.5t8 -17.5q0 -32 -24 -51t-59 -19q-18 0 -37.5 9.5t-39.5 20.5t-39.5 20.5t-38.5 9.5q-20 0 -33 -5.5t-21.5 -14t-12 -19t-3.5 -20.5z" />
    <glyph glyph-name="Ccedilla" unicode="&#xc7;" horiz-adv-x="930" 
d="M1035 1168q57 0 90 -29.5t41 -77.5t-9 -109.5t-60.5 -125.5t-113.5 -125t-167.5 -108t-223.5 -75t-280 -26q-20 -48 -29 -106.5t-6 -117.5t19 -114.5t46 -98t74.5 -68.5t105.5 -26q57 0 102.5 13t81 33t62 45t45.5 49t31.5 43.5t20.5 30.5t15.5 6t2.5 -13
q-15 -24 -42 -64t-71 -78t-105.5 -65.5t-145.5 -27.5h-6q-4 -10 -4.5 -33.5t-0.5 -66.5q0 -24 -8.5 -44.5t-22 -36t-31.5 -24t-36 -8.5q-26 0 -45 12t-28.5 29.5t-8 37t16.5 35.5l8 -8q-11 -11 -12.5 -23t4.5 -22.5t17 -17t26 -6.5q37 0 56.5 20t29 48t14.5 58t13 51
q-70 3 -121 30.5t-85 71t-52 100t-22 118t5.5 124t30.5 119.5q-71 9 -134.5 35.5t-110.5 67t-74.5 94t-27.5 116.5q0 57 21 117t61.5 117.5t100.5 108t138.5 89t175 60.5t210.5 22q24 0 32.5 -10.5t5.5 -21t-15.5 -16.5t-30.5 2q-5 2 -11.5 5t-18 5.5t-28 4.5t-40.5 2
q-52 0 -112.5 -13.5t-120.5 -40.5t-116 -67t-99 -94t-68.5 -121.5t-25.5 -148.5q0 -54 22.5 -102.5t62 -87t94 -64.5t118.5 -36q34 80 85.5 159t114.5 151t135 134t146 107t147.5 71t140.5 26zM986 1131q-50 0 -110.5 -23t-125 -64.5t-128.5 -99t-121 -126t-104 -145.5
t-77 -158q143 -1 261 24.5t211 68.5t160.5 98.5t109.5 113.5t58 114t7 99.5t-44.5 70.5t-96.5 27z" />
    <glyph glyph-name="Eacute" unicode="&#xc9;" horiz-adv-x="797" 
d="M864 1255q39 24 51.5 45t11.5 40t-7.5 36.5t-4.5 34.5q3 25 18 32t25 6q7 0 22.5 -8t16.5 -29q0 -29 -13.5 -55.5t-33.5 -48.5t-42 -38.5t-37 -24.5q-8 -5 -11 0.5t4 9.5zM848 1171q72 0 105 -29.5t30.5 -75t-40 -99t-107 -102t-170 -84.5t-229.5 -45q10 -29 31.5 -48.5
t48 -30t52.5 -12.5t45 3q9 2 12.5 -0.5t-1.5 -8.5q-6 -6 -18 -9.5t-25 -5.5q-112 -12 -195.5 -46.5t-141 -82.5t-90 -105.5t-43 -116.5t0.5 -114t40.5 -98.5t76 -70.5t108.5 -29q-11 61 -4 123t27 119.5t52.5 108t71.5 88t84 59t91 21.5q43 0 68.5 -22t34.5 -58t3 -83
t-27 -96t-56 -96.5t-82.5 -86.5t-107.5 -64.5t-131 -30.5q15 -60 52 -115t103 -102q9 -6 3 -14t-15 -2q-69 47 -108 106.5t-55 125.5q-71 -2 -125.5 19t-92 57t-57 83.5t-19.5 98.5q0 73 28.5 133t72.5 107.5t96.5 82t99.5 57.5t82.5 34t46.5 11q-37 8 -63.5 37t-36.5 71
q-61 -1 -122.5 10t-118 32t-105 50.5t-84.5 66.5t-56.5 80t-20.5 90q0 79 40.5 135t103 91.5t136 52t139.5 16.5q60 0 93 -3t52 -11q13 -5 16.5 -14t0.5 -17t-12.5 -12t-22.5 1q-10 4 -15.5 11t-16.5 14t-32.5 12t-63.5 5q-77 0 -144.5 -18.5t-117.5 -54t-79 -86.5t-29 -116
q0 -74 39.5 -133t104 -101t146 -64t166.5 -22q-6 46 13 95.5t55.5 96.5t86 89t104.5 73.5t111.5 50t106.5 18.5zM644 445q-36 0 -74.5 -19.5t-74 -54t-65.5 -81.5t-50 -100.5t-26.5 -112t4.5 -116.5q83 2 151 39t117 90.5t77.5 115.5t32.5 115.5t-18 88.5t-74 35zM434 750
q117 8 208 41t154.5 77t98 93.5t39 91t-22.5 68.5t-86 27q-34 0 -78.5 -13.5t-90.5 -39t-89 -61.5t-75 -80t-48.5 -95.5t-9.5 -108.5z" />
    <glyph glyph-name="Ecircumflex" unicode="&#xca;" horiz-adv-x="797" 
d="M848 1171q72 0 105 -29.5t30.5 -75t-40 -99t-107 -102t-170 -84.5t-229.5 -45q10 -29 31.5 -48.5t48 -30t52.5 -12.5t45 3q9 2 12.5 -0.5t-1.5 -8.5q-6 -6 -18 -9.5t-25 -5.5q-112 -12 -195.5 -46.5t-141 -82.5t-90 -105.5t-43 -116.5t0.5 -114t40.5 -98.5t76 -70.5
t108.5 -29q-11 61 -4 123t27 119.5t52.5 108t71.5 88t84 59t91 21.5q43 0 68.5 -22t34.5 -58t3 -83t-27 -96t-56 -96.5t-82.5 -86.5t-107.5 -64.5t-131 -30.5q15 -60 52 -115t103 -102q9 -6 3 -14t-15 -2q-69 47 -108 106.5t-55 125.5q-71 -2 -125.5 19t-92 57t-57 83.5
t-19.5 98.5q0 73 28.5 133t72.5 107.5t96.5 82t99.5 57.5t82.5 34t46.5 11q-37 8 -63.5 37t-36.5 71q-61 -1 -122.5 10t-118 32t-105 50.5t-84.5 66.5t-56.5 80t-20.5 90q0 79 40.5 135t103 91.5t136 52t139.5 16.5q60 0 93 -3t52 -11q13 -5 16.5 -14t0.5 -17t-12.5 -12
t-22.5 1q-10 4 -15.5 11t-16.5 14t-32.5 12t-63.5 5q-77 0 -144.5 -18.5t-117.5 -54t-79 -86.5t-29 -116q0 -74 39.5 -133t104 -101t146 -64t166.5 -22q-6 46 13 95.5t55.5 96.5t86 89t104.5 73.5t111.5 50t106.5 18.5zM644 445q-36 0 -74.5 -19.5t-74 -54t-65.5 -81.5
t-50 -100.5t-26.5 -112t4.5 -116.5q83 2 151 39t117 90.5t77.5 115.5t32.5 115.5t-18 88.5t-74 35zM434 750q117 8 208 41t154.5 77t98 93.5t39 91t-22.5 68.5t-86 27q-34 0 -78.5 -13.5t-90.5 -39t-89 -61.5t-75 -80t-48.5 -95.5t-9.5 -108.5zM883 1339q1 -1 8.5 -11
t18.5 -23.5t23.5 -29t23.5 -29.5t18.5 -23.5t8.5 -11.5h-53q-1 2 -12.5 14.5t-24.5 27t-24 26.5t-12 13q-18 -15 -29.5 -24t-21.5 -17t-21.5 -17t-28.5 -23h-30q21 19 46 41t46.5 41t37 31.5t17.5 14.5h9z" />
    <glyph glyph-name="Edieresis" unicode="&#xcb;" horiz-adv-x="797" 
d="M848 1171q72 0 105 -29.5t30.5 -75t-40 -99t-107 -102t-170 -84.5t-229.5 -45q10 -29 31.5 -48.5t48 -30t52.5 -12.5t45 3q9 2 12.5 -0.5t-1.5 -8.5q-6 -6 -18 -9.5t-25 -5.5q-112 -12 -195.5 -46.5t-141 -82.5t-90 -105.5t-43 -116.5t0.5 -114t40.5 -98.5t76 -70.5
t108.5 -29q-11 61 -4 123t27 119.5t52.5 108t71.5 88t84 59t91 21.5q43 0 68.5 -22t34.5 -58t3 -83t-27 -96t-56 -96.5t-82.5 -86.5t-107.5 -64.5t-131 -30.5q15 -60 52 -115t103 -102q9 -6 3 -14t-15 -2q-69 47 -108 106.5t-55 125.5q-71 -2 -125.5 19t-92 57t-57 83.5
t-19.5 98.5q0 73 28.5 133t72.5 107.5t96.5 82t99.5 57.5t82.5 34t46.5 11q-37 8 -63.5 37t-36.5 71q-61 -1 -122.5 10t-118 32t-105 50.5t-84.5 66.5t-56.5 80t-20.5 90q0 79 40.5 135t103 91.5t136 52t139.5 16.5q60 0 93 -3t52 -11q13 -5 16.5 -14t0.5 -17t-12.5 -12
t-22.5 1q-10 4 -15.5 11t-16.5 14t-32.5 12t-63.5 5q-77 0 -144.5 -18.5t-117.5 -54t-79 -86.5t-29 -116q0 -74 39.5 -133t104 -101t146 -64t166.5 -22q-6 46 13 95.5t55.5 96.5t86 89t104.5 73.5t111.5 50t106.5 18.5zM644 445q-36 0 -74.5 -19.5t-74 -54t-65.5 -81.5
t-50 -100.5t-26.5 -112t4.5 -116.5q83 2 151 39t117 90.5t77.5 115.5t32.5 115.5t-18 88.5t-74 35zM434 750q117 8 208 41t154.5 77t98 93.5t39 91t-22.5 68.5t-86 27q-34 0 -78.5 -13.5t-90.5 -39t-89 -61.5t-75 -80t-48.5 -95.5t-9.5 -108.5zM692 1332q-17 0 -29 12
t-12 29t12 29t29 12t29 -12t12 -29t-12 -29t-29 -12zM925 1332q-17 0 -29 12t-12 29t12 29t29 12t29 -12t12 -29t-12 -29t-29 -12z" />
    <glyph glyph-name="Egrave" unicode="&#xc8;" horiz-adv-x="797" 
d="M848 1171q-50 0 -106.5 -18.5t-111.5 -50t-104.5 -73.5t-86 -89t-55.5 -96.5t-13 -95.5q-85 0 -166.5 22t-146 64t-104 101t-39.5 133q0 65 29 116t79 86.5t117.5 54t144.5 18.5q42 0 63.5 -5t32.5 -12t16.5 -14t15.5 -11q13 -5 22.5 -1t12.5 12t-0.5 17t-16.5 14
q-19 8 -52 11t-93 3q-66 0 -139.5 -16.5t-136 -52t-103 -91.5t-40.5 -135q0 -47 20.5 -90t56.5 -80t84.5 -66.5t105 -50.5t118 -32t122.5 -10q10 -42 36.5 -71t63.5 -37q-11 0 -46.5 -11t-82.5 -34t-99.5 -57.5t-96.5 -82t-72.5 -107.5t-28.5 -133q0 -51 19.5 -98.5
t57 -83.5t92 -57t125.5 -19q16 -66 55 -125.5t108 -106.5q9 -6 15 2t-3 14q-66 47 -103 102t-52 115q71 5 131 30.5t107.5 64.5t82.5 86.5t56 96.5t27 96t-3 83t-34.5 58t-68.5 22q-46 0 -91 -21.5t-84 -59t-71.5 -88t-52.5 -108t-27 -119.5t4 -123q-62 2 -108.5 29
t-76 70.5t-40.5 98.5t-0.5 114t43 116.5t90 105.5t141 82.5t195.5 46.5q13 2 25 5.5t18 9.5q5 6 1.5 8.5t-12.5 0.5q-19 -5 -45 -3t-52.5 12.5t-48 30t-31.5 48.5q129 9 229.5 45t170 84.5t107 102t40 99t-30.5 75t-105 29.5zM644 445q52 0 74 -35t18 -88.5t-32.5 -115.5
t-77.5 -115.5t-117 -90.5t-151 -39q-11 58 -4.5 116.5t26.5 112t50 100.5t65.5 81.5t74 54t74.5 19.5zM434 750q-7 57 9.5 108.5t48.5 95.5t75 80t89 61.5t90.5 39t78.5 13.5q59 0 86 -27t22.5 -68.5t-39 -91t-98 -93.5t-154.5 -77t-208 -41zM889 1249q7 -2 5.5 -7t-10.5 -3
q-16 4 -39 15.5t-46 29t-41 41t-24 51.5q-2 10 1 18t8.5 13.5t11 8.5t8.5 4q9 2 24.5 -1.5t23.5 -26.5q5 -17 2.5 -35.5t0.5 -37t18 -36.5t57 -34z" />
    <glyph glyph-name="Iacute" unicode="&#xcd;" horiz-adv-x="1032" 
d="M1266 1203q39 24 51.5 45t11.5 40t-7.5 36.5t-4.5 34.5q3 25 18 32t25 6q7 0 22.5 -8t16.5 -29q0 -29 -13.5 -55.5t-33.5 -48.5t-42 -38.5t-37 -24.5q-8 -5 -11 0.5t4 9.5zM467 -48q-127 0 -218.5 42.5t-146.5 111.5t-73 157t3 178t80.5 174.5t160.5 147.5q18 11 29.5 8
t15 -11.5t-0.5 -18t-17 -11.5q-9 -1 -21 -2t-27 -7.5t-34.5 -22.5t-44.5 -47q-46 -59 -70.5 -132t-26.5 -148t20.5 -146.5t70 -127t121.5 -89.5t176 -34q107 0 183.5 39.5t131 105t91.5 151.5t66.5 179.5t55.5 188t57.5 177t73.5 147t104 98.5q-72 -14 -146 -7t-144 20.5
t-133.5 27t-113.5 13.5q-78 0 -133 -34.5t-85.5 -86t-35 -111.5t19.5 -111.5t77 -86t137 -34.5q44 0 71.5 9t43 20.5t22.5 23t10 16.5q6 10 14.5 11.5t15 -2.5t8 -12.5t-7.5 -19.5q-24 -32 -72.5 -48.5t-105.5 -16.5q-93 0 -151.5 37t-84 93t-20.5 121t39 121t94 93t145 37
q47 0 89.5 -7t85.5 -16.5t88.5 -18.5t98 -13.5t114 -2t136.5 16.5q8 2 13 -0.5t6 -6t-2 -7.5t-9 -6q-52 -14 -90.5 -54t-69 -98t-55.5 -130.5t-49 -151.5t-50 -160.5t-58.5 -158t-74.5 -143.5t-98.5 -116.5t-130 -78.5t-168.5 -29z" />
    <glyph glyph-name="Icircumflex" unicode="&#xce;" horiz-adv-x="1032" 
d="M467 -48q-127 0 -218.5 42.5t-146.5 111.5t-73 157t3 178t80.5 174.5t160.5 147.5q18 11 29.5 8t15 -11.5t-0.5 -18t-17 -11.5q-9 -1 -21 -2t-27 -7.5t-34.5 -22.5t-44.5 -47q-46 -59 -70.5 -132t-26.5 -148t20.5 -146.5t70 -127t121.5 -89.5t176 -34q107 0 183.5 39.5
t131 105t91.5 151.5t66.5 179.5t55.5 188t57.5 177t73.5 147t104 98.5q-72 -14 -146 -7t-144 20.5t-133.5 27t-113.5 13.5q-78 0 -133 -34.5t-85.5 -86t-35 -111.5t19.5 -111.5t77 -86t137 -34.5q44 0 71.5 9t43 20.5t22.5 23t10 16.5q6 10 14.5 11.5t15 -2.5t8 -12.5
t-7.5 -19.5q-24 -32 -72.5 -48.5t-105.5 -16.5q-93 0 -151.5 37t-84 93t-20.5 121t39 121t94 93t145 37q47 0 89.5 -7t85.5 -16.5t88.5 -18.5t98 -13.5t114 -2t136.5 16.5q8 2 13 -0.5t6 -6t-2 -7.5t-9 -6q-52 -14 -90.5 -54t-69 -98t-55.5 -130.5t-49 -151.5t-50 -160.5
t-58.5 -158t-74.5 -143.5t-98.5 -116.5t-130 -78.5t-168.5 -29zM1166 1479q26 -42 50.5 -84.5t50.5 -84.5h-53q-18 29 -36.5 57t-38.5 57q-36 -30 -69.5 -57.5t-68.5 -56.5h-30q21 19 52 47.5t60 55t50.5 45.5t23.5 21h9z" />
    <glyph glyph-name="Idieresis" unicode="&#xcf;" horiz-adv-x="1032" 
d="M467 -48q-127 0 -218.5 42.5t-146.5 111.5t-73 157t3 178t80.5 174.5t160.5 147.5q18 11 29.5 8t15 -11.5t-0.5 -18t-17 -11.5q-9 -1 -21 -2t-27 -7.5t-34.5 -22.5t-44.5 -47q-46 -59 -70.5 -132t-26.5 -148t20.5 -146.5t70 -127t121.5 -89.5t176 -34q107 0 183.5 39.5
t131 105t91.5 151.5t66.5 179.5t55.5 188t57.5 177t73.5 147t104 98.5q-72 -14 -146 -7t-144 20.5t-133.5 27t-113.5 13.5q-78 0 -133 -34.5t-85.5 -86t-35 -111.5t19.5 -111.5t77 -86t137 -34.5q44 0 71.5 9t43 20.5t22.5 23t10 16.5q6 10 14.5 11.5t15 -2.5t8 -12.5
t-7.5 -19.5q-24 -32 -72.5 -48.5t-105.5 -16.5q-93 0 -151.5 37t-84 93t-20.5 121t39 121t94 93t145 37q47 0 89.5 -7t85.5 -16.5t88.5 -18.5t98 -13.5t114 -2t136.5 16.5q8 2 13 -0.5t6 -6t-2 -7.5t-9 -6q-52 -14 -90.5 -54t-69 -98t-55.5 -130.5t-49 -151.5t-50 -160.5
t-58.5 -158t-74.5 -143.5t-98.5 -116.5t-130 -78.5t-168.5 -29zM985 1332q-17 0 -29 12t-12 29t12 29t29 12t29 -12t12 -29t-12 -29t-29 -12zM1218 1332q-17 0 -29 12t-12 29t12 29t29 12t29 -12t12 -29t-12 -29t-29 -12z" />
    <glyph glyph-name="Igrave" unicode="&#xcc;" horiz-adv-x="1032" 
d="M467 -48q95 0 168.5 29t130 78.5t98.5 116.5t74.5 143.5t58.5 158t50 160.5t49 151.5t55.5 130.5t69 98t90.5 54q6 2 9 6t2 7.5t-6 6t-13 0.5q-75 -14 -136.5 -16.5t-114 2t-98 13.5t-88.5 18.5t-85.5 16.5t-89.5 7q-85 0 -145 -37t-94 -93t-39 -121t20.5 -121t84 -93
t151.5 -37q57 0 105.5 16.5t72.5 48.5q9 11 7.5 19.5t-8 12.5t-15 2.5t-14.5 -11.5q-3 -5 -10 -16.5t-22.5 -23t-43 -20.5t-71.5 -9q-84 0 -137 34.5t-77 86t-19.5 111.5t35 111.5t85.5 86t133 34.5q50 0 113.5 -13.5t133.5 -27t144 -20.5t146 7q-62 -34 -104 -98.5
t-73.5 -147t-57.5 -177t-55.5 -188t-66.5 -179.5t-91.5 -151.5t-131 -105t-183.5 -39.5q-102 0 -176 34t-121.5 89.5t-70 127t-20.5 146.5t26.5 148t70.5 132q25 31 44.5 47t34.5 22.5t27 7.5t21 2q13 2 17 11.5t0.5 18t-15 11.5t-29.5 -8q-101 -63 -160.5 -147.5
t-80.5 -174.5t-3 -178t73 -157t146.5 -111.5t218.5 -42.5zM1278 1175q7 -2 5.5 -7t-10.5 -3q-16 4 -39 15.5t-46 29t-41 41t-24 51.5q-2 10 1 18t8.5 13.5t11 8.5t8.5 4q9 2 24.5 -1.5t23.5 -26.5q5 -17 2.5 -35.5t0.5 -37t18 -36.5t57 -34z" />
    <glyph glyph-name="Ntilde" unicode="&#xd1;" horiz-adv-x="1483" 
d="M2143 1243q29 0 45.5 -7.5t22.5 -17.5t3.5 -21t-10.5 -18.5t-20.5 -9.5t-25.5 7q-24 15 -49.5 23t-55 6t-63.5 -15.5t-75 -42.5q-72 -50 -148 -135.5t-157 -220t-167.5 -324.5t-178.5 -449q-7 -19 -10.5 -30t-22.5 -16q-12 -3 -17 9t-9 29q-11 53 -21.5 117t-20 133.5
t-19 142.5t-18 144.5t-16.5 139t-15 126.5q-53 -109 -101 -218t-98.5 -208.5t-107 -185t-126 -148.5t-155 -99t-193.5 -36q-77 0 -135.5 23t-98.5 61t-60.5 87t-20.5 102q0 61 17.5 110t46 86.5t64 64t72 43.5t70.5 25t58 8q16 0 23.5 -8t7.5 -17t-7.5 -16t-19.5 -5
q-11 1 -20.5 5t-20.5 6.5t-25.5 2.5t-35.5 -6q-56 -16 -98 -63t-64 -108.5t-21.5 -129t29 -123.5t88 -92.5t154.5 -36.5q106 0 190.5 40t153.5 106.5t124 154.5t102 183.5t88.5 192.5t83.5 183q17 34 22.5 76.5t0 86t-23 84.5t-46 73t-69 51.5t-92.5 19.5q-71 0 -134 -20.5
t-116.5 -55t-96.5 -80t-73 -96.5t-46 -104.5t-16 -103.5q0 -47 18 -87.5t50 -70.5t75 -47t94 -17q52 0 82.5 8t48.5 19.5t28 23.5t23 21q11 7 20.5 5.5t13.5 -8t1.5 -16t-15.5 -18.5q-45 -31 -98 -41.5t-103 -10.5q-57 0 -105 18.5t-82.5 50t-53.5 74.5t-19 93
q0 55 18.5 113t52 112.5t81 103t106.5 85t127.5 57.5t144.5 21q104 0 169.5 -65t85.5 -198q14 -94 27.5 -199t26 -212.5t25.5 -213t26 -200.5q4 -29 7.5 -37.5t11.5 -8.5q3 0 7.5 5.5t12.5 29.5q76 206 149 363.5t142 275t132.5 199.5t120.5 136t106.5 84.5t90.5 45t73 18
t53 3.5zM1384 1297q-10 0 -16.5 8t-6.5 19q0 29 23 49t61 20q23 0 40.5 -9.5t34 -21t34 -21t38.5 -9.5q38 0 56.5 18t18.5 40q9 0 17 -6.5t8 -17.5q0 -32 -24 -51t-59 -19q-18 0 -37.5 9.5t-39.5 20.5t-39.5 20.5t-38.5 9.5q-20 0 -33 -5.5t-21.5 -14t-12 -19t-3.5 -20.5z
" />
    <glyph glyph-name="Oacute" unicode="&#xd3;" horiz-adv-x="888" 
d="M848 1252q39 24 51.5 45t11.5 40t-7.5 36.5t-4.5 34.5q3 25 18 32t25 6q7 0 22.5 -8t16.5 -29q0 -29 -13.5 -55.5t-33.5 -48.5t-42 -38.5t-37 -24.5q-8 -5 -11 0.5t4 9.5zM791 1196q58 0 93 -23t49 -61.5t8.5 -89.5t-27.5 -107q22 -58 25 -129t-11 -148.5t-43 -157.5
t-69.5 -154.5t-91 -140t-108.5 -114.5t-121 -77t-128 -28q-72 0 -134 36t-100.5 108.5t-45.5 181.5t31 254q-63 41 -95 104t-32 135q0 67 23 121t60.5 96t84 72.5t94 50t91.5 29t75 9.5q19 0 26.5 -8t6 -17.5t-10 -16.5t-20.5 -5q-14 2 -25.5 6t-26 6t-33 0.5t-46.5 -9.5
q-79 -24 -134.5 -65t-89.5 -91.5t-46.5 -107t-4.5 -110t35.5 -100.5t73.5 -79q28 86 73 166t100.5 150t119 127.5t128 99t127.5 64.5t119 23zM766 1167q-53 0 -110 -25.5t-115 -69.5t-113 -104.5t-103.5 -130t-87.5 -146t-63 -153.5q68 -27 139.5 -26.5t141.5 21t136 58
t122 85t98.5 101.5t67.5 109q-13 42 -37.5 65.5t-62.5 23.5q-11 0 -17 -6t-8.5 -15t-2.5 -19t2 -19q2 -8 -4 -10.5t-11 6.5q-8 13 -9.5 31t4.5 34.5t22 28t43 11.5q32 0 58 -20.5t46 -55.5q15 46 16 87.5t-15 72t-49.5 48.5t-87.5 18zM369 -14q64 0 122 26.5t109.5 72.5
t95 107.5t78.5 130.5t60.5 142.5t40 144t17.5 134.5t-6 113q-30 -59 -76.5 -113.5t-104 -100t-123.5 -80t-135.5 -52t-140.5 -17t-137 25.5q-29 -107 -30 -204t25 -170.5t78 -116.5t127 -43z" />
    <glyph glyph-name="Ocircumflex" unicode="&#xd4;" horiz-adv-x="888" 
d="M791 1196q58 0 93 -23t49 -61.5t8.5 -89.5t-27.5 -107q22 -58 25 -129t-11 -148.5t-43 -157.5t-69.5 -154.5t-91 -140t-108.5 -114.5t-121 -77t-128 -28q-72 0 -134 36t-100.5 108.5t-45.5 181.5t31 254q-63 41 -95 104t-32 135q0 67 23 121t60.5 96t84 72.5t94 50
t91.5 29t75 9.5q19 0 26.5 -8t6 -17.5t-10 -16.5t-20.5 -5q-14 2 -25.5 6t-26 6t-33 0.5t-46.5 -9.5q-79 -24 -134.5 -65t-89.5 -91.5t-46.5 -107t-4.5 -110t35.5 -100.5t73.5 -79q28 86 73 166t100.5 150t119 127.5t128 99t127.5 64.5t119 23zM766 1167q-53 0 -110 -25.5
t-115 -69.5t-113 -104.5t-103.5 -130t-87.5 -146t-63 -153.5q68 -27 139.5 -26.5t141.5 21t136 58t122 85t98.5 101.5t67.5 109q-13 42 -37.5 65.5t-62.5 23.5q-11 0 -17 -6t-8.5 -15t-2.5 -19t2 -19q2 -8 -4 -10.5t-11 6.5q-8 13 -9.5 31t4.5 34.5t22 28t43 11.5
q32 0 58 -20.5t46 -55.5q15 46 16 87.5t-15 72t-49.5 48.5t-87.5 18zM369 -14q64 0 122 26.5t109.5 72.5t95 107.5t78.5 130.5t60.5 142.5t40 144t17.5 134.5t-6 113q-30 -59 -76.5 -113.5t-104 -100t-123.5 -80t-135.5 -52t-140.5 -17t-137 25.5q-29 -107 -30 -204
t25 -170.5t78 -116.5t127 -43zM832 1345q1 -2 8.5 -11.5t18.5 -23t23.5 -29t23.5 -29.5t18.5 -23.5t8.5 -11.5h-53q-1 2 -12.5 14.5t-24.5 27t-24 26.5t-12 13q-18 -15 -29.5 -24t-21.5 -17t-21.5 -17t-28.5 -23h-30q21 19 46 41t46.5 41t37 31.5t17.5 14.5h9z" />
    <glyph glyph-name="Odieresis" unicode="&#xd6;" horiz-adv-x="888" 
d="M791 1196q58 0 93 -23t49 -61.5t8.5 -89.5t-27.5 -107q22 -58 25 -129t-11 -148.5t-43 -157.5t-69.5 -154.5t-91 -140t-108.5 -114.5t-121 -77t-128 -28q-72 0 -134 36t-100.5 108.5t-45.5 181.5t31 254q-63 41 -95 104t-32 135q0 67 23 121t60.5 96t84 72.5t94 50
t91.5 29t75 9.5q19 0 26.5 -8t6 -17.5t-10 -16.5t-20.5 -5q-14 2 -25.5 6t-26 6t-33 0.5t-46.5 -9.5q-79 -24 -134.5 -65t-89.5 -91.5t-46.5 -107t-4.5 -110t35.5 -100.5t73.5 -79q28 86 73 166t100.5 150t119 127.5t128 99t127.5 64.5t119 23zM766 1167q-53 0 -110 -25.5
t-115 -69.5t-113 -104.5t-103.5 -130t-87.5 -146t-63 -153.5q68 -27 139.5 -26.5t141.5 21t136 58t122 85t98.5 101.5t67.5 109q-13 42 -37.5 65.5t-62.5 23.5q-11 0 -17 -6t-8.5 -15t-2.5 -19t2 -19q2 -8 -4 -10.5t-11 6.5q-8 13 -9.5 31t4.5 34.5t22 28t43 11.5
q32 0 58 -20.5t46 -55.5q15 46 16 87.5t-15 72t-49.5 48.5t-87.5 18zM369 -14q64 0 122 26.5t109.5 72.5t95 107.5t78.5 130.5t60.5 142.5t40 144t17.5 134.5t-6 113q-30 -59 -76.5 -113.5t-104 -100t-123.5 -80t-135.5 -52t-140.5 -17t-137 25.5q-29 -107 -30 -204
t25 -170.5t78 -116.5t127 -43zM671 1334q-17 0 -29 12t-12 29t12 29t29 12t29 -12t12 -29t-12 -29t-29 -12zM904 1334q-17 0 -29 12t-12 29t12 29t29 12t29 -12t12 -29t-12 -29t-29 -12z" />
    <glyph glyph-name="Ograve" unicode="&#xd2;" horiz-adv-x="888" 
d="M791 1196q-56 0 -119 -23t-127.5 -64.5t-128 -99t-119 -127.5t-100.5 -150t-73 -166q-46 32 -73.5 79t-35.5 100.5t4.5 110t46.5 107t89.5 91.5t134.5 65q28 8 46.5 9.5t33 -0.5t26 -6t25.5 -6q12 -2 20.5 5t10 16.5t-6 17.5t-26.5 8q-31 0 -75 -9.5t-91.5 -29t-94 -50
t-84 -72.5t-60.5 -96t-23 -121q0 -72 32 -135t95 -104q-38 -145 -31 -254t45.5 -181.5t100.5 -108.5t134 -36q65 0 128 28t121 77t108.5 114.5t91 140t69.5 154.5t43 157.5t11 148.5t-25 129q22 56 27.5 107t-8.5 89.5t-49 61.5t-93 23zM766 1167q54 0 87.5 -18t49.5 -48.5
t15 -72t-16 -87.5q-20 35 -46 55.5t-58 20.5q-27 0 -43 -11.5t-22 -28t-4.5 -34.5t9.5 -31q5 -9 11 -6.5t4 10.5q-2 9 -2 19t2.5 19t8.5 15t17 6q38 0 62.5 -23.5t37.5 -65.5q-25 -55 -67.5 -109t-98.5 -101.5t-122 -85t-136 -58t-141.5 -21t-139.5 26.5q24 77 63 153.5
t87.5 146t103.5 130t113 104.5t115 69.5t110 25.5zM369 -14q-75 0 -127 43t-78 116.5t-25 170.5t30 204q66 -25 137 -25.5t140.5 17t135.5 52t123.5 80t104 100t76.5 113.5q9 -49 6 -113t-17.5 -134.5t-40 -144t-60.5 -142.5t-78.5 -130.5t-95 -107.5t-109.5 -72.5
t-122 -26.5zM925 1246q7 -2 5.5 -7t-10.5 -3q-16 4 -39 15.5t-46 29t-41 41t-24 51.5q-2 10 1 18t8.5 13.5t11 8.5t8.5 4q9 2 24.5 -1.5t23.5 -26.5q5 -17 2.5 -35.5t0.5 -37t18 -36.5t57 -34z" />
    <glyph glyph-name="Otilde" unicode="&#xd5;" horiz-adv-x="888" 
d="M791 1196q58 0 93 -23t49 -61.5t8.5 -89.5t-27.5 -107q22 -58 25 -129t-11 -148.5t-43 -157.5t-69.5 -154.5t-91 -140t-108.5 -114.5t-121 -77t-128 -28q-72 0 -134 36t-100.5 108.5t-45.5 181.5t31 254q-63 41 -95 104t-32 135q0 67 23 121t60.5 96t84 72.5t94 50
t91.5 29t75 9.5q19 0 26.5 -8t6 -17.5t-10 -16.5t-20.5 -5q-14 2 -25.5 6t-26 6t-33 0.5t-46.5 -9.5q-79 -24 -134.5 -65t-89.5 -91.5t-46.5 -107t-4.5 -110t35.5 -100.5t73.5 -79q28 86 73 166t100.5 150t119 127.5t128 99t127.5 64.5t119 23zM766 1167q-53 0 -110 -25.5
t-115 -69.5t-113 -104.5t-103.5 -130t-87.5 -146t-63 -153.5q68 -27 139.5 -26.5t141.5 21t136 58t122 85t98.5 101.5t67.5 109q-13 42 -37.5 65.5t-62.5 23.5q-11 0 -17 -6t-8.5 -15t-2.5 -19t2 -19q2 -8 -4 -10.5t-11 6.5q-8 13 -9.5 31t4.5 34.5t22 28t43 11.5
q32 0 58 -20.5t46 -55.5q15 46 16 87.5t-15 72t-49.5 48.5t-87.5 18zM369 -14q64 0 122 26.5t109.5 72.5t95 107.5t78.5 130.5t60.5 142.5t40 144t17.5 134.5t-6 113q-30 -59 -76.5 -113.5t-104 -100t-123.5 -80t-135.5 -52t-140.5 -17t-137 25.5q-29 -107 -30 -204
t25 -170.5t78 -116.5t127 -43zM672 1244q-10 0 -16.5 8t-6.5 19q0 29 23 49t61 20q23 0 40.5 -9.5t34 -21t34 -21t38.5 -9.5q38 0 56.5 18t18.5 40q9 0 17 -6.5t8 -17.5q0 -32 -24 -51t-59 -19q-18 0 -37.5 9.5t-39.5 20.5t-39.5 20.5t-38.5 9.5q-20 0 -33 -5.5t-21.5 -14
t-12 -19t-3.5 -20.5z" />
    <glyph glyph-name="Scaron" unicode="&#x160;" horiz-adv-x="980" 
d="M1033 1032q0 -48 -25 -98.5t-70.5 -91.5t-108 -67t-137.5 -26q36 -46 78.5 -91t78.5 -95t60.5 -108t24.5 -130q0 -65 -26 -123.5t-72.5 -105t-111 -77.5t-140.5 -41q-45 -61 -106 -114t-134 -92.5t-155.5 -62t-171.5 -22.5q-15 0 -22 8t-7 18t7 18t20 8q12 0 19 -5
t16 -10t24 -8t44 0q69 8 132 31t119.5 57.5t104 78t85.5 92.5q-11 -1 -21.5 -1.5t-21.5 -0.5q-99 0 -176 32.5t-130 83t-80.5 113t-27.5 122.5q0 59 20 113t57 94.5t90.5 64.5t120.5 24q50 0 103.5 -20t97.5 -62.5t72.5 -108t28.5 -156.5q0 -69 -24.5 -139t-69.5 -136
q46 8 95 27.5t89.5 56.5t67 95t26.5 143q0 49 -12.5 90.5t-33.5 78.5t-48 70.5t-55.5 65.5t-56.5 64t-51 66q-52 9 -96 27.5t-69 41.5q-10 9 -8 19t9.5 16.5t17.5 6.5t17 -12q20 -33 52 -51.5t64 -27.5q-22 36 -35 75.5t-13 86.5q0 58 28 105.5t71.5 81t96.5 51.5t102 18
q40 0 73 -13t56 -35.5t35.5 -51.5t12.5 -61zM516 -9q25 0 58 3q47 67 72.5 137.5t25.5 138.5q0 60 -18.5 119.5t-54.5 106.5t-88.5 76.5t-121.5 29.5q-68 0 -116 -26.5t-77 -69t-39 -97.5t-1.5 -112.5t35.5 -112.5t72 -97.5t108.5 -69t144.5 -26.5zM680 764q75 -3 136.5 22
t104.5 64.5t66.5 87.5t23.5 92q0 30 -10.5 55.5t-30 44t-48.5 29.5t-66 11q-48 0 -92 -16.5t-77.5 -47t-54 -72.5t-20.5 -93t19 -93.5t49 -83.5zM841 1304q-26 42 -51 84.5t-51 84.5h54q18 -29 36 -57t38 -57q36 30 69.5 57.5t68.5 56.5h30q-21 -20 -51.5 -48t-59.5 -54.5
t-50.5 -46t-23.5 -20.5h-9z" />
    <glyph glyph-name="Uacute" unicode="&#xda;" horiz-adv-x="876" 
d="M701 632q39 24 51.5 45t11.5 40t-7.5 36.5t-4.5 34.5q3 25 18 32t25 6q7 0 22.5 -8t16.5 -29q0 -29 -13.5 -55.5t-33.5 -48.5t-42 -38.5t-37 -24.5q-8 -5 -11 0.5t4 9.5zM860 509q17 0 16 -4.5t-3 -5.5q-16 -11 -30 -32t-29 -55t-33 -84t-42 -120q-9 -24 -19 -54.5
t-14 -57.5t2.5 -45.5t30.5 -18.5q16 0 30 7.5t26 18.5t21.5 25t17.5 28q2 3 5.5 2t1.5 -6q-8 -21 -21 -41t-31 -36t-39 -26t-45 -10q-58 0 -64 58.5t49 179.5h-3q-18 -29 -48 -69.5t-70.5 -78.5t-91 -64.5t-111.5 -26.5q-69 0 -95 25t-24.5 66t22 92.5t44.5 104.5
q21 46 49 109.5t55.5 135.5t51.5 148.5t36.5 149.5t10.5 138t-25.5 114t-73 77.5t-131.5 28.5q-75 0 -137.5 -28t-110.5 -75t-79.5 -108t-45 -127t-7 -131t35 -120.5t80 -97t129.5 -58.5q27 -6 42 -3.5t23.5 8.5t14 12.5t14.5 8.5q10 2 16.5 -1t9 -9t1 -13t-8.5 -13
q-13 -10 -48.5 -13.5t-81 5t-95 31.5t-89.5 66.5t-65 110t-21 162.5q3 74 34.5 147.5t87 132.5t131.5 95.5t168 36.5q91 0 156 -40t95 -119.5t19.5 -199t-68.5 -278.5q-28 -77 -59 -148t-57.5 -132t-44.5 -111t-20 -85t16 -54.5t64 -19.5q39 0 78 18t75 48t68.5 69t60 80
t48 81.5t33.5 74.5q26 69 54.5 96.5t57.5 27.5z" />
    <glyph glyph-name="Ucircumflex" unicode="&#xdb;" horiz-adv-x="876" 
d="M860 509q17 0 16 -4.5t-3 -5.5q-16 -11 -30 -32t-29 -55t-33 -84t-42 -120q-9 -24 -19 -54.5t-14 -57.5t2.5 -45.5t30.5 -18.5q16 0 30 7.5t26 18.5t21.5 25t17.5 28q2 3 5.5 2t1.5 -6q-8 -21 -21 -41t-31 -36t-39 -26t-45 -10q-58 0 -64 58.5t49 179.5h-3
q-18 -29 -48 -69.5t-70.5 -78.5t-91 -64.5t-111.5 -26.5q-69 0 -95 25t-24.5 66t22 92.5t44.5 104.5q21 46 49 109.5t55.5 135.5t51.5 148.5t36.5 149.5t10.5 138t-25.5 114t-73 77.5t-131.5 28.5q-75 0 -137.5 -28t-110.5 -75t-79.5 -108t-45 -127t-7 -131t35 -120.5
t80 -97t129.5 -58.5q27 -6 42 -3.5t23.5 8.5t14 12.5t14.5 8.5q10 2 16.5 -1t9 -9t1 -13t-8.5 -13q-13 -10 -48.5 -13.5t-81 5t-95 31.5t-89.5 66.5t-65 110t-21 162.5q3 74 34.5 147.5t87 132.5t131.5 95.5t168 36.5q91 0 156 -40t95 -119.5t19.5 -199t-68.5 -278.5
q-28 -77 -59 -148t-57.5 -132t-44.5 -111t-20 -85t16 -54.5t64 -19.5q39 0 78 18t75 48t68.5 69t60 80t48 81.5t33.5 74.5q26 69 54.5 96.5t57.5 27.5zM741 1345q26 -42 50.5 -84.5t50.5 -84.5h-53q-18 29 -36.5 57t-38.5 57q-36 -30 -69.5 -57.5t-68.5 -56.5h-30
q21 19 52 47.5t60 55t50.5 45.5t23.5 21h9z" />
    <glyph glyph-name="Udieresis" unicode="&#xdc;" horiz-adv-x="891" 
d="M614 1199q-17 0 -29 12t-12 29t12 29t29 12t29 -12t12 -29t-12 -29t-29 -12zM847 1199q-17 0 -29 12t-12 29t12 29t29 12t29 -12t12 -29t-12 -29t-29 -12zM860 509q17 0 16 -4.5t-3 -5.5q-16 -11 -30 -32t-29 -55t-33 -84t-42 -120q-9 -24 -19 -54.5t-14 -57.5t2.5 -45.5
t30.5 -18.5q16 0 30 7.5t26 18.5t21.5 25t17.5 28q2 3 5.5 2t1.5 -6q-8 -21 -21 -41t-31 -36t-39 -26t-45 -10q-58 0 -64 58.5t49 179.5h-3q-18 -29 -48 -69.5t-70.5 -78.5t-91 -64.5t-111.5 -26.5q-69 0 -95 25t-24.5 66t22 92.5t44.5 104.5q21 46 49 109.5t55.5 135.5
t51.5 148.5t36.5 149.5t10.5 138t-25.5 114t-73 77.5t-131.5 28.5q-75 0 -137.5 -28t-110.5 -75t-79.5 -108t-45 -127t-7 -131t35 -120.5t80 -97t129.5 -58.5q27 -6 42 -3.5t23.5 8.5t14 12.5t14.5 8.5q10 2 16.5 -1t9 -9t1 -13t-8.5 -13q-13 -10 -48.5 -13.5t-81 5
t-95 31.5t-89.5 66.5t-65 110t-21 162.5q3 74 34.5 147.5t87 132.5t131.5 95.5t168 36.5q91 0 156 -40t95 -119.5t19.5 -199t-68.5 -278.5q-28 -77 -59 -148t-57.5 -132t-44.5 -111t-20 -85t16 -54.5t64 -19.5q39 0 78 18t75 48t68.5 69t60 80t48 81.5t33.5 74.5
q26 69 54.5 96.5t57.5 27.5z" />
    <glyph glyph-name="Ugrave" unicode="&#xd9;" horiz-adv-x="876" 
d="M860 509q17 0 16 -4.5t-3 -5.5q-16 -11 -30 -32t-29 -55t-33 -84t-42 -120q-9 -24 -19 -54.5t-14 -57.5t2.5 -45.5t30.5 -18.5q16 0 30 7.5t26 18.5t21.5 25t17.5 28q2 3 5.5 2t1.5 -6q-8 -21 -21 -41t-31 -36t-39 -26t-45 -10q-58 0 -64 58.5t49 179.5h-3
q-18 -29 -48 -69.5t-70.5 -78.5t-91 -64.5t-111.5 -26.5q-69 0 -95 25t-24.5 66t22 92.5t44.5 104.5q21 46 49 109.5t55.5 135.5t51.5 148.5t36.5 149.5t10.5 138t-25.5 114t-73 77.5t-131.5 28.5q-75 0 -137.5 -28t-110.5 -75t-79.5 -108t-45 -127t-7 -131t35 -120.5
t80 -97t129.5 -58.5q27 -6 42 -3.5t23.5 8.5t14 12.5t14.5 8.5q10 2 16.5 -1t9 -9t1 -13t-8.5 -13q-13 -10 -48.5 -13.5t-81 5t-95 31.5t-89.5 66.5t-65 110t-21 162.5q3 74 34.5 147.5t87 132.5t131.5 95.5t168 36.5q91 0 156 -40t95 -119.5t19.5 -199t-68.5 -278.5
q-28 -77 -59 -148t-57.5 -132t-44.5 -111t-20 -85t16 -54.5t64 -19.5q39 0 78 18t75 48t68.5 69t60 80t48 81.5t33.5 74.5q26 69 54.5 96.5t57.5 27.5zM798 642q7 -2 5.5 -7t-10.5 -3q-16 4 -39 15.5t-46 29t-41 41t-24 51.5q-2 10 1 18t8.5 13.5t11 8.5t8.5 4
q9 2 24.5 -1.5t23.5 -26.5q5 -17 2.5 -35.5t0.5 -37t18 -36.5t57 -34z" />
    <glyph glyph-name="Yacute" unicode="&#xdd;" horiz-adv-x="1067" 
d="M853 613q39 24 51.5 45t11.5 40t-7.5 36.5t-4.5 34.5q3 25 18 32t25 6q7 0 22.5 -8t16.5 -29q0 -29 -13.5 -55.5t-33.5 -48.5t-42 -38.5t-37 -24.5q-8 -5 -11 0.5t4 9.5zM863 -55q117 4 203.5 -9t144 -38t85.5 -59t28 -71q0 -25 -9.5 -44t-23 -32.5t-27.5 -22t-24 -12.5
q-19 -7 -26 -4t4 6q9 3 20 9.5t21 18.5t16.5 29.5t6.5 41.5q0 43 -30 76t-85.5 54.5t-134.5 31.5t-176 7q-60 -142 -123.5 -233t-130 -144t-136.5 -73.5t-143 -20.5q-44 0 -82.5 10.5t-67 29t-45 44.5t-16.5 58q0 51 29.5 95t81 80.5t120 65.5t147 50t162 34.5t164.5 18.5
q28 74 51 147.5t43 142.5h-2q-18 -29 -46 -69.5t-67 -78.5t-89 -64.5t-111 -26.5q-69 0 -96 25t-27 66t19 92.5t41 104.5q19 46 44.5 109.5t51 135.5t46.5 148.5t31 149.5t6 138t-29.5 114t-76 77.5t-132.5 28.5q-75 0 -136.5 -28t-108 -75t-76 -108t-40.5 -127t-2.5 -131
t39 -120.5t84 -97t131.5 -58.5q27 -6 42 -3.5t23.5 8.5t14 12.5t13.5 8.5q10 2 17 -1t9.5 -9t1 -13t-8.5 -13q-12 -10 -47.5 -13.5t-81 5t-95.5 31.5t-92 66.5t-69 110t-27 162.5q0 74 29 147.5t82 132.5t128.5 95.5t167.5 36.5q91 0 157.5 -40t99 -119.5t26.5 -199
t-59 -279.5q-26 -77 -54.5 -147.5t-52.5 -131.5t-40.5 -111t-17 -85t18 -54.5t64.5 -19.5q59 0 114.5 39t102.5 96t81.5 121t51.5 115q23 69 51 96.5t57 27.5q8 0 11.5 -1.5t4 -3.5t-0.5 -3.5t-2 -2.5q-18 -11 -32 -30t-28.5 -52.5t-31.5 -84.5t-39 -127q-43 -145 -90 -259z
M360 -522q86 0 154 36.5t122.5 98t96.5 142.5t76 169q-137 -8 -255 -36.5t-205 -71.5t-136.5 -97t-49.5 -113q0 -55 51.5 -91.5t145.5 -36.5z" />
    <glyph glyph-name="Ydieresis" unicode="&#x178;" horiz-adv-x="1067" 
d="M863 -55q117 4 203.5 -9t144 -38t85.5 -59t28 -71q0 -25 -9.5 -44t-23 -32.5t-27.5 -22t-24 -12.5q-19 -7 -26 -4t4 6q9 3 20 9.5t21 18.5t16.5 29.5t6.5 41.5q0 43 -30 76t-85.5 54.5t-134.5 31.5t-176 7q-60 -142 -123.5 -233t-130 -144t-136.5 -73.5t-143 -20.5
q-44 0 -82.5 10.5t-67 29t-45 44.5t-16.5 58q0 51 29.5 95t81 80.5t120 65.5t147 50t162 34.5t164.5 18.5q28 74 51 147.5t43 142.5h-2q-18 -29 -46 -69.5t-67 -78.5t-89 -64.5t-111 -26.5q-69 0 -96 25t-27 66t19 92.5t41 104.5q19 46 44.5 109.5t51 135.5t46.5 148.5
t31 149.5t6 138t-29.5 114t-76 77.5t-132.5 28.5q-75 0 -136.5 -28t-108 -75t-76 -108t-40.5 -127t-2.5 -131t39 -120.5t84 -97t131.5 -58.5q27 -6 42 -3.5t23.5 8.5t14 12.5t13.5 8.5q10 2 17 -1t9.5 -9t1 -13t-8.5 -13q-12 -10 -47.5 -13.5t-81 5t-95.5 31.5t-92 66.5
t-69 110t-27 162.5q0 74 29 147.5t82 132.5t128.5 95.5t167.5 36.5q91 0 157.5 -40t99 -119.5t26.5 -199t-59 -279.5q-26 -77 -54.5 -147.5t-52.5 -131.5t-40.5 -111t-17 -85t18 -54.5t64.5 -19.5q59 0 114.5 39t102.5 96t81.5 121t51.5 115q23 69 51 96.5t57 27.5
q8 0 11.5 -1.5t4 -3.5t-0.5 -3.5t-2 -2.5q-18 -11 -32 -30t-28.5 -52.5t-31.5 -84.5t-39 -127q-43 -145 -90 -259zM360 -522q86 0 154 36.5t122.5 98t96.5 142.5t76 169q-137 -8 -255 -36.5t-205 -71.5t-136.5 -97t-49.5 -113q0 -55 51.5 -91.5t145.5 -36.5zM854 1203
q-17 0 -29 12t-12 29t12 29t29 12t29 -12t12 -29t-12 -29t-29 -12zM1087 1203q-17 0 -29 12t-12 29t12 29t29 12t29 -12t12 -29t-12 -29t-29 -12z" />
    <glyph glyph-name="Zcaron" unicode="&#x17d;" horiz-adv-x="1312" 
d="M1752 1167q19 12 32.5 10.5t19.5 -9t5 -17.5t-11 -14q-58 -28 -119.5 -73t-126.5 -102.5t-133 -125.5t-137.5 -141t-140.5 -148.5t-142 -148.5q51 6 103.5 21t99.5 38t84.5 55t59.5 72q12 22 28.5 24t28 -8t12.5 -27.5t-20 -34.5q-85 -71 -194 -112.5t-223 -49.5
q-108 -109 -214.5 -203t-211.5 -158q60 -46 119 -99.5t119.5 -106.5t123 -103t130 -88t141.5 -61t156 -23t146 27.5t105.5 69t58 89.5t3 89.5t-59 69t-127.5 27.5q-56 0 -102.5 -14t-81.5 -33t-58 -37.5t-31 -28.5q-9 -11 -20.5 -10.5t-17.5 7t-4.5 17t18.5 19.5
q107 57 191.5 81.5t149.5 24.5q81 0 129.5 -30.5t65 -77t0.5 -100t-64.5 -100t-130 -77t-196.5 -30.5q-92 0 -172 22.5t-151.5 60t-134.5 86.5t-121.5 101.5t-113.5 105.5t-109 99q-65 -35 -127 -55t-122 -20q-78 0 -127 17.5t-73 44t-24 57t20 57t57.5 44t90.5 17.5
q89 0 168 -34.5t154 -88.5q99 61 202 150.5t207 192.5q-134 -2 -230.5 30.5t-159 86.5t-91.5 124t-27.5 143t32.5 143t88 125.5t139.5 89t187.5 33.5q65 0 137.5 -8.5t149.5 -18t155 -17t153.5 -5.5t146 17t132.5 50zM263 -65q53 0 110.5 19.5t118.5 54.5q-69 55 -138.5 90
t-147.5 35q-35 0 -60.5 -14.5t-38.5 -37t-12 -48t19 -48t54.5 -37t94.5 -14.5zM1692 1104q4 2 2.5 4t-5.5 0q-50 -21 -113 -28t-133.5 -5t-145.5 10t-148.5 17t-143 16t-128.5 7q-99 0 -173.5 -33t-122.5 -86t-70.5 -121t-18 -138t35.5 -136.5t89 -116.5t143.5 -78
t199.5 -22q73 73 144.5 148t139.5 147t131.5 138.5t120.5 121t106.5 94.5t89.5 61z" />
    <glyph glyph-name="aacute" unicode="&#xe1;" horiz-adv-x="540" 
d="M385 606q39 24 51.5 45t11.5 40t-7.5 36.5t-4.5 34.5q3 25 18 32t25 6q7 0 22.5 -8t16.5 -29q0 -29 -13.5 -55.5t-33.5 -48.5t-42 -38.5t-37 -24.5q-8 -5 -11 0.5t4 9.5zM417 208q-8 -24 -17 -55t-12 -58t4 -45.5t33 -18.5q15 0 28.5 7.5t24.5 19t20.5 25.5t16.5 27
q2 4 5.5 3t1.5 -7q-6 -20 -18 -40.5t-28.5 -36.5t-36.5 -26t-44 -10q-35 0 -50 18t-17 44.5t5 56.5t16 54h-3q-9 -23 -28.5 -52.5t-46 -56t-58.5 -45t-66 -18.5t-57 12t-37 31.5t-20 43t-6 46.5q0 39 13.5 83t36 86.5t52.5 81.5t63 69t67 47.5t66 17.5q10 0 26 -3.5
t31 -16.5t26 -38.5t11 -68.5h2q23 66 50 91t54 25q17 0 17 -4t-3 -6q-17 -11 -29.5 -30t-26 -52t-29 -82t-37.5 -119zM333 492q-42 0 -84 -34t-77 -85.5t-58 -111.5t-26.5 -111.5t17 -85.5t72.5 -34q28 0 56.5 20.5t54.5 53t48 73.5t37 83q24 67 27 111.5t-6 71.5t-26.5 38
t-34.5 11z" />
    <glyph glyph-name="acircumflex" unicode="&#xe2;" horiz-adv-x="540" 
d="M417 208q-8 -24 -17 -55t-12 -58t4 -45.5t33 -18.5q15 0 28.5 7.5t24.5 19t20.5 25.5t16.5 27q2 4 5.5 3t1.5 -7q-6 -20 -18 -40.5t-28.5 -36.5t-36.5 -26t-44 -10q-35 0 -50 18t-17 44.5t5 56.5t16 54h-3q-9 -23 -28.5 -52.5t-46 -56t-58.5 -45t-66 -18.5t-57 12
t-37 31.5t-20 43t-6 46.5q0 39 13.5 83t36 86.5t52.5 81.5t63 69t67 47.5t66 17.5q10 0 26 -3.5t31 -16.5t26 -38.5t11 -68.5h2q23 66 50 91t54 25q17 0 17 -4t-3 -6q-17 -11 -29.5 -30t-26 -52t-29 -82t-37.5 -119zM333 492q-42 0 -84 -34t-77 -85.5t-58 -111.5
t-26.5 -111.5t17 -85.5t72.5 -34q28 0 56.5 20.5t54.5 53t48 73.5t37 83q24 67 27 111.5t-6 71.5t-26.5 38t-34.5 11zM417 706q1 -2 8.5 -11.5t18.5 -23t23.5 -29t23.5 -29.5t18.5 -23.5t8.5 -11.5h-53q-1 2 -12.5 14.5t-24.5 27t-24 26.5t-12 13q-18 -15 -29.5 -24
t-21.5 -17t-21.5 -17t-28.5 -23h-30q21 19 46 41t46.5 41t37 31.5t17.5 14.5h9z" />
    <glyph glyph-name="adieresis" unicode="&#xe4;" horiz-adv-x="545" 
d="M417 208q-8 -24 -17 -55t-12 -58t4 -45.5t33 -18.5q15 0 28.5 7.5t24.5 19t20.5 25.5t16.5 27q2 4 5.5 3t1.5 -7q-6 -20 -18 -40.5t-28.5 -36.5t-36.5 -26t-44 -10q-35 0 -50 18t-17 44.5t5 56.5t16 54h-3q-9 -23 -28.5 -52.5t-46 -56t-58.5 -45t-66 -18.5t-57 12
t-37 31.5t-20 43t-6 46.5q0 39 13.5 83t36 86.5t52.5 81.5t63 69t67 47.5t66 17.5q10 0 26 -3.5t31 -16.5t26 -38.5t11 -68.5h2q23 66 50 91t54 25q17 0 17 -4t-3 -6q-17 -11 -29.5 -30t-26 -52t-29 -82t-37.5 -119zM333 492q-42 0 -84 -34t-77 -85.5t-58 -111.5
t-26.5 -111.5t17 -85.5t72.5 -34q28 0 56.5 20.5t54.5 53t48 73.5t37 83q24 67 27 111.5t-6 71.5t-26.5 38t-34.5 11z" />
    <glyph glyph-name="agrave" unicode="&#xe0;" horiz-adv-x="540" 
d="M417 208q22 70 37.5 119t29 82t26 52t29.5 30q3 2 3 6t-17 4q-27 0 -54 -25t-50 -91h-2q0 43 -11 68.5t-26 38.5t-31 16.5t-26 3.5q-32 0 -66 -17.5t-67 -47.5t-63 -69t-52.5 -81.5t-36 -86.5t-13.5 -83q0 -23 6 -46.5t20 -43t37 -31.5t57 -12t66 18.5t58.5 45t46 56
t28.5 52.5h3q-9 -24 -16 -54t-5 -56.5t17 -44.5t50 -18q24 0 44 10t36.5 26t28.5 36.5t18 40.5q2 6 -1.5 7t-5.5 -3q-7 -13 -16.5 -27t-20.5 -25.5t-24.5 -19t-28.5 -7.5q-26 0 -33 18.5t-4 45.5t12 58t17 55zM333 492q17 0 34.5 -11t26.5 -38t6 -71.5t-27 -111.5
q-15 -42 -37 -83t-48 -73.5t-54.5 -53t-56.5 -20.5q-52 0 -72.5 34t-17 85.5t26.5 111.5t58 111.5t77 85.5t84 34zM490 604q7 -2 5.5 -7t-10.5 -3q-16 4 -39 15.5t-46 29t-41 41t-24 51.5q-2 10 1 18t8.5 13.5t11 8.5t8.5 4q9 2 24.5 -1.5t23.5 -26.5q5 -17 2.5 -35.5
t0.5 -37t18 -36.5t57 -34z" />
    <glyph glyph-name="aring" unicode="&#xe5;" horiz-adv-x="540" 
d="M417 208q-8 -24 -17 -55t-12 -58t4 -45.5t33 -18.5q15 0 28.5 7.5t24.5 19t20.5 25.5t16.5 27q2 4 5.5 3t1.5 -7q-6 -20 -18 -40.5t-28.5 -36.5t-36.5 -26t-44 -10q-35 0 -50 18t-17 44.5t5 56.5t16 54h-3q-9 -23 -28.5 -52.5t-46 -56t-58.5 -45t-66 -18.5t-57 12
t-37 31.5t-20 43t-6 46.5q0 39 13.5 83t36 86.5t52.5 81.5t63 69t67 47.5t66 17.5q10 0 26 -3.5t31 -16.5t26 -38.5t11 -68.5h2q23 66 50 91t54 25q17 0 17 -4t-3 -6q-17 -11 -29.5 -30t-26 -52t-29 -82t-37.5 -119zM333 492q-42 0 -84 -34t-77 -85.5t-58 -111.5
t-26.5 -111.5t17 -85.5t72.5 -34q28 0 56.5 20.5t54.5 53t48 73.5t37 83q24 67 27 111.5t-6 71.5t-26.5 38t-34.5 11z" />
    <glyph glyph-name="atilde" unicode="&#xe3;" horiz-adv-x="541" 
d="M256 594q-10 0 -16.5 8t-6.5 19q0 29 23 49t61 20q23 0 40.5 -9.5t34 -21t34 -21t38.5 -9.5q38 0 56.5 18t18.5 40q9 0 17 -6.5t8 -17.5q0 -32 -24 -51t-59 -19q-18 0 -37.5 9.5t-39.5 20.5t-39.5 20.5t-38.5 9.5q-20 0 -33 -5.5t-21.5 -14t-12 -19t-3.5 -20.5zM434 208
q-8 -24 -17 -55t-12 -58t4 -45.5t33 -18.5q15 0 28.5 7.5t24.5 19t20.5 25.5t16.5 27q2 4 5.5 3t1.5 -7q-6 -20 -18 -40.5t-28.5 -36.5t-36.5 -26t-44 -10q-35 0 -50 18t-17 44.5t5 56.5t16 54h-3q-9 -23 -28.5 -52.5t-46 -56t-58.5 -45t-66 -18.5t-57 12t-37 31.5t-20 43
t-6 46.5q0 39 13.5 83t36 86.5t52.5 81.5t63 69t67 47.5t66 17.5q10 0 26 -3.5t31 -16.5t26 -38.5t11 -68.5h2q23 66 50 91t54 25q17 0 17 -4t-3 -6q-17 -11 -29.5 -30t-26 -52t-29 -82t-37.5 -119zM350 492q-42 0 -84 -34t-77 -85.5t-58 -111.5t-26.5 -111.5t17 -85.5
t72.5 -34q28 0 56.5 20.5t54.5 53t48 73.5t37 83q24 67 27 111.5t-6 71.5t-26.5 38t-34.5 11z" />
    <glyph glyph-name="ccedilla" unicode="&#xe7;" horiz-adv-x="461" 
d="M365 518q40 0 67 -14.5t40 -35.5t11.5 -45.5t-17.5 -43.5q-14 -16 -34 -18t-34 12q-9 9 -12.5 18.5t-2.5 18.5t5 16t9 12q12 10 17 22t1.5 22t-15.5 16.5t-33 6.5q-47 0 -90.5 -35t-77 -88t-53 -114t-18.5 -114t25.5 -88t79.5 -35q30 0 57 12.5t50 33.5t42 48t34 57
q4 9 9 7.5t2 -10.5q-8 -23 -27 -55t-47.5 -61.5t-64.5 -50t-76 -20.5q-4 -10 -4.5 -33t-0.5 -65q0 -24 -8.5 -44.5t-22 -36t-31.5 -24t-36 -8.5q-25 0 -44 12t-28.5 29t-8.5 37t16 36l8 -9q-11 -11 -12.5 -23t4.5 -22t17.5 -16.5t26.5 -6.5q37 0 56.5 19.5t29 47t14.5 57.5
t13 50q-28 2 -52 12.5t-42 30t-28 48.5t-10 69q0 39 12 81.5t33 83t49 77t61 64t69 44t72 16.5z" />
    <glyph glyph-name="eacute" unicode="&#xe9;" horiz-adv-x="433" 
d="M368 606q39 24 51.5 45t11.5 40t-7.5 36.5t-4.5 34.5q3 25 18 32t25 6q7 0 22.5 -8t16.5 -29q0 -29 -13.5 -55.5t-33.5 -48.5t-42 -38.5t-37 -24.5q-8 -5 -11 0.5t4 9.5zM443 422q0 -37 -26 -73t-73 -70.5t-113.5 -67.5t-148.5 -64q-1 -23 3.5 -44.5t16 -38t30 -26
t44.5 -9.5q39 0 70.5 18.5t55 43.5t39 50t22.5 37q6 10 10 6.5t1 -11.5q-2 -7 -17.5 -35.5t-43.5 -60.5t-68 -57.5t-91 -25.5q-53 0 -83 22.5t-41.5 59t-5.5 83.5t25.5 95.5t50.5 95.5t70 83.5t84 59t92 22.5q21 0 38.5 -7.5t30.5 -20t20.5 -29.5t7.5 -36zM329 495
q-47 0 -89.5 -32.5t-76 -81.5t-55 -107t-25.5 -108q93 32 154.5 69t97 73.5t49 70.5t9.5 59.5t-21.5 41t-42.5 15.5z" />
    <glyph glyph-name="ecircumflex" unicode="&#xea;" horiz-adv-x="444" 
d="M443 422q0 -37 -26 -73t-73 -70.5t-113.5 -67.5t-148.5 -64q-1 -23 3.5 -44.5t16 -38t30 -26t44.5 -9.5q39 0 70.5 18.5t55 43.5t39 50t22.5 37q6 10 10 6.5t1 -11.5q-2 -7 -17.5 -35.5t-43.5 -60.5t-68 -57.5t-91 -25.5q-53 0 -83 22.5t-41.5 59t-5.5 83.5t25.5 95.5
t50.5 95.5t70 83.5t84 59t92 22.5q21 0 38.5 -7.5t30.5 -20t20.5 -29.5t7.5 -36zM329 495q-47 0 -89.5 -32.5t-76 -81.5t-55 -107t-25.5 -108q93 32 154.5 69t97 73.5t49 70.5t9.5 59.5t-21.5 41t-42.5 15.5zM382 706q1 -2 8.5 -11.5t18.5 -23t23.5 -29t23.5 -29.5
t18.5 -23.5t8.5 -11.5h-53q-1 2 -12.5 14.5t-24.5 27t-24 26.5t-12 13q-18 -15 -29.5 -24t-21.5 -17t-21.5 -17t-28.5 -23h-30q21 19 46 41t46.5 41t37 31.5t17.5 14.5h9z" />
    <glyph glyph-name="edieresis" unicode="&#xeb;" horiz-adv-x="470" 
d="M443 422q0 -37 -26 -73t-73 -70.5t-113.5 -67.5t-148.5 -64q-1 -23 3.5 -44.5t16 -38t30 -26t44.5 -9.5q39 0 70.5 18.5t55 43.5t39 50t22.5 37q6 10 10 6.5t1 -11.5q-2 -7 -17.5 -35.5t-43.5 -60.5t-68 -57.5t-91 -25.5q-53 0 -83 22.5t-41.5 59t-5.5 83.5t25.5 95.5
t50.5 95.5t70 83.5t84 59t92 22.5q21 0 38.5 -7.5t30.5 -20t20.5 -29.5t7.5 -36zM329 495q-47 0 -89.5 -32.5t-76 -81.5t-55 -107t-25.5 -108q93 32 154.5 69t97 73.5t49 70.5t9.5 59.5t-21.5 41t-42.5 15.5z" />
    <glyph glyph-name="egrave" unicode="&#xe8;" horiz-adv-x="433" 
d="M443 422q0 19 -7.5 36t-20.5 29.5t-30.5 20t-38.5 7.5q-47 0 -92 -22.5t-84 -59t-70 -83.5t-50.5 -95.5t-25.5 -95.5t5.5 -83.5t41.5 -59t83 -22.5q51 0 91 25.5t68 57.5t43.5 60.5t17.5 35.5q3 8 -1 11.5t-10 -6.5q-7 -12 -22.5 -37t-39 -50t-55 -43.5t-70.5 -18.5
q-26 0 -44.5 9.5t-30 26t-16 38t-3.5 44.5q82 31 148.5 64t113.5 67.5t73 70.5t26 73zM329 495q25 0 42.5 -15.5t21.5 -41t-9.5 -59.5t-49 -70.5t-97 -73.5t-154.5 -69q4 50 25.5 108t55 107t76 81.5t89.5 32.5zM431 604q7 -2 5.5 -7t-10.5 -3q-16 4 -39 15.5t-46 29t-41 41
t-24 51.5q-2 10 1 18t8.5 13.5t11 8.5t8.5 4q9 2 24.5 -1.5t23.5 -26.5q5 -17 2.5 -35.5t0.5 -37t18 -36.5t57 -34z" />
    <glyph glyph-name="iacute" unicode="&#xed;" horiz-adv-x="267" 
d="M63 456q-3 3 1 8q8 7 20.5 16t27 16t29.5 11.5t28 4.5q45 -1 54 -31t-5 -72q-9 -28 -26.5 -72t-36 -90.5t-33.5 -87t-20 -60.5q-3 -9 -3 -21t4 -22.5t11.5 -17.5t21.5 -7q16 0 29 6.5t24.5 18t21.5 25.5t19 28q4 5 7 4t1 -6q-9 -21 -22.5 -41.5t-31 -36t-38 -25.5
t-42.5 -11q-24 -1 -39 8.5t-21 27.5t-4 42.5t13 53.5q7 19 22.5 57.5t33 82t34 85t26.5 67.5q12 31 8 49.5t-18 23.5t-36 -3.5t-47 -29.5q-9 -7 -13 -1zM214 609q39 24 51.5 45t11.5 40t-7.5 36.5t-4.5 34.5q3 25 18 32t25 6q7 0 22.5 -8t16.5 -29q0 -29 -13.5 -55.5
t-33.5 -48.5t-42 -38.5t-37 -24.5q-8 -5 -11 0.5t4 9.5z" />
    <glyph glyph-name="icircumflex" unicode="&#xee;" horiz-adv-x="297" 
d="M73 456q-3 3 1 8q8 7 20.5 16t27 16t29.5 11.5t28 4.5q45 -1 54 -31t-5 -72q-9 -28 -26.5 -72t-36 -90.5t-33.5 -87t-20 -60.5q-3 -9 -3 -21t4 -22.5t11.5 -17.5t21.5 -7q16 0 29 6.5t24.5 18t21.5 25.5t19 28q4 5 7 4t1 -6q-9 -21 -22.5 -41.5t-31 -36t-38 -25.5
t-42.5 -11q-24 -1 -39 8.5t-21 27.5t-4 42.5t13 53.5q7 19 22.5 57.5t33 82t34 85t26.5 67.5q12 31 8 49.5t-18 23.5t-36 -3.5t-47 -29.5q-9 -7 -13 -1z" />
    <glyph glyph-name="idieresis" unicode="&#xef;" horiz-adv-x="331" 
d="M63 456q-3 3 1 8q8 7 20.5 16t27 16t29.5 11.5t28 4.5q45 -1 54 -31t-5 -72q-9 -28 -26.5 -72t-36 -90.5t-33.5 -87t-20 -60.5q-3 -9 -3 -21t4 -22.5t11.5 -17.5t21.5 -7q16 0 29 6.5t24.5 18t21.5 25.5t19 28q4 5 7 4t1 -6q-9 -21 -22.5 -41.5t-31 -36t-38 -25.5
t-42.5 -11q-24 -1 -39 8.5t-21 27.5t-4 42.5t13 53.5q7 19 22.5 57.5t33 82t34 85t26.5 67.5q12 31 8 49.5t-18 23.5t-36 -3.5t-47 -29.5q-9 -7 -13 -1z" />
    <glyph glyph-name="igrave" unicode="&#xec;" horiz-adv-x="237" 
d="M63 456q4 -6 13 1q25 21 47 29.5t36 3.5t18 -23.5t-8 -49.5q-10 -26 -26.5 -67.5t-34 -85t-33 -82t-22.5 -57.5q-11 -29 -13 -53t4 -42t21.5 -28t40.5 -9q22 1 42.5 11t38 25.5t31 36t22.5 41.5q2 5 -1 6t-7 -4q-9 -14 -19 -28t-21.5 -25.5t-24.5 -18t-29 -6.5
q-14 0 -21.5 7t-11.5 17.5t-4 22.5t3 21q5 20 20 60.5t33.5 87t36 90.5t26.5 72q14 42 4 72t-55 31q-13 0 -28 -4.5t-29.5 -11.5t-27 -16t-20.5 -16q-4 -5 -1 -8zM272 604q7 -2 5.5 -7t-10.5 -3q-16 4 -39 15.5t-46 29t-41 41t-24 51.5q-2 10 1 18t8.5 13.5t11 8.5t8.5 4
q9 2 24.5 -1.5t23.5 -26.5q5 -17 2.5 -35.5t0.5 -37t18 -36.5t57 -34z" />
    <glyph glyph-name="ntilde" unicode="&#xf1;" horiz-adv-x="542" 
d="M226 587q-10 0 -16.5 8t-6.5 19q0 29 23 49t61 20q23 0 40.5 -9.5t34 -21t34 -21t38.5 -9.5q38 0 56.5 18t18.5 40q9 0 17 -6.5t8 -17.5q0 -32 -24 -51t-59 -19q-18 0 -37.5 9.5t-39.5 20.5t-39.5 20.5t-38.5 9.5q-20 0 -33 -5.5t-21.5 -14t-12 -19t-3.5 -20.5zM409 323
q10 26 20.5 55t12 53t-10 39.5t-44.5 15.5q-26 0 -56 -22t-57 -53t-48.5 -64.5t-30.5 -57.5q-19 -48 -36.5 -92.5t-31.5 -79.5l-23 -57.5t-10 -26.5q-3 -8 -7.5 -13.5t-15.5 -10.5q-8 -4 -22.5 -9t-16.5 -6q-5 -2 -8 0.5t-1 9.5q1 2 10.5 26.5t23.5 61t31 80.5t32.5 85
t28 74.5t18.5 48.5q16 46 13 75.5t-31 29.5q-13 0 -28 -11.5t-28.5 -26t-23 -27.5t-10.5 -15q-4 -5 -9.5 -2.5t-0.5 8.5q2 3 14.5 20t30.5 36t40.5 34t45.5 15q30 0 41.5 -18t13 -42.5t-4.5 -48.5t-10 -36h3q11 21 32 46t47.5 46.5t55.5 36.5t57 15q42 0 60 -17t22.5 -40.5
t-0.5 -47.5t-10 -37q-7 -18 -21.5 -55t-30 -75.5t-28 -70.5t-15.5 -40t-9 -25t-7.5 -34t6 -30.5t32.5 -13.5q19 0 34.5 8.5t27.5 21t20 26.5t12 24q3 6 7.5 6t1.5 -8q-2 -5 -10 -23.5t-22.5 -38.5t-36.5 -36.5t-50 -16.5q-36 0 -53.5 12.5t-22 35t2.5 53.5t20 67.5t30 78
t34 84.5z" />
    <glyph glyph-name="oacute" unicode="&#xf3;" 
d="M388 606q39 24 51.5 45t11.5 40t-7.5 36.5t-4.5 34.5q3 25 18 32t25 6q7 0 22.5 -8t16.5 -29q0 -29 -13.5 -55.5t-33.5 -48.5t-42 -38.5t-37 -24.5q-8 -5 -11 0.5t4 9.5zM215 -6q-55 0 -85 25t-41.5 63.5t-8 85.5t16.5 91t32 80t37 53q2 2 4 2t2 -3q2 -6 6.5 -16
t16.5 -22q5 -5 4 -10.5t-3 -7.5q-30 -47 -48.5 -104.5t-19 -107.5t19.5 -83.5t67 -33.5q32 0 60.5 19t53.5 50.5t45.5 72t37.5 84.5q20 52 30 101t6.5 86t-24 59.5t-61.5 22.5q-15 0 -30.5 -4t-28 -11.5t-21 -18.5t-8.5 -25q0 -11 4 -18.5t4 -19.5q0 -18 -13 -32t-32 -14
t-31.5 13.5t-12.5 32.5q0 16 13 35.5t35.5 36t54 27.5t67.5 11q65 0 96.5 -38.5t35.5 -96.5t-16.5 -125t-58.5 -125t-91 -96.5t-115 -38.5z" />
    <glyph glyph-name="ocircumflex" unicode="&#xf4;" 
d="M215 -6q-55 0 -85 25t-41.5 63.5t-8 85.5t16.5 91t32 80t37 53q2 2 4 2t2 -3q2 -6 6.5 -16t16.5 -22q5 -5 4 -10.5t-3 -7.5q-30 -47 -48.5 -104.5t-19 -107.5t19.5 -83.5t67 -33.5q32 0 60.5 19t53.5 50.5t45.5 72t37.5 84.5q20 52 30 101t6.5 86t-24 59.5t-61.5 22.5
q-15 0 -30.5 -4t-28 -11.5t-21 -18.5t-8.5 -25q0 -11 4 -18.5t4 -19.5q0 -18 -13 -32t-32 -14t-31.5 13.5t-12.5 32.5q0 16 13 35.5t35.5 36t54 27.5t67.5 11q65 0 96.5 -38.5t35.5 -96.5t-16.5 -125t-58.5 -125t-91 -96.5t-115 -38.5zM425 706q1 -2 8.5 -11.5t18.5 -23
t23.5 -29t23.5 -29.5t18.5 -23.5t8.5 -11.5h-53q-1 2 -12.5 14.5t-24.5 27t-24 26.5t-12 13q-18 -15 -29.5 -24t-21.5 -17t-21.5 -17t-28.5 -23h-30q21 19 46 41t46.5 41t37 31.5t17.5 14.5h9z" />
    <glyph glyph-name="odieresis" unicode="&#xf6;" horiz-adv-x="507" 
d="M215 -6q-55 0 -85 25t-41.5 63.5t-8 85.5t16.5 91t32 80t37 53q2 2 4 2t2 -3q2 -6 6.5 -16t16.5 -22q5 -5 4 -10.5t-3 -7.5q-30 -47 -48.5 -104.5t-19 -107.5t19.5 -83.5t67 -33.5q32 0 60.5 19t53.5 50.5t45.5 72t37.5 84.5q20 52 30 101t6.5 86t-24 59.5t-61.5 22.5
q-15 0 -30.5 -4t-28 -11.5t-21 -18.5t-8.5 -25q0 -11 4 -18.5t4 -19.5q0 -18 -13 -32t-32 -14t-31.5 13.5t-12.5 32.5q0 16 13 35.5t35.5 36t54 27.5t67.5 11q65 0 96.5 -38.5t35.5 -96.5t-16.5 -125t-58.5 -125t-91 -96.5t-115 -38.5z" />
    </font>
</defs>
</svg>
